<?xml version="1.0" standalone="no"?>
 <!DOCTYPE svg PUBLIC "-//W3C//DTD SVG 1.1//EN" 
 "http://www.w3.org/Graphics/SVG/1.1/DTD/svg11.dtd"> 
<svg
  xmlns:svg="http://www.w3.org/2000/svg"
  xmlns="http://www.w3.org/2000/svg"
  xmlns:xlink="http://www.w3.org/1999/xlink"
  version="1.1"
  width="297.0022mm" height="210.0072mm" viewBox="0.0000 0.0000 297.0022 210.0072">
<title>SVG Image created as TCC-PCB-F_Cu.svg date 2023/03/16 17:04:13 </title>
  <desc>Image generated by PCBNEW </desc>
<g style="fill:#000000; fill-opacity:1.0000;stroke:#000000; stroke-opacity:1.0000;
stroke-linecap:round; stroke-linejoin:round;"
 transform="translate(0 0) scale(1 1)">
</g>
<g style="fill:#000000; fill-opacity:0.0; 
stroke:#000000; stroke-width:0.0000; stroke-opacity:1; 
stroke-linecap:round; stroke-linejoin:round;">
<g >
</g>
<g style="fill:#000000; fill-opacity:0.0; 
stroke:#000000; stroke-width:0.0000; stroke-opacity:1; 
stroke-linecap:round; stroke-linejoin:round;">
</g>
<g style="fill:#000000; fill-opacity:1.0000; 
stroke:#000000; stroke-width:0.0000; stroke-opacity:1; 
stroke-linecap:round; stroke-linejoin:round;">
<path style="fill:#000000; fill-opacity:1.0000; 
stroke:#000000; stroke-width:0.0000; stroke-opacity:1; 
stroke-linecap:round; stroke-linejoin:round;fill-rule:evenodd;"
d="M 176.4031,90.4474
176.3110,90.4152
176.2382,90.3503
176.1958,90.2624
176.1903,90.1650
176.2633,89.6451
176.2955,89.5530
176.3605,89.4803
176.4483,89.4379
176.5457,89.4324
177.4369,89.5576
177.5290,89.5898
177.6018,89.6547
177.6442,89.7426
177.6497,89.8400
177.5767,90.3599
177.5445,90.4520
177.4795,90.5247
177.3917,90.5671
177.2943,90.5726
Z" /> 
<path style="fill:#000000; fill-opacity:1.0000; 
stroke:#000000; stroke-width:0.0000; stroke-opacity:1; 
stroke-linecap:round; stroke-linejoin:round;fill-rule:evenodd;"
d="M 176.6570,88.6401
176.5650,88.6080
176.4922,88.5430
176.4498,88.4552
176.4443,88.3578
176.5173,87.8379
176.5495,87.7458
176.6144,87.6730
176.7023,87.6307
176.7997,87.6251
177.6909,87.7504
177.7830,87.7825
177.8558,87.8475
177.8982,87.9353
177.9037,88.0327
177.8306,88.5526
177.7985,88.6447
177.7335,88.7175
177.6457,88.7599
177.5483,88.7654
Z" /> 
</g>
<g >
</g>
<g style="fill:#000000; fill-opacity:1.0000; 
stroke:#000000; stroke-width:0.0000; stroke-opacity:1; 
stroke-linecap:round; stroke-linejoin:round;">
<path style="fill:#000000; fill-opacity:1.0000; 
stroke:#000000; stroke-width:0.0000; stroke-opacity:1; 
stroke-linecap:round; stroke-linejoin:round;fill-rule:evenodd;"
d="M 180.9023,107.6903
180.8355,107.7613
180.7465,107.8014
180.6490,107.8044
180.5578,107.7698
180.1338,107.5049
180.0627,107.4380
180.0227,107.3491
180.0197,107.2516
180.0543,107.1604
180.5577,106.3547
180.6245,106.2837
180.7135,106.2436
180.8110,106.2406
180.9022,106.2752
181.3262,106.5401
181.3973,106.6070
181.4373,106.6959
181.4403,106.7934
181.4057,106.8846
Z" /> 
<path style="fill:#000000; fill-opacity:1.0000; 
stroke:#000000; stroke-width:0.0000; stroke-opacity:1; 
stroke-linecap:round; stroke-linejoin:round;fill-rule:evenodd;"
d="M 179.2910,106.6834
179.2242,106.7545
179.1352,106.7946
179.0377,106.7975
178.9465,106.7630
178.5225,106.4980
178.4515,106.4312
178.4114,106.3422
178.4084,106.2447
178.4430,106.1535
178.9464,105.3479
179.0132,105.2768
179.1022,105.2368
179.1997,105.2338
179.2909,105.2683
179.7149,105.5333
179.7860,105.6001
179.8260,105.6891
179.8290,105.7866
179.7944,105.8778
Z" /> 
</g>
<g >
</g>
<g style="fill:#000000; fill-opacity:1.0000; 
stroke:#000000; stroke-width:0.0000; stroke-opacity:1; 
stroke-linecap:round; stroke-linejoin:round;">
<path style="fill:#000000; fill-opacity:1.0000; 
stroke:#000000; stroke-width:0.0000; stroke-opacity:1; 
stroke-linecap:round; stroke-linejoin:round;fill-rule:evenodd;"
d="M 193.0231,97.7774
192.9310,97.7452
192.8582,97.6803
192.8158,97.5924
192.8103,97.4950
192.8833,96.9751
192.9155,96.8830
192.9805,96.8103
193.0683,96.7679
193.1657,96.7624
194.0569,96.8876
194.1490,96.9198
194.2218,96.9847
194.2642,97.0726
194.2697,97.1700
194.1967,97.6899
194.1645,97.7820
194.0995,97.8547
194.0117,97.8971
193.9143,97.9026
Z" /> 
<path style="fill:#000000; fill-opacity:1.0000; 
stroke:#000000; stroke-width:0.0000; stroke-opacity:1; 
stroke-linecap:round; stroke-linejoin:round;fill-rule:evenodd;"
d="M 193.2770,95.9701
193.1850,95.9380
193.1122,95.8730
193.0698,95.7852
193.0643,95.6878
193.1373,95.1679
193.1695,95.0758
193.2344,95.0030
193.3223,94.9607
193.4197,94.9551
194.3109,95.0804
194.4030,95.1125
194.4758,95.1775
194.5182,95.2653
194.5237,95.3627
194.4506,95.8826
194.4185,95.9747
194.3535,96.0475
194.2657,96.0899
194.1683,96.0954
Z" /> 
</g>
<g >
</g>
<g style="fill:#000000; fill-opacity:1.0000; 
stroke:#000000; stroke-width:0.0000; stroke-opacity:1; 
stroke-linecap:round; stroke-linejoin:round;">
<path style="fill:#000000; fill-opacity:1.0000; 
stroke:#000000; stroke-width:0.0000; stroke-opacity:1; 
stroke-linecap:round; stroke-linejoin:round;fill-rule:evenodd;"
d="M 183.2341,74.5286
183.7232,74.6325
183.2554,76.8334
182.7663,76.7294
Z" /> 
<path style="fill:#000000; fill-opacity:1.0000; 
stroke:#000000; stroke-width:0.0000; stroke-opacity:1; 
stroke-linecap:round; stroke-linejoin:round;fill-rule:evenodd;"
d="M 184.0166,74.6949
184.5057,74.7989
184.0379,76.9997
183.5488,76.8957
Z" /> 
<path style="fill:#000000; fill-opacity:1.0000; 
stroke:#000000; stroke-width:0.0000; stroke-opacity:1; 
stroke-linecap:round; stroke-linejoin:round;fill-rule:evenodd;"
d="M 184.7991,74.8612
185.2882,74.9652
184.8204,77.1660
184.3313,77.0621
Z" /> 
<path style="fill:#000000; fill-opacity:1.0000; 
stroke:#000000; stroke-width:0.0000; stroke-opacity:1; 
stroke-linecap:round; stroke-linejoin:round;fill-rule:evenodd;"
d="M 185.5816,75.0276
186.0707,75.1315
185.6029,77.3323
185.1138,77.2284
Z" /> 
<path style="fill:#000000; fill-opacity:1.0000; 
stroke:#000000; stroke-width:0.0000; stroke-opacity:1; 
stroke-linecap:round; stroke-linejoin:round;fill-rule:evenodd;"
d="M 186.3642,75.1939
186.8532,75.2978
186.3854,77.4987
185.8964,77.3947
Z" /> 
</g>
<g style="fill:#000000; fill-opacity:1.0000; 
stroke:#000000; stroke-width:1.7000; stroke-opacity:1; 
stroke-linecap:round; stroke-linejoin:round;">
</g>
<g style="fill:#000000; fill-opacity:0.0; 
stroke:#000000; stroke-width:1.7000; stroke-opacity:1; 
stroke-linecap:round; stroke-linejoin:round;">
<path d="M189.4196 71.8818
L189.2116 72.8599
" />
<path d="M182.2791 70.3640
L182.0712 71.3422
" />
<path d="M188.4840 76.2834
L188.2760 77.2616
" />
<path d="M181.3435 74.7657
L181.1356 75.7438
" />
</g>
<g >
</g>
<g style="fill:#000000; fill-opacity:0.0; 
stroke:#000000; stroke-width:1.7000; stroke-opacity:1; 
stroke-linecap:round; stroke-linejoin:round;">
</g>
<g style="fill:#000000; fill-opacity:0.0; 
stroke:#000000; stroke-width:0.0000; stroke-opacity:1; 
stroke-linecap:round; stroke-linejoin:round;">
</g>
<g style="fill:#000000; fill-opacity:1.0000; 
stroke:#000000; stroke-width:0.0000; stroke-opacity:1; 
stroke-linecap:round; stroke-linejoin:round;">
<path style="fill:#000000; fill-opacity:1.0000; 
stroke:#000000; stroke-width:0.0000; stroke-opacity:1; 
stroke-linecap:round; stroke-linejoin:round;fill-rule:evenodd;"
d="M 194.9844,90.8120
195.0765,90.8441
195.1493,90.9091
195.1916,90.9969
195.1972,91.0943
195.1276,91.5895
195.0954,91.6815
195.0305,91.7543
194.9426,91.7967
194.8452,91.8022
193.9045,91.6700
193.8124,91.6379
193.7396,91.5729
193.6972,91.4850
193.6917,91.3877
193.7613,90.8925
193.7934,90.8004
193.8584,90.7277
193.9462,90.6853
194.0436,90.6797
Z" /> 
<path style="fill:#000000; fill-opacity:1.0000; 
stroke:#000000; stroke-width:0.0000; stroke-opacity:1; 
stroke-linecap:round; stroke-linejoin:round;fill-rule:evenodd;"
d="M 194.7200,92.6935
194.8121,92.7256
194.8848,92.7906
194.9272,92.8784
194.9327,92.9758
194.8632,93.4710
194.8310,93.5631
194.7660,93.6358
194.6782,93.6782
194.5808,93.6837
193.6400,93.5515
193.5479,93.5194
193.4752,93.4544
193.4328,93.3666
193.4273,93.2692
193.4968,92.7740
193.5290,92.6819
193.5940,92.6092
193.6818,92.5668
193.7792,92.5613
Z" /> 
</g>
<g >
</g>
<g style="fill:#000000; fill-opacity:1.0000; 
stroke:#000000; stroke-width:0.0000; stroke-opacity:1; 
stroke-linecap:round; stroke-linejoin:round;">
<path style="fill:#000000; fill-opacity:1.0000; 
stroke:#000000; stroke-width:0.0000; stroke-opacity:1; 
stroke-linecap:round; stroke-linejoin:round;fill-rule:evenodd;"
d="M 182.3862,87.3818
182.2941,87.3497
182.2213,87.2847
182.1789,87.1969
182.1734,87.0995
182.2430,86.6044
182.2751,86.5123
182.3401,86.4395
182.4280,86.3971
182.5253,86.3916
183.4661,86.5238
183.5582,86.5560
183.6310,86.6209
183.6733,86.7088
183.6789,86.8062
183.6093,87.3013
183.5771,87.3934
183.5122,87.4662
183.4243,87.5085
183.3269,87.5141
Z" /> 
<path style="fill:#000000; fill-opacity:1.0000; 
stroke:#000000; stroke-width:0.0000; stroke-opacity:1; 
stroke-linecap:round; stroke-linejoin:round;fill-rule:evenodd;"
d="M 182.6506,85.5003
182.5585,85.4682
182.4857,85.4032
182.4433,85.3154
182.4378,85.2180
182.5074,84.7228
182.5396,84.6308
182.6045,84.5580
182.6924,84.5156
182.7898,84.5101
183.7305,84.6423
183.8226,84.6744
183.8954,84.7394
183.9378,84.8273
183.9433,84.9246
183.8737,85.4198
183.8415,85.5119
183.7766,85.5846
183.6887,85.6270
183.5913,85.6326
Z" /> 
</g>
<g >
</g>
<g style="fill:#000000; fill-opacity:1.0000; 
stroke:#000000; stroke-width:0.0000; stroke-opacity:1; 
stroke-linecap:round; stroke-linejoin:round;">
<path style="fill:#000000; fill-opacity:1.0000; 
stroke:#000000; stroke-width:0.0000; stroke-opacity:1; 
stroke-linecap:round; stroke-linejoin:round;fill-rule:evenodd;"
d="M 175.6500,94.7715
175.5579,94.7394
175.4852,94.6744
175.4428,94.5866
175.4373,94.4892
175.5068,93.9940
175.5390,93.9019
175.6040,93.8292
175.6918,93.7868
175.7892,93.7813
176.7300,93.9135
176.8221,93.9456
176.8948,94.0106
176.9372,94.0984
176.9427,94.1958
176.8732,94.6910
176.8410,94.7831
176.7760,94.8558
176.6882,94.8982
176.5908,94.9037
Z" /> 
<path style="fill:#000000; fill-opacity:1.0000; 
stroke:#000000; stroke-width:0.0000; stroke-opacity:1; 
stroke-linecap:round; stroke-linejoin:round;fill-rule:evenodd;"
d="M 175.9145,92.8900
175.8224,92.8579
175.7496,92.7929
175.7072,92.7050
175.7017,92.6077
175.7713,92.1125
175.8034,92.0204
175.8684,91.9477
175.9562,91.9053
176.0536,91.8997
176.9944,92.0320
177.0865,92.0641
177.1593,92.1291
177.2016,92.2169
177.2072,92.3143
177.1376,92.8095
177.1054,92.9015
177.0405,92.9743
176.9526,93.0167
176.8552,93.0222
Z" /> 
</g>
<g >
</g>
<g >
</g>
<g >
</g>
<g >
</g>
<g >
</g>
<g style="fill:#000000; fill-opacity:1.0000; 
stroke:#000000; stroke-width:0.0000; stroke-opacity:1; 
stroke-linecap:round; stroke-linejoin:round;">
<path style="fill:#000000; fill-opacity:1.0000; 
stroke:#000000; stroke-width:0.0000; stroke-opacity:1; 
stroke-linecap:round; stroke-linejoin:round;fill-rule:evenodd;"
d="M 183.5027,108.0330
183.5562,107.9515
183.6368,107.8966
183.7323,107.8767
183.8281,107.8949
184.2917,108.0822
184.3733,108.1357
184.4282,108.2163
184.4481,108.3118
184.4299,108.4076
184.0740,109.2885
184.0205,109.3700
183.9399,109.4249
183.8444,109.4448
183.7486,109.4266
183.2850,109.2393
183.2034,109.1858
183.1485,109.1052
183.1286,109.0097
183.1468,108.9139
Z" /> 
<path style="fill:#000000; fill-opacity:1.0000; 
stroke:#000000; stroke-width:0.0000; stroke-opacity:1; 
stroke-linecap:round; stroke-linejoin:round;fill-rule:evenodd;"
d="M 185.2643,108.7448
185.3178,108.6632
185.3985,108.6083
185.4940,108.5884
185.5898,108.6066
186.0534,108.7939
186.1350,108.8474
186.1899,108.9281
186.2097,109.0236
186.1915,109.1194
185.8357,110.0002
185.7822,110.0818
185.7015,110.1367
185.6060,110.1566
185.5102,110.1384
185.0466,109.9511
184.9650,109.8976
184.9101,109.8169
184.8903,109.7214
184.9085,109.6256
Z" /> 
</g>
<g >
</g>
<g style="fill:#000000; fill-opacity:1.0000; 
stroke:#000000; stroke-width:0.0000; stroke-opacity:1; 
stroke-linecap:round; stroke-linejoin:round;">
<path style="fill:#000000; fill-opacity:1.0000; 
stroke:#000000; stroke-width:0.0000; stroke-opacity:1; 
stroke-linecap:round; stroke-linejoin:round;fill-rule:evenodd;"
d="M 192.7050,74.0175
192.7240,73.9218
192.7782,73.8407
192.8593,73.7865
192.9550,73.7675
193.7050,73.7675
193.8007,73.7865
193.8818,73.8407
193.9360,73.9218
193.9550,74.0175
193.9550,75.2675
193.9360,75.3632
193.8818,75.4443
193.8007,75.4985
193.7050,75.5175
192.9550,75.5175
192.8593,75.4985
192.7782,75.4443
192.7240,75.3632
192.7050,75.2675
Z" /> 
<path style="fill:#000000; fill-opacity:1.0000; 
stroke:#000000; stroke-width:0.0000; stroke-opacity:1; 
stroke-linecap:round; stroke-linejoin:round;fill-rule:evenodd;"
d="M 195.5050,74.0175
195.5240,73.9218
195.5782,73.8407
195.6593,73.7865
195.7550,73.7675
196.5050,73.7675
196.6007,73.7865
196.6818,73.8407
196.7360,73.9218
196.7550,74.0175
196.7550,75.2675
196.7360,75.3632
196.6818,75.4443
196.6007,75.4985
196.5050,75.5175
195.7550,75.5175
195.6593,75.4985
195.5782,75.4443
195.5240,75.3632
195.5050,75.2675
Z" /> 
</g>
<g >
</g>
<g style="fill:#000000; fill-opacity:1.0000; 
stroke:#000000; stroke-width:0.0000; stroke-opacity:1; 
stroke-linecap:round; stroke-linejoin:round;">
<path style="fill:#000000; fill-opacity:1.0000; 
stroke:#000000; stroke-width:0.0000; stroke-opacity:1; 
stroke-linecap:round; stroke-linejoin:round;fill-rule:evenodd;"
d="M 185.5139,79.2940
185.6060,79.3262
185.6788,79.3911
185.7212,79.4790
185.7267,79.5764
185.6536,80.0962
185.6215,80.1883
185.5565,80.2611
185.4687,80.3035
185.3713,80.3090
184.4800,80.1838
184.3880,80.1516
184.3152,80.0867
184.2728,79.9988
184.2673,79.9014
184.3403,79.3815
184.3725,79.2894
184.4375,79.2166
184.5253,79.1743
184.6227,79.1687
Z" /> 
<path style="fill:#000000; fill-opacity:1.0000; 
stroke:#000000; stroke-width:0.0000; stroke-opacity:1; 
stroke-linecap:round; stroke-linejoin:round;fill-rule:evenodd;"
d="M 185.2600,81.1012
185.3520,81.1334
185.4248,81.1983
185.4672,81.2862
185.4727,81.3836
185.3997,81.9035
185.3675,81.9956
185.3025,82.0684
185.2147,82.1107
185.1173,82.1163
184.2261,81.9910
184.1340,81.9588
184.0612,81.8939
184.0188,81.8060
184.0133,81.7086
184.0863,81.1888
184.1185,81.0967
184.1835,81.0239
184.2713,80.9815
184.3687,80.9760
Z" /> 
</g>
<g >
</g>
<g style="fill:#000000; fill-opacity:1.0000; 
stroke:#000000; stroke-width:0.0000; stroke-opacity:1; 
stroke-linecap:round; stroke-linejoin:round;">
<path style="fill:#000000; fill-opacity:1.0000; 
stroke:#000000; stroke-width:0.0000; stroke-opacity:1; 
stroke-linecap:round; stroke-linejoin:round;fill-rule:evenodd;"
d="M 183.3339,78.9340
183.4260,78.9662
183.4988,79.0311
183.5412,79.1190
183.5467,79.2164
183.4736,79.7362
183.4415,79.8283
183.3765,79.9011
183.2887,79.9435
183.1913,79.9490
182.3000,79.8238
182.2080,79.7916
182.1352,79.7267
182.0928,79.6388
182.0873,79.5414
182.1603,79.0215
182.1925,78.9294
182.2575,78.8566
182.3453,78.8143
182.4427,78.8087
Z" /> 
<path style="fill:#000000; fill-opacity:1.0000; 
stroke:#000000; stroke-width:0.0000; stroke-opacity:1; 
stroke-linecap:round; stroke-linejoin:round;fill-rule:evenodd;"
d="M 183.0800,80.7412
183.1720,80.7734
183.2448,80.8383
183.2872,80.9262
183.2927,81.0236
183.2197,81.5435
183.1875,81.6356
183.1225,81.7084
183.0347,81.7507
182.9373,81.7563
182.0461,81.6310
181.9540,81.5988
181.8812,81.5339
181.8388,81.4460
181.8333,81.3486
181.9064,80.8288
181.9385,80.7367
182.0035,80.6639
182.0913,80.6215
182.1887,80.6160
Z" /> 
</g>
<g >
</g>
<g >
</g>
<g style="fill:#000000; fill-opacity:1.0000; 
stroke:#000000; stroke-width:0.0000; stroke-opacity:1; 
stroke-linecap:round; stroke-linejoin:round;">
<path style="fill:#000000; fill-opacity:1.0000; 
stroke:#000000; stroke-width:0.0000; stroke-opacity:1; 
stroke-linecap:round; stroke-linejoin:round;fill-rule:evenodd;"
d="M 195.3019,84.6748
195.4550,83.5855
197.2374,83.8360
197.0844,84.9253
Z" /> 
<path style="fill:#000000; fill-opacity:1.0000; 
stroke:#000000; stroke-width:0.0000; stroke-opacity:1; 
stroke-linecap:round; stroke-linejoin:round;fill-rule:evenodd;"
d="M 189.6772,80.1479
189.8302,79.0586
191.6127,79.3091
191.4596,80.3984
Z" /> 
<path style="fill:#000000; fill-opacity:1.0000; 
stroke:#000000; stroke-width:0.0000; stroke-opacity:1; 
stroke-linecap:round; stroke-linejoin:round;fill-rule:evenodd;"
d="M 195.8168,81.0108
195.9699,79.9215
197.7524,80.1720
197.5993,81.2613
Z" /> 
<path style="fill:#000000; fill-opacity:1.0000; 
stroke:#000000; stroke-width:0.0000; stroke-opacity:1; 
stroke-linecap:round; stroke-linejoin:round;fill-rule:evenodd;"
d="M 189.1622,83.8119
189.3153,82.7226
191.0978,82.9731
190.9447,84.0624
Z" /> 
</g>
<g >
</g>
<g >
</g>
<g style="fill:#000000; fill-opacity:1.0000; 
stroke:#000000; stroke-width:0.0000; stroke-opacity:1; 
stroke-linecap:round; stroke-linejoin:round;">
<path style="fill:#000000; fill-opacity:1.0000; 
stroke:#000000; stroke-width:0.0000; stroke-opacity:1; 
stroke-linecap:round; stroke-linejoin:round;fill-rule:evenodd;"
d="M 192.7578,102.5523
192.6657,102.5201
192.5930,102.4552
192.5506,102.3673
192.5450,102.2699
192.6146,101.7748
192.6468,101.6827
192.7117,101.6099
192.7996,101.5675
192.8970,101.5620
193.8377,101.6942
193.9298,101.7264
194.0026,101.7913
194.0450,101.8792
194.0505,101.9766
193.9809,102.4717
193.9488,102.5638
193.8838,102.6366
193.7960,102.6790
193.6986,102.6845
Z" /> 
<path style="fill:#000000; fill-opacity:1.0000; 
stroke:#000000; stroke-width:0.0000; stroke-opacity:1; 
stroke-linecap:round; stroke-linejoin:round;fill-rule:evenodd;"
d="M 193.0222,100.6708
192.9302,100.6386
192.8574,100.5737
192.8150,100.4858
192.8095,100.3884
192.8791,99.8933
192.9112,99.8012
192.9762,99.7284
193.0640,99.6860
193.1614,99.6805
194.1022,99.8127
194.1943,99.8449
194.2670,99.9098
194.3094,99.9977
194.3150,100.0951
194.2454,100.5902
194.2132,100.6823
194.1483,100.7551
194.0604,100.7975
193.9630,100.8030
Z" /> 
</g>
<g >
</g>
<g >
</g>
<g >
</g>
<g >
</g>
<g style="fill:#000000; fill-opacity:1.0000; 
stroke:#000000; stroke-width:0.0000; stroke-opacity:1; 
stroke-linecap:round; stroke-linejoin:round;">
<path style="fill:#000000; fill-opacity:1.0000; 
stroke:#000000; stroke-width:0.0000; stroke-opacity:1; 
stroke-linecap:round; stroke-linejoin:round;fill-rule:evenodd;"
d="M 190.5832,102.2711
190.5066,102.8157
189.0212,102.6070
189.0978,102.0623
Z" /> 
<path style="fill:#000000; fill-opacity:1.0000; 
stroke:#000000; stroke-width:0.0000; stroke-opacity:1; 
stroke-linecap:round; stroke-linejoin:round;fill-rule:evenodd;"
d="M 190.6945,101.4789
190.6180,102.0235
189.1326,101.8148
189.2091,101.2701
Z" /> 
<path style="fill:#000000; fill-opacity:1.0000; 
stroke:#000000; stroke-width:0.0000; stroke-opacity:1; 
stroke-linecap:round; stroke-linejoin:round;fill-rule:evenodd;"
d="M 190.8058,100.6867
190.7293,101.2313
189.2439,101.0225
189.3204,100.4779
Z" /> 
<path style="fill:#000000; fill-opacity:1.0000; 
stroke:#000000; stroke-width:0.0000; stroke-opacity:1; 
stroke-linecap:round; stroke-linejoin:round;fill-rule:evenodd;"
d="M 190.9172,99.8944
190.8406,100.4391
189.3552,100.2303
189.4318,99.6857
Z" /> 
<path style="fill:#000000; fill-opacity:1.0000; 
stroke:#000000; stroke-width:0.0000; stroke-opacity:1; 
stroke-linecap:round; stroke-linejoin:round;fill-rule:evenodd;"
d="M 191.0285,99.1022
190.9520,99.6469
189.4666,99.4381
189.5431,98.8935
Z" /> 
<path style="fill:#000000; fill-opacity:1.0000; 
stroke:#000000; stroke-width:0.0000; stroke-opacity:1; 
stroke-linecap:round; stroke-linejoin:round;fill-rule:evenodd;"
d="M 191.1399,98.3100
191.0633,98.8547
189.5779,98.6459
189.6545,98.1012
Z" /> 
<path style="fill:#000000; fill-opacity:1.0000; 
stroke:#000000; stroke-width:0.0000; stroke-opacity:1; 
stroke-linecap:round; stroke-linejoin:round;fill-rule:evenodd;"
d="M 191.2512,97.5178
191.1747,98.0624
189.6893,97.8537
189.7658,97.3090
Z" /> 
<path style="fill:#000000; fill-opacity:1.0000; 
stroke:#000000; stroke-width:0.0000; stroke-opacity:1; 
stroke-linecap:round; stroke-linejoin:round;fill-rule:evenodd;"
d="M 191.3625,96.7256
191.2860,97.2702
189.8006,97.0615
189.8771,96.5168
Z" /> 
<path style="fill:#000000; fill-opacity:1.0000; 
stroke:#000000; stroke-width:0.0000; stroke-opacity:1; 
stroke-linecap:round; stroke-linejoin:round;fill-rule:evenodd;"
d="M 191.4739,95.9334
191.3973,96.4780
189.9119,96.2693
189.9885,95.7246
Z" /> 
<path style="fill:#000000; fill-opacity:1.0000; 
stroke:#000000; stroke-width:0.0000; stroke-opacity:1; 
stroke-linecap:round; stroke-linejoin:round;fill-rule:evenodd;"
d="M 191.5852,95.1411
191.5087,95.6858
190.0233,95.4770
190.0998,94.9324
Z" /> 
<path style="fill:#000000; fill-opacity:1.0000; 
stroke:#000000; stroke-width:0.0000; stroke-opacity:1; 
stroke-linecap:round; stroke-linejoin:round;fill-rule:evenodd;"
d="M 191.6966,94.3489
191.6200,94.8936
190.1346,94.6848
190.2112,94.1402
Z" /> 
<path style="fill:#000000; fill-opacity:1.0000; 
stroke:#000000; stroke-width:0.0000; stroke-opacity:1; 
stroke-linecap:round; stroke-linejoin:round;fill-rule:evenodd;"
d="M 189.3008,91.8159
189.8454,91.8924
189.6367,93.3778
189.0920,93.3013
Z" /> 
<path style="fill:#000000; fill-opacity:1.0000; 
stroke:#000000; stroke-width:0.0000; stroke-opacity:1; 
stroke-linecap:round; stroke-linejoin:round;fill-rule:evenodd;"
d="M 188.5086,91.7045
189.0532,91.7811
188.8444,93.2665
188.2998,93.1899
Z" /> 
<path style="fill:#000000; fill-opacity:1.0000; 
stroke:#000000; stroke-width:0.0000; stroke-opacity:1; 
stroke-linecap:round; stroke-linejoin:round;fill-rule:evenodd;"
d="M 187.7163,91.5932
188.2610,91.6697
188.0522,93.1551
187.5076,93.0786
Z" /> 
<path style="fill:#000000; fill-opacity:1.0000; 
stroke:#000000; stroke-width:0.0000; stroke-opacity:1; 
stroke-linecap:round; stroke-linejoin:round;fill-rule:evenodd;"
d="M 186.9241,91.4818
187.4688,91.5584
187.2600,93.0438
186.7154,92.9672
Z" /> 
<path style="fill:#000000; fill-opacity:1.0000; 
stroke:#000000; stroke-width:0.0000; stroke-opacity:1; 
stroke-linecap:round; stroke-linejoin:round;fill-rule:evenodd;"
d="M 186.1319,91.3705
186.6766,91.4470
186.4678,92.9324
185.9232,92.8559
Z" /> 
<path style="fill:#000000; fill-opacity:1.0000; 
stroke:#000000; stroke-width:0.0000; stroke-opacity:1; 
stroke-linecap:round; stroke-linejoin:round;fill-rule:evenodd;"
d="M 185.3397,91.2592
185.8843,91.3357
185.6756,92.8211
185.1309,92.7446
Z" /> 
<path style="fill:#000000; fill-opacity:1.0000; 
stroke:#000000; stroke-width:0.0000; stroke-opacity:1; 
stroke-linecap:round; stroke-linejoin:round;fill-rule:evenodd;"
d="M 184.5475,91.1478
185.0921,91.2244
184.8834,92.7098
184.3387,92.6332
Z" /> 
<path style="fill:#000000; fill-opacity:1.0000; 
stroke:#000000; stroke-width:0.0000; stroke-opacity:1; 
stroke-linecap:round; stroke-linejoin:round;fill-rule:evenodd;"
d="M 183.7553,91.0365
184.2999,91.1130
184.0912,92.5984
183.5465,92.5219
Z" /> 
<path style="fill:#000000; fill-opacity:1.0000; 
stroke:#000000; stroke-width:0.0000; stroke-opacity:1; 
stroke-linecap:round; stroke-linejoin:round;fill-rule:evenodd;"
d="M 182.9631,90.9251
183.5077,91.0017
183.2989,92.4871
182.7543,92.4105
Z" /> 
<path style="fill:#000000; fill-opacity:1.0000; 
stroke:#000000; stroke-width:0.0000; stroke-opacity:1; 
stroke-linecap:round; stroke-linejoin:round;fill-rule:evenodd;"
d="M 182.1708,90.8138
182.7155,90.8904
182.5067,92.3758
181.9621,92.2992
Z" /> 
<path style="fill:#000000; fill-opacity:1.0000; 
stroke:#000000; stroke-width:0.0000; stroke-opacity:1; 
stroke-linecap:round; stroke-linejoin:round;fill-rule:evenodd;"
d="M 181.3786,90.7025
181.9233,90.7790
181.7145,92.2644
181.1699,92.1879
Z" /> 
<path style="fill:#000000; fill-opacity:1.0000; 
stroke:#000000; stroke-width:0.0000; stroke-opacity:1; 
stroke-linecap:round; stroke-linejoin:round;fill-rule:evenodd;"
d="M 180.4075,92.7624
180.3310,93.3070
178.8455,93.0982
178.9221,92.5536
Z" /> 
<path style="fill:#000000; fill-opacity:1.0000; 
stroke:#000000; stroke-width:0.0000; stroke-opacity:1; 
stroke-linecap:round; stroke-linejoin:round;fill-rule:evenodd;"
d="M 180.2962,93.5546
180.2196,94.0992
178.7342,93.8905
178.8108,93.3458
Z" /> 
<path style="fill:#000000; fill-opacity:1.0000; 
stroke:#000000; stroke-width:0.0000; stroke-opacity:1; 
stroke-linecap:round; stroke-linejoin:round;fill-rule:evenodd;"
d="M 180.1848,94.3468
180.1083,94.8914
178.6229,94.6827
178.6994,94.1380
Z" /> 
<path style="fill:#000000; fill-opacity:1.0000; 
stroke:#000000; stroke-width:0.0000; stroke-opacity:1; 
stroke-linecap:round; stroke-linejoin:round;fill-rule:evenodd;"
d="M 180.0735,95.1390
179.9969,95.6837
178.5115,95.4749
178.5881,94.9302
Z" /> 
<path style="fill:#000000; fill-opacity:1.0000; 
stroke:#000000; stroke-width:0.0000; stroke-opacity:1; 
stroke-linecap:round; stroke-linejoin:round;fill-rule:evenodd;"
d="M 179.9621,95.9312
179.8856,96.4759
178.4002,96.2671
178.4767,95.7225
Z" /> 
<path style="fill:#000000; fill-opacity:1.0000; 
stroke:#000000; stroke-width:0.0000; stroke-opacity:1; 
stroke-linecap:round; stroke-linejoin:round;fill-rule:evenodd;"
d="M 179.8508,96.7234
179.7743,97.2681
178.2889,97.0593
178.3654,96.5147
Z" /> 
<path style="fill:#000000; fill-opacity:1.0000; 
stroke:#000000; stroke-width:0.0000; stroke-opacity:1; 
stroke-linecap:round; stroke-linejoin:round;fill-rule:evenodd;"
d="M 179.7395,97.5156
179.6629,98.0603
178.1775,97.8515
178.2541,97.3069
Z" /> 
<path style="fill:#000000; fill-opacity:1.0000; 
stroke:#000000; stroke-width:0.0000; stroke-opacity:1; 
stroke-linecap:round; stroke-linejoin:round;fill-rule:evenodd;"
d="M 179.6281,98.3079
179.5516,98.8525
178.0662,98.6437
178.1427,98.0991
Z" /> 
<path style="fill:#000000; fill-opacity:1.0000; 
stroke:#000000; stroke-width:0.0000; stroke-opacity:1; 
stroke-linecap:round; stroke-linejoin:round;fill-rule:evenodd;"
d="M 179.5168,99.1001
179.4402,99.6447
177.9548,99.4360
178.0314,98.8913
Z" /> 
<path style="fill:#000000; fill-opacity:1.0000; 
stroke:#000000; stroke-width:0.0000; stroke-opacity:1; 
stroke-linecap:round; stroke-linejoin:round;fill-rule:evenodd;"
d="M 179.4055,99.8923
179.3289,100.4369
177.8435,100.2282
177.9200,99.6835
Z" /> 
<path style="fill:#000000; fill-opacity:1.0000; 
stroke:#000000; stroke-width:0.0000; stroke-opacity:1; 
stroke-linecap:round; stroke-linejoin:round;fill-rule:evenodd;"
d="M 179.2941,100.6845
179.2176,101.2292
177.7322,101.0204
177.8087,100.4757
Z" /> 
<path style="fill:#000000; fill-opacity:1.0000; 
stroke:#000000; stroke-width:0.0000; stroke-opacity:1; 
stroke-linecap:round; stroke-linejoin:round;fill-rule:evenodd;"
d="M 179.7921,101.9915
180.3367,102.0681
180.1279,103.5535
179.5833,103.4769
Z" /> 
<path style="fill:#000000; fill-opacity:1.0000; 
stroke:#000000; stroke-width:0.0000; stroke-opacity:1; 
stroke-linecap:round; stroke-linejoin:round;fill-rule:evenodd;"
d="M 180.5843,102.1029
181.1289,102.1794
180.9202,103.6648
180.3755,103.5883
Z" /> 
<path style="fill:#000000; fill-opacity:1.0000; 
stroke:#000000; stroke-width:0.0000; stroke-opacity:1; 
stroke-linecap:round; stroke-linejoin:round;fill-rule:evenodd;"
d="M 181.3765,102.2142
181.9211,102.2907
181.7124,103.7762
181.1677,103.6996
Z" /> 
<path style="fill:#000000; fill-opacity:1.0000; 
stroke:#000000; stroke-width:0.0000; stroke-opacity:1; 
stroke-linecap:round; stroke-linejoin:round;fill-rule:evenodd;"
d="M 182.1687,102.3255
182.7133,102.4021
182.5046,103.8875
181.9599,103.8109
Z" /> 
<path style="fill:#000000; fill-opacity:1.0000; 
stroke:#000000; stroke-width:0.0000; stroke-opacity:1; 
stroke-linecap:round; stroke-linejoin:round;fill-rule:evenodd;"
d="M 182.9609,102.4369
183.5056,102.5134
183.2968,103.9988
182.7522,103.9223
Z" /> 
<path style="fill:#000000; fill-opacity:1.0000; 
stroke:#000000; stroke-width:0.0000; stroke-opacity:1; 
stroke-linecap:round; stroke-linejoin:round;fill-rule:evenodd;"
d="M 183.7531,102.5482
184.2978,102.6248
184.0890,104.1102
183.5444,104.0336
Z" /> 
<path style="fill:#000000; fill-opacity:1.0000; 
stroke:#000000; stroke-width:0.0000; stroke-opacity:1; 
stroke-linecap:round; stroke-linejoin:round;fill-rule:evenodd;"
d="M 184.5453,102.6596
185.0900,102.7361
184.8812,104.2215
184.3366,104.1450
Z" /> 
<path style="fill:#000000; fill-opacity:1.0000; 
stroke:#000000; stroke-width:0.0000; stroke-opacity:1; 
stroke-linecap:round; stroke-linejoin:round;fill-rule:evenodd;"
d="M 185.3376,102.7709
185.8822,102.8474
185.6734,104.3328
185.1288,104.2563
Z" /> 
<path style="fill:#000000; fill-opacity:1.0000; 
stroke:#000000; stroke-width:0.0000; stroke-opacity:1; 
stroke-linecap:round; stroke-linejoin:round;fill-rule:evenodd;"
d="M 186.1298,102.8822
186.6744,102.9588
186.4657,104.4442
185.9210,104.3676
Z" /> 
<path style="fill:#000000; fill-opacity:1.0000; 
stroke:#000000; stroke-width:0.0000; stroke-opacity:1; 
stroke-linecap:round; stroke-linejoin:round;fill-rule:evenodd;"
d="M 186.9220,102.9936
187.4666,103.0701
187.2579,104.5555
186.7132,104.4790
Z" /> 
<path style="fill:#000000; fill-opacity:1.0000; 
stroke:#000000; stroke-width:0.0000; stroke-opacity:1; 
stroke-linecap:round; stroke-linejoin:round;fill-rule:evenodd;"
d="M 187.7142,103.1049
188.2588,103.1815
188.0501,104.6669
187.5054,104.5903
Z" /> 
</g>
<g >
</g>
<g style="fill:#000000; fill-opacity:1.0000; 
stroke:#000000; stroke-width:0.0000; stroke-opacity:1; 
stroke-linecap:round; stroke-linejoin:round;">
<path style="fill:#000000; fill-opacity:1.0000; 
stroke:#000000; stroke-width:0.0000; stroke-opacity:1; 
stroke-linecap:round; stroke-linejoin:round;fill-rule:evenodd;"
d="M 189.9320,88.4423
189.8399,88.4102
189.7671,88.3452
189.7248,88.2574
189.7192,88.1600
189.7888,87.6649
189.8210,87.5728
189.8859,87.5000
189.9738,87.4576
190.0712,87.4521
191.0119,87.5843
191.1040,87.6165
191.1768,87.6814
191.2192,87.7693
191.2247,87.8667
191.1551,88.3618
191.1230,88.4539
191.0580,88.5267
190.9702,88.5690
190.8728,88.5746
Z" /> 
<path style="fill:#000000; fill-opacity:1.0000; 
stroke:#000000; stroke-width:0.0000; stroke-opacity:1; 
stroke-linecap:round; stroke-linejoin:round;fill-rule:evenodd;"
d="M 190.1964,86.5608
190.1043,86.5287
190.0316,86.4637
189.9892,86.3759
189.9837,86.2785
190.0532,85.7833
190.0854,85.6912
190.1504,85.6185
190.2382,85.5761
190.3356,85.5706
191.2764,85.7028
191.3685,85.7349
191.4412,85.7999
191.4836,85.8878
191.4891,85.9851
191.4196,86.4803
191.3874,86.5724
191.3224,86.6451
191.2346,86.6875
191.1372,86.6930
Z" /> 
</g>
<g >
</g>
<g style="fill:#000000; fill-opacity:1.0000; 
stroke:#000000; stroke-width:0.0000; stroke-opacity:1; 
stroke-linecap:round; stroke-linejoin:round;">
<path style="fill:#000000; fill-opacity:1.0000; 
stroke:#000000; stroke-width:0.0000; stroke-opacity:1; 
stroke-linecap:round; stroke-linejoin:round;fill-rule:evenodd;"
d="M 184.6647,87.8031
184.8317,86.6147
186.2181,86.8096
186.0511,87.9979
Z" /> 
<path style="fill:#000000; fill-opacity:1.0000; 
stroke:#000000; stroke-width:0.0000; stroke-opacity:1; 
stroke-linecap:round; stroke-linejoin:round;fill-rule:evenodd;"
d="M 186.8433,88.1092
187.0103,86.9209
188.3967,87.1158
188.2297,88.3041
Z" /> 
<path style="fill:#000000; fill-opacity:1.0000; 
stroke:#000000; stroke-width:0.0000; stroke-opacity:1; 
stroke-linecap:round; stroke-linejoin:round;fill-rule:evenodd;"
d="M 187.0799,86.4258
187.2469,85.2375
188.6333,85.4323
188.4663,86.6206
Z" /> 
<path style="fill:#000000; fill-opacity:1.0000; 
stroke:#000000; stroke-width:0.0000; stroke-opacity:1; 
stroke-linecap:round; stroke-linejoin:round;fill-rule:evenodd;"
d="M 184.9013,86.1196
185.0683,84.9313
186.4547,85.1261
186.2877,86.3144
Z" /> 
</g>
<g >
</g>
<g >
</g>
<g >
</g>
<g >
</g>
<g >
</g>
<g >
</g>
<g >
</g>
<g >
</g>
<g >
</g>
<g style="fill:#000000; fill-opacity:1.0000; 
stroke:#000000; stroke-width:0.0000; stroke-opacity:1; 
stroke-linecap:round; stroke-linejoin:round;">
<circle cx="183.4300" cy="88.7225" r="0.4000" /> 
</g>
<g style="fill:#000000; fill-opacity:1.0000; 
stroke:#000000; stroke-width:0.0212; stroke-opacity:1; 
stroke-linecap:round; stroke-linejoin:round;">
</g>
<g style="fill:#000000; fill-opacity:1.0000; 
stroke:#000000; stroke-width:0.0000; stroke-opacity:1; 
stroke-linecap:round; stroke-linejoin:round;">
<circle cx="192.2700" cy="98.5457" r="0.4000" /> 
</g>
<g style="fill:#000000; fill-opacity:1.0000; 
stroke:#000000; stroke-width:0.0212; stroke-opacity:1; 
stroke-linecap:round; stroke-linejoin:round;">
</g>
<g style="fill:#000000; fill-opacity:1.0000; 
stroke:#000000; stroke-width:0.0000; stroke-opacity:1; 
stroke-linecap:round; stroke-linejoin:round;">
<circle cx="179.8500" cy="89.2925" r="0.4000" /> 
</g>
<g style="fill:#000000; fill-opacity:1.0000; 
stroke:#000000; stroke-width:0.0212; stroke-opacity:1; 
stroke-linecap:round; stroke-linejoin:round;">
</g>
<g style="fill:#000000; fill-opacity:1.0000; 
stroke:#000000; stroke-width:0.0000; stroke-opacity:1; 
stroke-linecap:round; stroke-linejoin:round;">
<circle cx="195.0900" cy="96.2225" r="0.4000" /> 
</g>
<g style="fill:#000000; fill-opacity:1.0000; 
stroke:#000000; stroke-width:0.0212; stroke-opacity:1; 
stroke-linecap:round; stroke-linejoin:round;">
</g>
<g style="fill:#000000; fill-opacity:1.0000; 
stroke:#000000; stroke-width:0.0000; stroke-opacity:1; 
stroke-linecap:round; stroke-linejoin:round;">
<circle cx="193.3400" cy="98.8025" r="0.4000" /> 
</g>
<g style="fill:#000000; fill-opacity:1.0000; 
stroke:#000000; stroke-width:0.0212; stroke-opacity:1; 
stroke-linecap:round; stroke-linejoin:round;">
</g>
<g style="fill:#000000; fill-opacity:1.0000; 
stroke:#000000; stroke-width:0.0000; stroke-opacity:1; 
stroke-linecap:round; stroke-linejoin:round;">
<circle cx="178.7900" cy="78.2925" r="0.4000" /> 
</g>
<g style="fill:#000000; fill-opacity:1.0000; 
stroke:#000000; stroke-width:0.0212; stroke-opacity:1; 
stroke-linecap:round; stroke-linejoin:round;">
</g>
<g style="fill:#000000; fill-opacity:1.0000; 
stroke:#000000; stroke-width:0.0000; stroke-opacity:1; 
stroke-linecap:round; stroke-linejoin:round;">
<circle cx="196.1900" cy="90.4425" r="0.4000" /> 
</g>
<g style="fill:#000000; fill-opacity:1.0000; 
stroke:#000000; stroke-width:0.0212; stroke-opacity:1; 
stroke-linecap:round; stroke-linejoin:round;">
</g>
<g style="fill:#000000; fill-opacity:1.0000; 
stroke:#000000; stroke-width:0.0000; stroke-opacity:1; 
stroke-linecap:round; stroke-linejoin:round;">
<circle cx="188.4300" cy="97.6625" r="0.4000" /> 
</g>
<g style="fill:#000000; fill-opacity:1.0000; 
stroke:#000000; stroke-width:0.0212; stroke-opacity:1; 
stroke-linecap:round; stroke-linejoin:round;">
</g>
<g style="fill:#000000; fill-opacity:1.0000; 
stroke:#000000; stroke-width:0.0000; stroke-opacity:1; 
stroke-linecap:round; stroke-linejoin:round;">
<circle cx="196.8500" cy="77.4425" r="0.4000" /> 
</g>
<g style="fill:#000000; fill-opacity:1.0000; 
stroke:#000000; stroke-width:0.0212; stroke-opacity:1; 
stroke-linecap:round; stroke-linejoin:round;">
</g>
<g style="fill:#000000; fill-opacity:1.0000; 
stroke:#000000; stroke-width:0.0000; stroke-opacity:1; 
stroke-linecap:round; stroke-linejoin:round;">
<circle cx="180.8900" cy="105.2825" r="0.4000" /> 
</g>
<g style="fill:#000000; fill-opacity:1.0000; 
stroke:#000000; stroke-width:0.0212; stroke-opacity:1; 
stroke-linecap:round; stroke-linejoin:round;">
</g>
<g style="fill:#000000; fill-opacity:1.0000; 
stroke:#000000; stroke-width:0.0000; stroke-opacity:1; 
stroke-linecap:round; stroke-linejoin:round;">
<circle cx="185.8900" cy="107.7225" r="0.4000" /> 
</g>
<g style="fill:#000000; fill-opacity:1.0000; 
stroke:#000000; stroke-width:0.0212; stroke-opacity:1; 
stroke-linecap:round; stroke-linejoin:round;">
</g>
<g style="fill:#000000; fill-opacity:1.0000; 
stroke:#000000; stroke-width:0.0000; stroke-opacity:1; 
stroke-linecap:round; stroke-linejoin:round;">
<circle cx="187.8600" cy="102.0125" r="0.4000" /> 
</g>
<g style="fill:#000000; fill-opacity:1.0000; 
stroke:#000000; stroke-width:0.0212; stroke-opacity:1; 
stroke-linecap:round; stroke-linejoin:round;">
</g>
<g style="fill:#000000; fill-opacity:1.0000; 
stroke:#000000; stroke-width:0.0000; stroke-opacity:1; 
stroke-linecap:round; stroke-linejoin:round;">
<circle cx="176.3000" cy="96.0925" r="0.4000" /> 
</g>
<g style="fill:#000000; fill-opacity:1.0000; 
stroke:#000000; stroke-width:0.0212; stroke-opacity:1; 
stroke-linecap:round; stroke-linejoin:round;">
</g>
<g style="fill:#000000; fill-opacity:1.0000; 
stroke:#000000; stroke-width:0.0000; stroke-opacity:1; 
stroke-linecap:round; stroke-linejoin:round;">
<circle cx="179.9100" cy="91.1425" r="0.4000" /> 
</g>
<g style="fill:#000000; fill-opacity:1.0000; 
stroke:#000000; stroke-width:0.0212; stroke-opacity:1; 
stroke-linecap:round; stroke-linejoin:round;">
</g>
<g style="fill:#000000; fill-opacity:1.0000; 
stroke:#000000; stroke-width:0.0000; stroke-opacity:1; 
stroke-linecap:round; stroke-linejoin:round;">
<circle cx="187.1300" cy="108.8225" r="0.4000" /> 
</g>
<g style="fill:#000000; fill-opacity:1.0000; 
stroke:#000000; stroke-width:0.0212; stroke-opacity:1; 
stroke-linecap:round; stroke-linejoin:round;">
</g>
<g style="fill:#000000; fill-opacity:1.0000; 
stroke:#000000; stroke-width:0.0000; stroke-opacity:1; 
stroke-linecap:round; stroke-linejoin:round;">
<circle cx="180.7900" cy="87.9325" r="0.4000" /> 
</g>
<g style="fill:#000000; fill-opacity:1.0000; 
stroke:#000000; stroke-width:0.0212; stroke-opacity:1; 
stroke-linecap:round; stroke-linejoin:round;">
</g>
<g style="fill:#000000; fill-opacity:1.0000; 
stroke:#000000; stroke-width:0.0000; stroke-opacity:1; 
stroke-linecap:round; stroke-linejoin:round;">
<circle cx="178.7400" cy="89.7225" r="0.4000" /> 
</g>
<g style="fill:#000000; fill-opacity:1.0000; 
stroke:#000000; stroke-width:0.0212; stroke-opacity:1; 
stroke-linecap:round; stroke-linejoin:round;">
</g>
<g style="fill:#000000; fill-opacity:1.0000; 
stroke:#000000; stroke-width:0.0000; stroke-opacity:1; 
stroke-linecap:round; stroke-linejoin:round;">
<circle cx="177.8800" cy="105.1925" r="0.4000" /> 
</g>
<g style="fill:#000000; fill-opacity:1.0000; 
stroke:#000000; stroke-width:0.0212; stroke-opacity:1; 
stroke-linecap:round; stroke-linejoin:round;">
</g>
<g style="fill:#000000; fill-opacity:1.0000; 
stroke:#000000; stroke-width:0.0000; stroke-opacity:1; 
stroke-linecap:round; stroke-linejoin:round;">
<circle cx="187.1400" cy="90.6325" r="0.4000" /> 
</g>
<g style="fill:#000000; fill-opacity:1.0000; 
stroke:#000000; stroke-width:0.0212; stroke-opacity:1; 
stroke-linecap:round; stroke-linejoin:round;">
</g>
<g style="fill:#000000; fill-opacity:1.0000; 
stroke:#000000; stroke-width:0.0000; stroke-opacity:1; 
stroke-linecap:round; stroke-linejoin:round;">
<circle cx="152.5800" cy="104.3325" r="0.4000" /> 
</g>
<g style="fill:#000000; fill-opacity:1.0000; 
stroke:#000000; stroke-width:0.0212; stroke-opacity:1; 
stroke-linecap:round; stroke-linejoin:round;">
</g>
<g style="fill:#000000; fill-opacity:1.0000; 
stroke:#000000; stroke-width:0.0000; stroke-opacity:1; 
stroke-linecap:round; stroke-linejoin:round;">
<circle cx="118.7800" cy="73.0125" r="0.4000" /> 
</g>
<g style="fill:#000000; fill-opacity:1.0000; 
stroke:#000000; stroke-width:0.0212; stroke-opacity:1; 
stroke-linecap:round; stroke-linejoin:round;">
</g>
<g style="fill:#000000; fill-opacity:1.0000; 
stroke:#000000; stroke-width:0.0000; stroke-opacity:1; 
stroke-linecap:round; stroke-linejoin:round;">
<circle cx="117.3500" cy="93.1225" r="0.4000" /> 
</g>
<g style="fill:#000000; fill-opacity:1.0000; 
stroke:#000000; stroke-width:0.0212; stroke-opacity:1; 
stroke-linecap:round; stroke-linejoin:round;">
</g>
<g style="fill:#000000; fill-opacity:1.0000; 
stroke:#000000; stroke-width:0.0000; stroke-opacity:1; 
stroke-linecap:round; stroke-linejoin:round;">
<circle cx="120.4100" cy="75.7025" r="0.4000" /> 
</g>
<g style="fill:#000000; fill-opacity:1.0000; 
stroke:#000000; stroke-width:0.0212; stroke-opacity:1; 
stroke-linecap:round; stroke-linejoin:round;">
</g>
<g style="fill:#000000; fill-opacity:1.0000; 
stroke:#000000; stroke-width:0.0000; stroke-opacity:1; 
stroke-linecap:round; stroke-linejoin:round;">
<circle cx="136.9700" cy="93.7525" r="0.4000" /> 
</g>
<g style="fill:#000000; fill-opacity:1.0000; 
stroke:#000000; stroke-width:0.0212; stroke-opacity:1; 
stroke-linecap:round; stroke-linejoin:round;">
</g>
<g style="fill:#000000; fill-opacity:1.0000; 
stroke:#000000; stroke-width:0.0000; stroke-opacity:1; 
stroke-linecap:round; stroke-linejoin:round;">
<circle cx="138.7100" cy="81.1925" r="0.4000" /> 
</g>
<g style="fill:#000000; fill-opacity:1.0000; 
stroke:#000000; stroke-width:0.0212; stroke-opacity:1; 
stroke-linecap:round; stroke-linejoin:round;">
</g>
<g style="fill:#000000; fill-opacity:1.0000; 
stroke:#000000; stroke-width:0.0000; stroke-opacity:1; 
stroke-linecap:round; stroke-linejoin:round;">
<circle cx="139.5800" cy="74.0125" r="0.4000" /> 
</g>
<g style="fill:#000000; fill-opacity:1.0000; 
stroke:#000000; stroke-width:0.0212; stroke-opacity:1; 
stroke-linecap:round; stroke-linejoin:round;">
</g>
<g style="fill:#000000; fill-opacity:1.0000; 
stroke:#000000; stroke-width:0.0000; stroke-opacity:1; 
stroke-linecap:round; stroke-linejoin:round;">
<circle cx="157.0100" cy="86.1325" r="0.4000" /> 
</g>
<g style="fill:#000000; fill-opacity:1.0000; 
stroke:#000000; stroke-width:0.0212; stroke-opacity:1; 
stroke-linecap:round; stroke-linejoin:round;">
</g>
<g style="fill:#000000; fill-opacity:1.0000; 
stroke:#000000; stroke-width:0.0000; stroke-opacity:1; 
stroke-linecap:round; stroke-linejoin:round;">
<circle cx="160.1100" cy="101.7225" r="0.4000" /> 
</g>
<g style="fill:#000000; fill-opacity:1.0000; 
stroke:#000000; stroke-width:0.0212; stroke-opacity:1; 
stroke-linecap:round; stroke-linejoin:round;">
</g>
<g style="fill:#000000; fill-opacity:1.0000; 
stroke:#000000; stroke-width:0.0000; stroke-opacity:1; 
stroke-linecap:round; stroke-linejoin:round;">
<circle cx="158.9500" cy="81.9425" r="0.4000" /> 
</g>
<g style="fill:#000000; fill-opacity:1.0000; 
stroke:#000000; stroke-width:0.0212; stroke-opacity:1; 
stroke-linecap:round; stroke-linejoin:round;">
</g>
<g style="fill:#000000; fill-opacity:1.0000; 
stroke:#000000; stroke-width:0.0000; stroke-opacity:1; 
stroke-linecap:round; stroke-linejoin:round;">
<circle cx="155.7800" cy="107.4725" r="0.4000" /> 
</g>
<g style="fill:#000000; fill-opacity:1.0000; 
stroke:#000000; stroke-width:0.0212; stroke-opacity:1; 
stroke-linecap:round; stroke-linejoin:round;">
</g>
<g style="fill:#000000; fill-opacity:1.0000; 
stroke:#000000; stroke-width:0.0000; stroke-opacity:1; 
stroke-linecap:round; stroke-linejoin:round;">
<circle cx="155.3300" cy="103.1425" r="0.4000" /> 
</g>
<g style="fill:#000000; fill-opacity:1.0000; 
stroke:#000000; stroke-width:0.0212; stroke-opacity:1; 
stroke-linecap:round; stroke-linejoin:round;">
</g>
<g style="fill:#000000; fill-opacity:1.0000; 
stroke:#000000; stroke-width:0.0000; stroke-opacity:1; 
stroke-linecap:round; stroke-linejoin:round;">
<circle cx="191.0000" cy="109.9225" r="0.4000" /> 
</g>
<g style="fill:#000000; fill-opacity:1.0000; 
stroke:#000000; stroke-width:0.0212; stroke-opacity:1; 
stroke-linecap:round; stroke-linejoin:round;">
</g>
<g style="fill:#000000; fill-opacity:1.0000; 
stroke:#000000; stroke-width:0.0000; stroke-opacity:1; 
stroke-linecap:round; stroke-linejoin:round;">
<circle cx="178.4000" cy="103.9325" r="0.4000" /> 
</g>
<g style="fill:#000000; fill-opacity:1.0000; 
stroke:#000000; stroke-width:0.0212; stroke-opacity:1; 
stroke-linecap:round; stroke-linejoin:round;">
</g>
<g style="fill:#000000; fill-opacity:1.0000; 
stroke:#000000; stroke-width:0.0000; stroke-opacity:1; 
stroke-linecap:round; stroke-linejoin:round;">
<circle cx="191.7500" cy="100.1025" r="0.4000" /> 
</g>
<g style="fill:#000000; fill-opacity:1.0000; 
stroke:#000000; stroke-width:0.0212; stroke-opacity:1; 
stroke-linecap:round; stroke-linejoin:round;">
</g>
<g style="fill:#000000; fill-opacity:1.0000; 
stroke:#000000; stroke-width:0.0000; stroke-opacity:1; 
stroke-linecap:round; stroke-linejoin:round;">
<circle cx="180.0500" cy="81.5225" r="0.4000" /> 
</g>
<g style="fill:#000000; fill-opacity:1.0000; 
stroke:#000000; stroke-width:0.0212; stroke-opacity:1; 
stroke-linecap:round; stroke-linejoin:round;">
</g>
<g style="fill:#000000; fill-opacity:1.0000; 
stroke:#000000; stroke-width:0.0000; stroke-opacity:1; 
stroke-linecap:round; stroke-linejoin:round;">
<circle cx="191.3000" cy="103.5925" r="0.4000" /> 
</g>
<g style="fill:#000000; fill-opacity:1.0000; 
stroke:#000000; stroke-width:0.0212; stroke-opacity:1; 
stroke-linecap:round; stroke-linejoin:round;">
</g>
<g style="fill:#000000; fill-opacity:1.0000; 
stroke:#000000; stroke-width:0.0000; stroke-opacity:1; 
stroke-linecap:round; stroke-linejoin:round;">
<circle cx="174.0900" cy="95.6425" r="0.4000" /> 
</g>
<g style="fill:#000000; fill-opacity:1.0000; 
stroke:#000000; stroke-width:0.0212; stroke-opacity:1; 
stroke-linecap:round; stroke-linejoin:round;">
</g>
<g style="fill:#000000; fill-opacity:1.0000; 
stroke:#000000; stroke-width:0.0000; stroke-opacity:1; 
stroke-linecap:round; stroke-linejoin:round;">
<circle cx="190.2700" cy="81.9825" r="0.4000" /> 
</g>
<g style="fill:#000000; fill-opacity:1.0000; 
stroke:#000000; stroke-width:0.0212; stroke-opacity:1; 
stroke-linecap:round; stroke-linejoin:round;">
</g>
<g style="fill:#000000; fill-opacity:1.0000; 
stroke:#000000; stroke-width:0.0000; stroke-opacity:1; 
stroke-linecap:round; stroke-linejoin:round;">
<circle cx="191.6300" cy="90.9220" r="0.4000" /> 
</g>
<g style="fill:#000000; fill-opacity:1.0000; 
stroke:#000000; stroke-width:0.0212; stroke-opacity:1; 
stroke-linecap:round; stroke-linejoin:round;">
</g>
<g style="fill:#000000; fill-opacity:1.0000; 
stroke:#000000; stroke-width:0.0000; stroke-opacity:1; 
stroke-linecap:round; stroke-linejoin:round;">
<circle cx="175.0700" cy="106.6325" r="0.4000" /> 
</g>
<g style="fill:#000000; fill-opacity:1.0000; 
stroke:#000000; stroke-width:0.0212; stroke-opacity:1; 
stroke-linecap:round; stroke-linejoin:round;">
</g>
<g >
</g>
<g style="fill:#000000; fill-opacity:1.0000; 
stroke:#000000; stroke-width:0.0212; stroke-opacity:1; 
stroke-linecap:round; stroke-linejoin:round;">
</g>
<g style="fill:#000000; fill-opacity:1.0000; 
stroke:#000000; stroke-width:0.2500; stroke-opacity:1; 
stroke-linecap:round; stroke-linejoin:round;">
</g>
<g style="fill:#000000; fill-opacity:0.0; 
stroke:#000000; stroke-width:0.2500; stroke-opacity:1; 
stroke-linecap:round; stroke-linejoin:round;">
<path d="M183.4300 87.4567
L182.9261 86.9528
" />
<path d="M183.4300 88.7225
L183.4300 87.4567
" />
<path d="M190.4266 98.5457
L190.3589 98.4780
" />
<path d="M192.2700 98.5457
L190.4266 98.5457
" />
<path d="M189.2557 87.6125
L190.7364 86.1318
" />
<path d="M194.4912 96.2225
L195.0900 96.2225
" />
<path d="M193.7940 95.5253
L194.4912 96.2225
" />
<path d="M179.1850 90.8422
L179.1850 91.4475
" />
<path d="M186.9500 92.4049
L187.0921 92.2628
" />
<path d="M187.0921 91.7578
L187.8650 90.9849
" />
<path d="M179.6265 92.9303
L176.9237 92.9303
" />
<path d="M192.6128 84.2554
L196.2697 84.2554
" />
<path d="M179.6097 90.4175
L179.1850 90.8422
" />
<path d="M185.6780 85.6229
L183.7421 85.6229
" />
<path d="M186.0600 98.3325
L185.5800 98.8125
" />
<path d="M189.0124 99.2702
L188.0747 98.3325
" />
<path d="M182.7100 105.5725
L182.5810 105.5725
" />
<path d="M187.0921 92.2628
L187.0921 91.7578
" />
<path d="M180.3839 92.9303
L179.6265 92.9303
" />
<path d="M192.5906 99.2702
L193.5622 100.2417
" />
<path d="M181.2600 107.0225
L182.7100 105.5725
" />
<path d="M180.7522 103.7437
L180.7522 102.8838
" />
<path d="M194.1800 95.1392
L194.1800 93.1225
" />
<path d="M180.7522 102.8838
L180.7522 102.3789
" />
<path d="M179.8500 89.2925
L179.8500 90.4175
" />
<path d="M180.7300 107.0225
L181.2600 107.0225
" />
<path d="M179.8500 90.4175
L179.6097 90.4175
" />
<path d="M183.7421 85.6229
L183.1906 85.0713
" />
<path d="M187.6200 87.6125
L189.2557 87.6125
" />
<path d="M180.6332 78.2925
L178.7900 78.2925
" />
<path d="M190.7364 86.1318
L192.6128 84.2554
" />
<path d="M187.0899 102.2324
L187.0899 103.7745
" />
<path d="M187.8650 90.9849
L187.8650 87.8575
" />
<path d="M190.2475 99.2702
L192.0300 99.2702
" />
<path d="M183.7883 108.6607
L187.0899 105.3592
" />
<path d="M179.1850 91.4475
L178.1715 92.4610
" />
<path d="M176.9237 92.9303
L176.4544 92.4610
" />
<path d="M178.1715 92.4610
L176.4544 92.4610
" />
<path d="M180.7522 102.3789
L183.2400 99.8911
" />
<path d="M193.7940 95.5253
L194.1800 95.1392
" />
<path d="M187.6200 87.6125
L187.6200 87.5649
" />
<path d="M185.5800 100.7225
L187.0899 102.2324
" />
<path d="M186.8700 98.3325
L186.9500 98.2525
" />
<path d="M192.8723 99.2702
L192.0300 99.2702
" />
<path d="M183.2400 95.7864
L180.3839 92.9303
" />
<path d="M187.8650 87.8575
L187.6200 87.6125
" />
<path d="M187.6200 87.5649
L185.6780 85.6229
" />
<path d="M182.5810 105.5725
L180.7522 103.7437
" />
<path d="M190.2475 99.2702
L189.0124 99.2702
" />
<path d="M183.2447 75.6810
L180.6332 78.2925
" />
<path d="M182.3682 108.6607
L180.7300 107.0225
" />
<path d="M186.9500 98.2525
L186.9500 92.4049
" />
<path d="M183.2400 99.8911
L183.2400 95.7864
" />
<path d="M188.0747 98.3325
L186.1900 98.3325
" />
<path d="M183.7883 108.6607
L182.3682 108.6607
" />
<path d="M187.0899 105.3592
L187.0899 103.7745
" />
<path d="M185.5800 98.8125
L185.5800 100.7225
" />
<path d="M193.3400 98.8025
L192.8723 99.2702
" />
<path d="M192.0300 99.2702
L192.5906 99.2702
" />
<path d="M178.6553 93.7225
L179.5152 93.7225
" />
<path d="M187.8600 102.0125
L188.2257 101.6468
" />
<path d="M177.8500 93.6825
L178.6153 93.6825
" />
<path d="M193.3515 91.2410
L192.3900 92.2025
" />
<path d="M190.4470 97.6625
L190.4702 97.6857
" />
<path d="M189.2700 109.4025
L187.8821 108.0146
" />
<path d="M179.9600 104.3225
L180.8900 105.2825
" />
<path d="M190.4720 88.0133
L191.2168 88.0133
" />
<path d="M179.9600 104.3225
L179.9600 102.7725
" />
<path d="M190.4947 109.4025
L189.2700 109.4025
" />
<path d="M196.8500 77.5225
L196.8000 77.4725
" />
<path d="M196.1300 76.7225
L196.8500 77.4425
" />
<path d="M196.8500 77.4425
L196.8500 77.5225
" />
<path d="M188.2257 101.6468
L189.9135 101.6468
" />
<path d="M178.6553 93.7225
L176.2900 96.0878
" />
<path d="M193.2978 102.1233
L192.5100 102.9110
" />
<path d="M188.4300 97.6625
L190.4470 97.6625
" />
<path d="M175.3467 91.5758
L175.3467 93.4992
" />
<path d="M192.3900 92.2025
L192.3900 94.6025
" />
<path d="M185.8900 107.7225
L187.1821 107.7225
" />
<path d="M191.2168 88.0133
L194.4444 91.2410
" />
<path d="M178.6153 93.6825
L178.6553 93.7225
" />
<path d="M192.5100 108.1125
L191.4250 109.1975
" />
<path d="M177.1900 94.3425
L177.8500 93.6825
" />
<path d="M194.4444 91.2410
L193.3515 91.2410
" />
<path d="M192.3900 94.6025
L192.0800 94.9125
" />
<path d="M191.4250 109.1975
L190.6997 109.1975
" />
<path d="M175.3467 93.4992
L176.1900 94.3425
" />
<path d="M195.2429 90.4425
L194.4444 91.2410
" />
<path d="M192.5100 102.9110
L192.5100 108.1125
" />
<path d="M187.8843 92.3742
L187.8843 91.8692
" />
<path d="M187.1821 107.7225
L187.8821 107.0225
" />
<path d="M192.0800 97.6857
L190.4702 97.6857
" />
<path d="M176.9200 90.0025
L175.3467 91.5758
" />
<path d="M190.6997 109.1975
L190.4947 109.4025
" />
<path d="M187.8843 91.8692
L189.5560 90.1975
" />
<path d="M187.8821 103.8859
L187.8600 102.0125
" />
<path d="M196.1900 90.4425
L195.2429 90.4425
" />
<path d="M176.1900 94.3425
L177.1900 94.3425
" />
<path d="M187.8821 107.0225
L187.8821 103.8859
" />
<path d="M192.0800 94.9125
L192.0800 97.6857
" />
<path d="M196.1300 74.6425
L196.1300 76.7225
" />
<path d="M187.8821 108.0146
L187.8821 107.0225
" />
<path d="M189.5560 90.1975
L193.4009 90.1975
" />
<path d="M185.4414 87.3063
L185.4414 89.3125
" />
<path d="M185.4414 91.9739
L185.5076 92.0401
" />
<path d="M180.6750 90.3775
L184.3764 90.3775
" />
<path d="M185.5500 109.3725
L186.6100 109.3725
" />
<path d="M185.4414 89.3125
L185.4414 91.9739
" />
<path d="M184.3764 90.3775
L185.4414 89.3125
" />
<path d="M186.6100 109.3725
L187.1300 108.8525
" />
<path d="M179.9100 91.1425
L180.6750 90.3775
" />
<path d="M178.7400 87.9205
L178.7400 89.7225
" />
<path d="M187.8566 85.9290
L186.0826 84.1551
" />
<path d="M179.5690 87.0915
L178.7400 87.9205
" />
<path d="M178.2956 105.1925
L179.1187 106.0157
" />
<path d="M180.8981 87.9325
L180.8200 87.8544
" />
<path d="M182.5054 84.1551
L179.5690 87.0915
" />
<path d="M177.8800 105.1925
L178.2956 105.1925
" />
<path d="M179.5690 87.0915
L180.0571 87.0915
" />
<path d="M186.0826 84.1551
L182.5054 84.1551
" />
<path d="M180.7900 87.8244
L180.7900 87.9325
" />
<path d="M186.7895 90.9830
L187.1400 90.6325
" />
<path d="M186.7895 91.1568
L186.7895 90.9830
" />
<path d="M186.2999 92.1515
L186.2999 91.6465
" />
<path d="M180.0571 87.0915
L180.7900 87.8244
" />
<path d="M186.2999 91.6465
L186.7895 91.1568
" />
<path d="M180.7900 87.9325
L180.8981 87.9325
" />
<path d="M188.4254 79.5471
L193.3300 74.6425
" />
<path d="M186.3748 76.3463
L186.3748 77.4964
" />
<path d="M186.3748 77.4964
L188.4254 79.5471
" />
<path d="M175.7235 103.0337
L175.7235 100.0587
" />
<path d="M178.0986 97.6836
L178.9585 97.6836
" />
<path d="M152.5800 104.3325
L174.4247 104.3325
" />
<path d="M175.7235 100.0587
L178.0986 97.6836
" />
<path d="M174.4247 104.3325
L175.7235 103.0337
" />
<path d="M173.3650 94.1750
L169.4318 90.2418
" />
<path d="M178.2100 96.8914
L177.8525 97.2488
" />
<path d="M120.4100 75.6125
L120.4200 75.6225
" />
<path d="M117.3500 93.1225
L117.3500 74.0725
" />
<path d="M177.1679 97.9779
L175.4001 97.9779
" />
<path d="M120.4100 79.8400
L120.4100 75.7025
" />
<path d="M117.3500 74.0725
L118.7800 73.0125
" />
<path d="M177.8525 97.2488
L177.8525 97.2933
" />
<path d="M152.0418 83.3418
L123.9118 83.3418
" />
<path d="M169.4318 90.2418
L158.9418 90.2418
" />
<path d="M177.8525 97.2933
L177.1679 97.9779
" />
<path d="M179.0698 96.8914
L178.2100 96.8914
" />
<path d="M175.4001 97.9779
L173.3650 95.9428
" />
<path d="M173.3650 95.9428
L173.3650 94.1750
" />
<path d="M123.9118 83.3418
L120.4100 79.8400
" />
<path d="M120.4100 75.7025
L120.4100 75.6125
" />
<path d="M158.9418 90.2418
L152.0418 83.3418
" />
<path d="M136.9700 93.8325
L136.9700 93.7525
" />
<path d="M148.1950 105.0575
L136.9700 93.8325
" />
<path d="M176.1735 100.2895
L176.1735 103.2201
" />
<path d="M178.8472 98.4758
L177.9873 98.4758
" />
<path d="M136.9700 93.7525
L136.8900 93.7525
" />
<path d="M138.7100 75.0825
L139.5800 74.0125
" />
<path d="M174.3361 105.0575
L148.1950 105.0575
" />
<path d="M136.8900 93.7525
L136.9700 93.8325
" />
<path d="M138.7100 81.1925
L138.7100 75.0825
" />
<path d="M177.9873 98.4758
L176.1735 100.2895
" />
<path d="M176.1735 103.2201
L174.3361 105.0575
" />
<path d="M157.0100 86.1325
L157.0100 84.1925
" />
<path d="M176.6235 100.4926
L176.6235 103.6001
" />
<path d="M178.7358 99.2680
L177.8481 99.2680
" />
<path d="M172.7511 107.4725
L155.7800 107.4725
" />
<path d="M158.7400 103.1425
L160.1100 101.7225
" />
<path d="M157.0100 84.1925
L158.9500 81.9425
" />
<path d="M176.6235 103.6001
L172.7511 107.4725
" />
<path d="M177.8481 99.2680
L176.6235 100.4926
" />
<path d="M155.3300 103.1425
L158.7400 103.1425
" />
<path d="M193.5400 97.3325
L193.2400 97.6325
" />
<path d="M193.2400 103.7824
L193.2400 108.5325
" />
<path d="M193.2400 97.6325
L194.1421 98.5346
" />
<path d="M193.2400 108.5325
L191.8500 109.9225
" />
<path d="M194.3833 99.5240
L194.6699 99.9045
" />
<path d="M178.4000 103.9325
L178.5131 103.8194
" />
<path d="M194.1421 99.4901
L194.3833 99.5240
" />
<path d="M194.1421 98.5346
L194.1421 99.4901
" />
<path d="M191.8500 109.9225
L191.0000 109.9225
" />
<path d="M178.5131 103.8194
L178.5131 100.8524
" />
<path d="M194.6699 102.3525
L193.2400 103.7824
" />
<path d="M194.6699 99.9045
L194.6699 102.3525
" />
</g>
<g style="fill:#000000; fill-opacity:0.0; 
stroke:#000000; stroke-width:0.2000; stroke-opacity:1; 
stroke-linecap:round; stroke-linejoin:round;">
<path d="M184.8138 76.0177
L184.8098 76.0136
" />
<path d="M184.8138 77.3527
L184.8138 76.0177
" />
<path d="M184.0750 79.1142
L184.4389 78.8400
" />
<path d="M184.0378 79.3789
L184.0750 79.1142
" />
<path d="M182.8170 79.3789
L184.0378 79.3789
" />
<path d="M185.0592 78.9271
L185.0592 77.5980
" />
<path d="M184.4389 78.8400
L185.0592 78.9271
" />
<path d="M185.0592 77.5980
L184.8138 77.3527
" />
</g>
<g style="fill:#000000; fill-opacity:0.0; 
stroke:#000000; stroke-width:0.2500; stroke-opacity:1; 
stroke-linecap:round; stroke-linejoin:round;">
<path d="M182.5630 81.1861
L180.3564 81.1861
" />
<path d="M190.1763 100.1025
L190.1362 100.0624
" />
<path d="M191.7500 100.1025
L190.1763 100.1025
" />
<path d="M180.3564 81.1861
L180.0500 81.4925
" />
</g>
<g style="fill:#000000; fill-opacity:0.0; 
stroke:#000000; stroke-width:0.2000; stroke-opacity:1; 
stroke-linecap:round; stroke-linejoin:round;">
<path d="M184.9970 79.6971
L185.5092 79.1849
" />
<path d="M185.5092 79.1849
L185.5092 76.2630
" />
<path d="M185.5092 76.2630
L185.5923 76.1800
" />
<path d="M184.9970 79.7389
L184.9970 79.6971
" />
</g>
<g style="fill:#000000; fill-opacity:0.0; 
stroke:#000000; stroke-width:0.2500; stroke-opacity:1; 
stroke-linecap:round; stroke-linejoin:round;">
<path d="M181.6177 80.5477
L179.1084 80.5477
" />
<path d="M184.7430 81.5461
L183.6494 80.4525
" />
<path d="M183.6494 80.4525
L183.3610 80.4525
" />
<path d="M174.0900 88.3025
L174.0900 95.6425
" />
<path d="M190.5721 100.8546
L190.0249 100.8546
" />
<path d="M179.1084 80.5477
L176.6700 82.9861
" />
<path d="M176.6700 85.7225
L174.0900 88.3025
" />
<path d="M183.3610 80.4525
L181.9981 80.2610
" />
<path d="M181.9981 80.2610
L181.6177 80.5477
" />
<path d="M191.3000 103.5925
L191.3000 101.5825
" />
<path d="M191.3000 101.5825
L190.5721 100.8546
" />
<path d="M176.6700 82.9861
L176.6700 85.7225
" />
<path d="M187.9022 82.4712
L177.8213 82.4712
" />
<path d="M191.3555 90.6475
L190.0095 90.6475
" />
<path d="M177.1200 83.1725
L177.1200 88.1413
" />
<path d="M190.6449 79.7285
L187.9022 82.4712
" />
<path d="M190.2700 81.9825
L190.2700 80.1034
" />
<path d="M188.6765 91.9805
L188.6765 92.4855
" />
<path d="M190.2700 80.1034
L190.6449 79.7285
" />
<path d="M177.8213 82.4712
L177.1200 83.1725
" />
<path d="M191.6300 90.9220
L191.3555 90.6475
" />
<path d="M190.0095 90.6475
L188.6765 91.9805
" />
<path d="M177.0735 100.6790
L177.6923 100.0602
" />
<path d="M177.0735 104.6290
L177.0735 100.6790
" />
<path d="M177.6923 100.0602
L178.6245 100.0602
" />
<path d="M175.0700 106.6325
L177.0735 104.6290
" />
</g>
<g >
</g>
<g style="fill:#000000; fill-opacity:0.0; 
stroke:#000000; stroke-width:0.2500; stroke-opacity:1; 
stroke-linecap:round; stroke-linejoin:round;">
<g >
</g>
<g style="fill:#000000; fill-opacity:1.0000; 
stroke:#000000; stroke-width:0.0000; stroke-opacity:1; 
stroke-linecap:round; stroke-linejoin:round;">
<path style="fill:#000000; fill-opacity:1.0000; 
stroke:#000000; stroke-width:0.0000; stroke-opacity:1; 
stroke-linecap:round; stroke-linejoin:round;fill-rule:evenodd;"
d="M 180.9968,92.6627
181.0496,92.6760
181.0496,92.6760
181.0528,92.6768
181.6923,92.7667
181.7522,92.7687
181.7521,92.7703
181.7865,92.7751
181.7869,92.7735
181.8450,92.7882
182.4845,92.8780
182.5444,92.8800
182.5444,92.8816
182.5787,92.8864
182.5791,92.8849
182.6372,92.8995
183.2767,92.9894
183.3366,92.9913
183.3366,92.9930
183.3709,92.9978
183.3713,92.9962
183.4295,93.0109
184.0689,93.1007
184.1288,93.1027
184.1288,93.1043
184.1631,93.1091
184.1635,93.1075
184.2217,93.1222
184.8611,93.2121
184.9210,93.2140
184.9210,93.2156
184.9553,93.2205
184.9557,93.2189
185.0139,93.2335
185.6533,93.3234
185.7133,93.3254
185.7132,93.3270
185.7476,93.3318
185.7480,93.3302
185.8061,93.3449
186.4456,93.4347
186.5055,93.4367
186.5054,93.4380
186.5399,93.4429
186.5403,93.4411
186.5952,93.4549
186.6017,93.4562
186.8245,93.4875
186.8382,93.4855
186.8421,93.4722
186.8421,93.3899
186.8589,93.3274
186.9050,93.2820
186.9676,93.2659
187.0298,93.2835
187.0747,93.3301
187.0995,93.3751
187.0995,93.3751
187.1038,93.3829
187.1100,93.3891
187.1100,93.3891
187.1996,93.4781
187.2058,93.4843
187.3324,93.5529
187.3905,93.5675
188.0300,93.6574
188.0899,93.6594
188.0899,93.6610
188.1242,93.6658
188.1246,93.6642
188.1827,93.6789
188.8222,93.7688
188.8821,93.7707
188.8821,93.7723
188.9164,93.7771
188.9168,93.7756
188.9750,93.7902
189.4365,93.8551
189.6144,93.8801
189.6143,93.8810
189.6745,93.9041
189.7157,93.9587
189.7213,94.0230
189.7222,94.0231
189.6736,94.3690
189.6323,94.6626
189.6322,94.6659
189.6322,94.6659
189.6304,94.7225
189.6288,94.7224
189.6239,94.7568
189.6255,94.7572
189.6117,94.8121
189.6117,94.8121
189.6108,94.8153
189.6104,94.8186
189.6104,94.8186
189.5539,95.2206
189.5210,95.4548
189.5209,95.4581
189.5209,95.4581
189.5190,95.5147
189.5174,95.5147
189.5126,95.5490
189.5142,95.5494
189.5003,95.6043
189.5003,95.6043
189.4995,95.6075
189.4990,95.6108
189.4990,95.6108
189.4506,95.9556
189.4096,96.2470
189.4095,96.2503
189.4095,96.2503
189.4077,96.3069
189.4061,96.3069
189.4012,96.3412
189.4028,96.3416
189.3890,96.3965
189.3890,96.3965
189.3882,96.3998
189.3877,96.4030
189.3877,96.4031
189.3393,96.7478
189.3213,96.8757
189.3136,96.9303
189.2920,96.9847
189.2478,97.0232
189.1908,97.0370
189.1337,97.0370
189.0833,97.0263
189.0452,96.9986
189.0451,96.9988
189.0433,96.9972
189.0416,96.9960
189.0359,96.9896
189.0306,96.9858
189.0306,96.9858
188.8880,96.8822
188.8880,96.8822
188.8827,96.8783
188.8768,96.8757
188.7157,96.8040
188.7157,96.8040
188.7098,96.8014
188.7034,96.8000
188.7034,96.8000
188.5310,96.7634
188.5310,96.7634
188.5246,96.7620
188.3354,96.7620
188.3290,96.7634
188.3290,96.7634
188.1566,96.8000
188.1566,96.8000
188.1502,96.8014
188.1443,96.8040
188.1443,96.8040
187.9832,96.8757
187.9832,96.8757
187.9773,96.8783
187.9720,96.8822
187.9720,96.8822
187.8294,96.9858
187.8294,96.9858
187.8241,96.9896
187.8198,96.9944
187.8198,96.9944
187.7018,97.1255
187.7018,97.1255
187.6975,97.1303
187.6942,97.1359
187.6942,97.1359
187.6061,97.2886
187.6061,97.2886
187.6028,97.2942
187.6008,97.3004
187.6008,97.3004
187.5463,97.4681
187.5463,97.4681
187.5443,97.4742
187.5436,97.4807
187.5436,97.4807
187.5373,97.5412
187.5245,97.6625
187.5252,97.6690
187.5436,97.8443
187.5436,97.8443
187.5443,97.8508
187.5463,97.8569
187.5463,97.8569
187.5772,97.9520
187.6028,98.0308
187.6061,98.0364
187.6061,98.0364
187.6893,98.1806
187.6975,98.1947
187.7018,98.1995
187.7018,98.1995
187.8164,98.3268
187.8241,98.3354
187.9773,98.4467
188.1502,98.5236
188.3354,98.5630
188.5181,98.5630
188.5246,98.5630
188.7098,98.5236
188.8827,98.4467
188.8889,98.4422
188.8898,98.4418
188.8936,98.4396
188.8939,98.4401
188.9420,98.4201
188.9993,98.4243
189.0486,98.4539
189.0792,98.5025
189.0846,98.5597
189.0761,98.6203
189.0761,98.6204
189.0756,98.6236
189.0755,98.6270
189.0755,98.6270
189.0737,98.6836
189.0723,98.6835
189.0675,98.7180
189.0693,98.7184
189.0555,98.7733
189.0542,98.7798
189.0229,99.0025
189.0249,99.0163
189.0382,99.0202
189.1205,99.0202
189.1829,99.0370
189.2284,99.0831
189.2445,99.1457
189.2268,99.2079
189.1803,99.2528
189.1352,99.2776
189.1352,99.2776
189.1275,99.2818
189.1212,99.2881
189.1212,99.2881
189.0323,99.3776
189.0323,99.3776
189.0260,99.3839
189.0218,99.3917
189.0218,99.3917
188.9612,99.5037
188.9612,99.5037
188.9575,99.5105
188.9556,99.5180
188.9556,99.5180
188.9436,99.5654
188.9436,99.5654
188.9428,99.5686
188.9424,99.5719
188.9424,99.5719
188.8571,100.1784
188.8529,100.2081
188.8528,100.2114
188.8528,100.2114
188.8510,100.2680
188.8494,100.2679
188.8446,100.3023
188.8461,100.3027
188.8323,100.3576
188.8323,100.3576
188.8315,100.3608
188.8310,100.3641
188.8310,100.3641
188.7537,100.9146
188.7320,100.9690
188.6878,101.0075
188.6309,101.0213
188.3035,101.0213
188.2924,101.0208
188.2850,101.0191
188.2772,101.0194
188.2772,101.0194
188.2178,101.0212
188.2139,101.0213
188.1863,101.0213
188.1825,101.0218
188.1825,101.0218
188.1824,101.0218
188.1824,101.0218
188.1707,101.0227
188.1349,101.0239
188.1349,101.0239
188.1271,101.0241
188.1196,101.0263
188.1196,101.0263
188.1078,101.0297
188.0888,101.0336
188.0766,101.0352
188.0766,101.0352
188.0689,101.0361
188.0617,101.0390
188.0616,101.0390
188.0283,101.0522
188.0172,101.0560
187.9828,101.0660
187.9828,101.0660
187.9753,101.0682
187.9686,101.0722
187.9686,101.0722
187.9581,101.0784
187.9406,101.0869
187.9292,101.0914
187.9292,101.0915
187.9220,101.0943
187.9182,101.0971
187.8600,101.1120
187.7654,101.1120
187.7590,101.1134
187.7590,101.1134
187.5866,101.1500
187.5866,101.1500
187.5802,101.1514
187.5743,101.1540
187.5743,101.1540
187.4132,101.2257
187.4132,101.2257
187.4073,101.2283
187.4020,101.2322
187.4020,101.2322
187.2594,101.3358
187.2594,101.3358
187.2541,101.3396
187.2498,101.3444
187.2498,101.3444
187.1318,101.4755
187.1318,101.4755
187.1275,101.4803
187.1242,101.4859
187.1242,101.4859
187.0361,101.6386
187.0361,101.6386
187.0328,101.6442
187.0308,101.6504
187.0308,101.6504
186.9763,101.8181
186.9763,101.8181
186.9743,101.8242
186.9736,101.8307
186.9736,101.8307
186.9625,101.9369
186.9545,102.0125
186.9552,102.0190
186.9736,102.1943
186.9736,102.1943
186.9743,102.2008
186.9763,102.2069
186.9763,102.2069
187.0156,102.3279
187.0200,102.3866
186.9968,102.4407
186.9513,102.4780
186.8998,102.4889
186.8998,102.4894
186.8965,102.4897
186.8961,102.4896
186.8937,102.4901
186.8844,102.4898
186.8844,102.4880
186.8500,102.4831
186.8496,102.4845
186.7947,102.4706
186.7947,102.4706
186.7915,102.4698
186.7882,102.4693
186.7882,102.4693
186.1553,102.3804
186.1553,102.3804
186.1520,102.3799
186.1487,102.3798
186.1487,102.3798
186.0921,102.3780
186.0922,102.3764
186.0578,102.3715
186.0574,102.3731
186.0025,102.3593
186.0025,102.3593
185.9993,102.3585
185.9960,102.3580
185.9960,102.3580
185.3631,102.2691
185.3631,102.2691
185.3598,102.2686
185.3565,102.2685
185.3565,102.2685
185.2999,102.2667
185.2999,102.2650
185.2656,102.2602
185.2652,102.2618
185.2103,102.2479
185.2103,102.2479
185.2071,102.2471
185.2038,102.2467
185.2038,102.2467
184.5709,102.1577
184.5709,102.1577
184.5676,102.1573
184.5643,102.1572
184.5643,102.1572
184.5077,102.1553
184.5077,102.1537
184.4734,102.1489
184.4730,102.1504
184.4181,102.1366
184.4181,102.1366
184.4148,102.1358
184.4116,102.1353
184.4115,102.1353
183.7787,102.0464
183.7787,102.0464
183.7754,102.0459
183.7721,102.0458
183.7720,102.0458
183.7155,102.0440
183.7155,102.0424
183.6812,102.0375
183.6808,102.0391
183.6258,102.0253
183.6258,102.0253
183.6226,102.0245
183.6193,102.0240
183.6193,102.0240
182.9865,101.9351
182.9865,101.9351
182.9832,101.9346
182.9798,101.9345
182.9798,101.9345
182.9232,101.9326
182.9233,101.9310
182.8889,101.9262
182.8885,101.9278
182.8336,101.9139
182.8336,101.9139
182.8304,101.9131
182.8271,101.9127
182.8271,101.9127
182.1942,101.8237
182.1942,101.8237
182.1909,101.8233
182.1876,101.8231
182.1876,101.8231
182.1310,101.8213
182.1311,101.8197
182.0967,101.8149
182.0963,101.8164
182.0414,101.8026
182.0414,101.8026
182.0382,101.8018
182.0349,101.8013
182.0349,101.8013
181.4020,101.7124
181.4020,101.7124
181.3987,101.7119
181.3954,101.7118
181.3954,101.7118
181.3388,101.7100
181.3389,101.7086
181.3044,101.7038
181.3039,101.7056
181.2491,101.6917
181.2426,101.6905
181.0198,101.6592
181.0061,101.6612
181.0022,101.6745
181.0022,101.7568
180.9853,101.8192
180.9393,101.8647
180.8767,101.8808
180.8145,101.8631
180.7696,101.8166
180.7448,101.7715
180.7448,101.7715
180.7405,101.7638
180.7342,101.7575
180.7342,101.7575
180.6447,101.6686
180.6447,101.6686
180.6384,101.6623
180.6306,101.6581
180.6306,101.6581
180.5187,101.5974
180.5187,101.5974
180.5119,101.5937
180.5044,101.5919
180.5044,101.5919
180.4570,101.5799
180.4570,101.5799
180.4538,101.5791
180.4505,101.5786
180.4505,101.5786
179.8143,101.4892
179.8144,101.4883
179.7542,101.4652
179.7130,101.4106
179.7074,101.3463
179.7065,101.3462
179.7231,101.2283
179.7964,100.7068
179.7984,100.6468
179.8000,100.6469
179.8048,100.6125
179.8032,100.6121
179.8032,100.6121
179.8179,100.5540
179.9077,99.9145
179.9097,99.8546
179.9113,99.8547
179.9161,99.8203
179.9146,99.8199
179.9146,99.8199
179.9292,99.7618
180.0191,99.1223
180.0210,99.0624
180.0226,99.0625
180.0275,99.0281
180.0259,99.0277
180.0259,99.0277
180.0405,98.9696
180.1304,98.3301
180.1324,98.2702
180.1340,98.2702
180.1388,98.2359
180.1372,98.2355
180.1372,98.2355
180.1519,98.1774
180.2418,97.5379
180.2437,97.4780
180.2453,97.4780
180.2502,97.4437
180.2486,97.4433
180.2551,97.4173
180.2632,97.3851
180.3531,96.7457
180.3550,96.6858
180.3567,96.6858
180.3615,96.6515
180.3599,96.6511
180.3704,96.6093
180.3746,96.5929
180.4644,95.9535
180.4664,95.8935
180.4680,95.8936
180.4728,95.8592
180.4713,95.8589
180.4713,95.8589
180.4859,95.8007
180.5758,95.1613
180.5777,95.1013
180.5793,95.1014
180.5842,95.0670
180.5826,95.0666
180.5826,95.0666
180.5972,95.0085
180.6871,94.3690
180.6891,94.3091
180.6907,94.3092
180.6955,94.2748
180.6939,94.2744
180.6939,94.2744
180.7086,94.2163
180.7984,93.5768
180.8004,93.5169
180.8018,93.5169
180.8066,93.4825
180.8048,93.4820
180.8186,93.4272
180.8199,93.4207
180.8512,93.1979
180.8492,93.1842
180.8359,93.1803
180.6792,93.1803
180.6402,93.1740
180.6052,93.1558
180.6042,93.1551
180.5979,93.1488
180.5901,93.1446
180.5901,93.1446
180.4782,93.0839
180.4782,93.0839
180.4714,93.0803
180.4638,93.0784
180.4164,93.0664
180.4164,93.0664
180.4132,93.0656
180.3415,93.0555
180.3930,92.6803
180.8875,92.6803
180.9139,92.6743
180.9405,92.6618
Z" /> 
</g>
</g>
<g style="fill:#000000; fill-opacity:1.0000; 
stroke:#000000; stroke-width:0.0000; stroke-opacity:1; 
stroke-linecap:round; stroke-linejoin:round;">
<g >
<path style="fill:#000000; fill-opacity:1.0000; 
stroke:#000000; stroke-width:0.0000; stroke-opacity:1; 
stroke-linecap:round; stroke-linejoin:round;fill-rule:evenodd;"
d="M 188.6907,70.4925
188.7429,70.5175
188.7781,70.5634
188.7886,70.6203
188.7721,70.6758
188.7323,70.7178
188.5895,70.8105
188.5895,70.8105
188.5849,70.8135
188.5810,70.8172
188.5810,70.8172
188.4161,70.9710
188.4121,70.9746
188.4088,70.9790
188.4088,70.9790
188.2732,71.1590
188.2731,71.1591
188.2699,71.1634
188.2674,71.1682
188.2674,71.1682
188.1651,71.3691
188.1626,71.3739
188.1610,71.3791
188.1610,71.3791
188.1146,71.5308
188.1108,71.5433
188.1103,71.5459
188.1103,71.5460
187.8799,72.6299
187.8784,72.6368
187.8781,72.6395
187.8781,72.6395
187.8711,72.6963
187.8568,72.8126
187.8571,72.8180
187.8571,72.8180
187.8689,73.0432
187.8689,73.0432
187.8692,73.0486
187.9223,73.2788
187.9245,73.2838
187.9245,73.2838
187.9913,73.4412
188.0147,73.4964
188.1434,73.6945
188.3045,73.8674
188.3089,73.8706
188.4889,74.0063
188.4889,74.0063
188.4933,74.0096
188.7038,74.1169
188.8940,74.1750
188.9468,74.2073
188.9774,74.2612
188.9782,74.3232
188.8470,74.8572
188.8194,74.9099
188.7705,74.9436
188.7114,74.9507
188.5366,74.9293
188.5366,74.9293
188.5313,74.9286
188.5259,74.9289
188.5259,74.9289
188.3007,74.9407
188.3007,74.9407
188.2953,74.9410
188.2900,74.9422
188.2900,74.9422
188.0703,74.9929
188.0703,74.9929
188.0650,74.9941
188.0601,74.9962
188.0601,74.9962
187.8525,75.0843
187.8525,75.0843
187.8475,75.0864
187.8430,75.0894
187.8430,75.0894
187.6539,75.2122
187.6539,75.2122
187.6493,75.2152
187.6454,75.2188
187.6454,75.2188
187.5563,75.3019
187.4972,75.3326
187.4308,75.3283
187.3762,75.2902
187.3491,75.2295
187.3465,75.2122
187.3377,75.1531
187.2773,75.0224
187.1825,74.9141
187.1751,74.9094
187.1751,74.9094
187.0676,74.8411
187.0676,74.8411
187.0611,74.8369
187.0041,74.8182
187.0009,74.8175
187.0009,74.8175
186.4247,74.6951
186.4246,74.6951
186.4214,74.6944
186.4181,74.6940
186.3695,74.6890
186.3695,74.6890
186.3618,74.6882
186.3541,74.6894
186.3472,74.6895
186.2914,74.6777
186.2851,74.6747
186.2786,74.6706
186.2712,74.6682
186.2712,74.6682
186.2379,74.6572
186.2216,74.6519
186.2184,74.6512
186.2184,74.6512
185.6421,74.5287
185.6421,74.5287
185.6389,74.5280
185.6356,74.5277
185.5869,74.5227
185.5869,74.5227
185.5792,74.5219
185.5716,74.5231
185.5646,74.5232
185.5089,74.5114
185.5026,74.5084
185.4961,74.5042
185.4887,74.5018
185.4887,74.5018
185.4554,74.4909
185.4391,74.4856
185.4358,74.4849
185.4358,74.4849
184.8596,74.3624
184.8596,74.3624
184.8564,74.3617
184.8530,74.3614
184.8044,74.3564
184.8044,74.3564
184.7967,74.3556
184.7891,74.3567
184.7821,74.3569
184.7263,74.3450
184.7201,74.3421
184.7135,74.3379
184.7062,74.3355
184.7062,74.3355
184.6685,74.3232
184.6566,74.3192
184.6533,74.3186
184.6533,74.3186
184.0771,74.1961
184.0771,74.1961
184.0738,74.1954
184.0705,74.1950
184.0219,74.1900
184.0219,74.1900
184.0142,74.1893
184.0065,74.1904
183.9996,74.1906
183.9438,74.1787
183.9376,74.1757
183.9310,74.1716
183.9237,74.1692
183.9237,74.1692
183.8904,74.1583
183.8740,74.1529
183.8708,74.1522
183.8708,74.1522
183.2946,74.0297
183.2946,74.0297
183.2913,74.0291
183.2880,74.0287
183.2394,74.0237
183.2394,74.0237
183.2317,74.0229
183.2240,74.0241
183.2240,74.0241
183.0981,74.0428
183.0981,74.0428
183.0893,74.0441
183.0813,74.0478
183.0813,74.0478
182.9667,74.1008
182.9667,74.1008
182.9587,74.1045
182.9520,74.1103
182.9520,74.1103
182.8570,74.1934
182.8570,74.1934
182.8504,74.1993
182.8456,74.2067
182.8456,74.2067
182.8089,74.2644
182.7595,74.3089
182.6941,74.3215
182.6317,74.2984
182.5902,74.2463
182.5768,74.2147
182.5405,74.1292
182.4118,73.9310
182.2506,73.7582
182.0619,73.6160
181.9690,73.5687
181.8561,73.5112
181.8561,73.5112
181.8513,73.5087
181.8461,73.5071
181.8461,73.5071
181.6305,73.4412
181.6305,73.4412
181.6253,73.4396
181.6200,73.4390
181.6200,73.4390
181.3962,73.4115
181.3962,73.4115
181.3908,73.4108
181.3854,73.4111
181.3800,73.4109
181.3800,73.4091
181.3330,73.4005
181.2873,73.3657
181.2621,73.3141
181.2630,73.2566
181.3143,73.0538
181.4071,72.6873
181.4399,72.6299
181.4975,72.5974
181.5636,72.5992
181.7893,72.6682
182.0239,72.6970
182.2598,72.6846
182.4901,72.6315
182.7076,72.5391
182.9058,72.4104
183.0786,72.2493
183.2208,72.0605
183.3281,71.8500
183.3799,71.6806
183.6123,70.5871
183.6339,70.4113
183.6215,70.1753
183.5684,69.9451
183.4761,69.7276
183.3748,69.5717
183.3555,69.5171
183.3631,69.4597
183.3959,69.4120
183.4469,69.3844
183.5048,69.3829
Z" /> 
</g>
</g>
<g style="fill:#000000; fill-opacity:1.0000; 
stroke:#000000; stroke-width:0.0000; stroke-opacity:1; 
stroke-linecap:round; stroke-linejoin:round;">
<g >
<path style="fill:#000000; fill-opacity:1.0000; 
stroke:#000000; stroke-width:0.0000; stroke-opacity:1; 
stroke-linecap:round; stroke-linejoin:round;fill-rule:evenodd;"
d="M 188.7830,84.1747
188.8204,84.1865
188.8521,84.2094
188.8605,84.2176
188.9870,84.2862
189.0451,84.3009
190.9224,84.5647
190.9824,84.5666
191.1229,84.5356
191.1232,84.5369
191.1751,84.5314
192.3534,84.7071
192.4128,84.7331
192.4510,84.7855
192.4575,84.8500
191.9959,87.6305
191.9675,87.6913
191.9115,87.7283
191.8445,87.7308
191.7859,87.6979
191.7168,87.6288
191.6910,87.5909
191.6293,87.4503
191.5237,87.3101
191.5182,87.3055
191.5132,87.3003
191.5145,87.2990
191.4842,87.2570
191.4771,87.1949
191.5011,87.1373
191.5415,87.1054
191.5405,87.1038
191.5591,87.0929
191.6876,86.9960
191.6980,86.9861
191.8007,86.8623
191.8085,86.8503
191.8800,86.7057
191.8847,86.6930
191.9070,86.6024
191.9082,86.5962
191.9358,86.3994
191.9338,86.3857
191.9205,86.3818
189.4950,86.3818
189.4842,86.3842
189.4838,86.3952
189.5078,86.5269
189.5120,86.5407
189.5766,86.6880
189.5838,86.7004
189.6807,86.8289
189.6956,86.8445
189.6941,86.8458
189.7242,86.8876
189.7314,86.9496
189.7074,87.0072
189.6667,87.0393
189.6676,87.0409
189.6614,87.0446
189.6548,87.0475
189.6490,87.0518
189.6490,87.0518
189.5204,87.1487
189.5204,87.1487
189.5147,87.1531
189.5101,87.1586
189.5101,87.1586
189.4073,87.2826
189.4073,87.2826
189.4027,87.2881
189.3995,87.2946
189.3995,87.2946
189.3472,87.4003
189.3249,87.4453
189.3232,87.4519
189.3232,87.4519
189.3009,87.5426
189.3009,87.5426
189.3002,87.5457
189.2997,87.5488
189.2997,87.5488
189.2171,88.1367
189.2166,88.1399
189.2165,88.1430
189.2165,88.1430
189.2130,88.2363
189.2130,88.2363
189.2127,88.2431
189.2140,88.2498
189.2140,88.2498
189.2429,88.4086
189.2429,88.4086
189.2442,88.4157
189.2471,88.4223
189.2471,88.4223
189.2721,88.4792
189.3146,88.5764
189.4202,88.7165
189.5553,88.8285
189.7125,88.9063
189.8128,88.9310
190.8526,89.0771
190.9559,89.0811
191.1285,89.0496
191.2177,89.0105
191.2658,89.0000
191.3142,89.0092
191.3552,89.0364
191.6595,89.3407
191.6899,89.3905
191.6942,89.4487
191.6909,89.4683
191.6685,89.5214
191.6246,89.5586
191.5686,89.5720
191.4697,89.5720
191.4499,89.5704
188.2491,89.0537
188.1947,89.0306
188.1571,88.9849
188.1449,88.9270
188.1610,88.8701
188.2015,88.8271
188.2574,88.8078
188.2749,88.8061
188.3991,88.7787
188.4155,88.7725
188.5259,88.7118
188.5399,88.7012
188.6288,88.6118
188.6393,88.5977
188.6998,88.4859
188.7054,88.4716
188.7173,88.4243
188.7186,88.4177
188.7942,87.8801
188.7922,87.8664
188.7789,87.8625
187.4940,87.8625
187.4320,87.8459
187.3866,87.8005
187.3700,87.7385
187.3700,87.4865
187.3866,87.4245
187.4320,87.3791
187.4940,87.3625
188.8521,87.3625
188.8643,87.3595
188.8690,87.3478
188.8980,87.1413
188.8986,87.1347
188.9002,87.0859
188.8988,87.0706
188.8777,86.9754
188.8760,86.9314
188.8898,86.8896
188.9406,86.7958
188.9552,86.7377
189.0780,85.8642
189.5370,85.8642
189.5390,85.8779
189.5523,85.8818
190.4701,85.8818
190.4829,85.8784
190.4864,85.8655
190.9864,85.8655
190.9898,85.8784
191.0027,85.8818
191.9778,85.8818
191.9886,85.8794
191.9890,85.8684
191.9650,85.7367
191.9608,85.7230
191.8962,85.5756
191.8890,85.5632
191.7921,85.4347
191.7822,85.4244
191.6584,85.3217
191.6464,85.3139
191.5018,85.2423
191.4891,85.2377
191.3985,85.2154
191.3923,85.2142
191.0040,85.1596
190.9903,85.1616
190.9864,85.1749
190.9864,85.8655
190.4864,85.8655
190.4864,85.1017
190.4834,85.0894
190.4717,85.0848
190.3588,85.0689
190.3525,85.0684
190.2593,85.0648
190.2459,85.0658
190.0871,85.0947
190.0734,85.0989
189.9261,85.1635
189.9137,85.1707
189.7852,85.2676
189.7748,85.2775
189.6721,85.4013
189.6643,85.4133
189.5928,85.5579
189.5881,85.5706
189.5658,85.6612
189.5646,85.6674
189.5370,85.8642
189.0780,85.8642
189.1356,85.4546
189.1375,85.3946
189.1065,85.2541
189.0371,85.1280
189.0308,85.1217
189.0308,85.1217
188.9735,85.0648
188.9350,85.0266
188.9272,85.0223
188.9272,85.0223
188.8153,84.9617
188.8153,84.9617
188.8085,84.9580
188.7950,84.9546
188.7536,84.9441
188.7536,84.9441
188.7503,84.9433
188.7471,84.9429
188.7471,84.9429
187.6339,84.7864
187.5958,84.7746
187.5635,84.7513
186.9378,84.1257
186.9065,84.0728
186.9044,84.0114
186.9320,83.9565
186.9827,83.9216
187.0438,83.9154
Z" /> 
</g>
</g>
</g> 
</svg>
