<?xml version="1.0" standalone="no"?>
 <!DOCTYPE svg PUBLIC "-//W3C//DTD SVG 1.1//EN" 
 "http://www.w3.org/Graphics/SVG/1.1/DTD/svg11.dtd"> 
<svg
  xmlns:svg="http://www.w3.org/2000/svg"
  xmlns="http://www.w3.org/2000/svg"
  xmlns:xlink="http://www.w3.org/1999/xlink"
  version="1.1"
  width="297.0022mm" height="210.0072mm" viewBox="0.0000 0.0000 297.0022 210.0072">
<title>SVG Image created as TCC-PCB-B_Silkscreen.svg date 2023/03/16 17:04:14 </title>
  <desc>Image generated by PCBNEW </desc>
<g style="fill:#000000; fill-opacity:1.0000;stroke:#000000; stroke-opacity:1.0000;
stroke-linecap:round; stroke-linejoin:round;"
 transform="translate(0 0) scale(1 1)">
</g>
<g style="fill:#000000; fill-opacity:0.0; 
stroke:#000000; stroke-width:0.0000; stroke-opacity:1; 
stroke-linecap:round; stroke-linejoin:round;">
</g>
<g style="fill:#000000; fill-opacity:0.0; 
stroke:#000000; stroke-width:0.1500; stroke-opacity:1; 
stroke-linecap:round; stroke-linejoin:round;">
<g transform="rotate(-61.000000 184.0125 125.5832)">
<text x="184.0125" y="126.0832"
transform="scale(-1 1) translate(-368.025014 0)"
textLength="2.1274" font-size="1.3333" lengthAdjust="spacingAndGlyphs"
text-anchor="middle" opacity="0">D8</text>
</g>
<g class="stroked-text"><desc>D8</desc>
<path d="M184.6917 125.1158
L183.8170 124.6310
" />
<path d="M183.8170 124.6310
L183.7016 124.8392
" />
<path d="M183.7016 124.8392
L183.6740 124.9872
" />
<path d="M183.6740 124.9872
L183.7111 125.1167
" />
<path d="M183.7111 125.1167
L183.7713 125.2045
" />
<path d="M183.7713 125.2045
L183.9148 125.3385
" />
<path d="M183.9148 125.3385
L184.0398 125.4078
" />
<path d="M184.0398 125.4078
L184.2295 125.4585
" />
<path d="M184.2295 125.4585
L184.3359 125.4630
" />
<path d="M184.3359 125.4630
L184.4653 125.4259
" />
<path d="M184.4653 125.4259
L184.5762 125.3240
" />
<path d="M184.5762 125.3240
L184.6917 125.1158
" />
<path d="M183.6378 125.8383
L183.6423 125.7319
" />
<path d="M183.6423 125.7319
L183.6238 125.6672
" />
<path d="M183.6238 125.6672
L183.5636 125.5794
" />
<path d="M183.5636 125.5794
L183.5219 125.5563
" />
<path d="M183.5219 125.5563
L183.4155 125.5518
" />
<path d="M183.4155 125.5518
L183.3508 125.5703
" />
<path d="M183.3508 125.5703
L183.2630 125.6305
" />
<path d="M183.2630 125.6305
L183.1706 125.7971
" />
<path d="M183.1706 125.7971
L183.1661 125.9035
" />
<path d="M183.1661 125.9035
L183.1847 125.9682
" />
<path d="M183.1847 125.9682
L183.2449 126.0561
" />
<path d="M183.2449 126.0561
L183.2865 126.0791
" />
<path d="M183.2865 126.0791
L183.3929 126.0837
" />
<path d="M183.3929 126.0837
L183.4576 126.0651
" />
<path d="M183.4576 126.0651
L183.5455 126.0049
" />
<path d="M183.5455 126.0049
L183.6378 125.8383
" />
<path d="M183.6378 125.8383
L183.7256 125.7781
" />
<path d="M183.7256 125.7781
L183.7904 125.7595
" />
<path d="M183.7904 125.7595
L183.8967 125.7641
" />
<path d="M183.8967 125.7641
L184.0633 125.8564
" />
<path d="M184.0633 125.8564
L184.1236 125.9442
" />
<path d="M184.1236 125.9442
L184.1421 126.0090
" />
<path d="M184.1421 126.0090
L184.1376 126.1153
" />
<path d="M184.1376 126.1153
L184.0452 126.2819
" />
<path d="M184.0452 126.2819
L183.9574 126.3421
" />
<path d="M183.9574 126.3421
L183.8927 126.3607
" />
<path d="M183.8927 126.3607
L183.7863 126.3562
" />
<path d="M183.7863 126.3562
L183.6197 126.2638
" />
<path d="M183.6197 126.2638
L183.5595 126.1760
" />
<path d="M183.5595 126.1760
L183.5409 126.1113
" />
<path d="M183.5409 126.1113
L183.5455 126.0049
" />
</g><g transform="rotate(-82.000000 173.8884 85.8088)">
<text x="173.8884" y="86.3088"
transform="scale(-1 1) translate(-347.776812 0)"
textLength="2.1274" font-size="1.3333" lengthAdjust="spacingAndGlyphs"
text-anchor="middle" opacity="0">D7</text>
</g>
<g class="stroked-text"><desc>D7</desc>
<path d="M174.3549 85.1290
L173.3647 84.9898
" />
<path d="M173.3647 84.9898
L173.3315 85.2256
" />
<path d="M173.3315 85.2256
L173.3588 85.3737
" />
<path d="M173.3588 85.3737
L173.4399 85.4813
" />
<path d="M173.4399 85.4813
L173.5275 85.5417
" />
<path d="M173.5275 85.5417
L173.7095 85.6153
" />
<path d="M173.7095 85.6153
L173.8510 85.6352
" />
<path d="M173.8510 85.6352
L174.0463 85.6146
" />
<path d="M174.0463 85.6146
L174.1472 85.5807
" />
<path d="M174.1472 85.5807
L174.2548 85.4996
" />
<path d="M174.2548 85.4996
L174.3218 85.3648
" />
<path d="M174.3218 85.3648
L174.3549 85.1290
" />
<path d="M173.2387 85.8858
L173.1460 86.5460
" />
<path d="M173.1460 86.5460
L174.1959 86.2607
" />
</g><g transform="rotate(-82.000000 171.5009 104.8247)">
<text x="171.5009" y="105.3247"
transform="scale(-1 1) translate(-343.001868 0)"
textLength="2.1274" font-size="1.3333" lengthAdjust="spacingAndGlyphs"
text-anchor="middle" opacity="0">D6</text>
</g>
<g class="stroked-text"><desc>D6</desc>
<path d="M171.9675 104.1449
L170.9772 104.0057
" />
<path d="M170.9772 104.0057
L170.9441 104.2415
" />
<path d="M170.9441 104.2415
L170.9713 104.3896
" />
<path d="M170.9713 104.3896
L171.0524 104.4972
" />
<path d="M171.0524 104.4972
L171.1401 104.5576
" />
<path d="M171.1401 104.5576
L171.3221 104.6312
" />
<path d="M171.3221 104.6312
L171.4635 104.6511
" />
<path d="M171.4635 104.6511
L171.6588 104.6305
" />
<path d="M171.6588 104.6305
L171.7597 104.5966
" />
<path d="M171.7597 104.5966
L171.8673 104.5155
" />
<path d="M171.8673 104.5155
L171.9343 104.3807
" />
<path d="M171.9343 104.3807
L171.9675 104.1449
" />
<path d="M170.7784 105.4204
L170.8049 105.2318
" />
<path d="M170.8049 105.2318
L170.8653 105.1441
" />
<path d="M170.8653 105.1441
L170.9191 105.1036
" />
<path d="M170.9191 105.1036
L171.0738 105.0291
" />
<path d="M171.0738 105.0291
L171.2690 105.0085
" />
<path d="M171.2690 105.0085
L171.6463 105.0615
" />
<path d="M171.6463 105.0615
L171.7340 105.1219
" />
<path d="M171.7340 105.1219
L171.7745 105.1757
" />
<path d="M171.7745 105.1757
L171.8084 105.2766
" />
<path d="M171.8084 105.2766
L171.7819 105.4653
" />
<path d="M171.7819 105.4653
L171.7215 105.5529
" />
<path d="M171.7215 105.5529
L171.6677 105.5935
" />
<path d="M171.6677 105.5935
L171.5668 105.6274
" />
<path d="M171.5668 105.6274
L171.3310 105.5942
" />
<path d="M171.3310 105.5942
L171.2433 105.5338
" />
<path d="M171.2433 105.5338
L171.2028 105.4800
" />
<path d="M171.2028 105.4800
L171.1689 105.3791
" />
<path d="M171.1689 105.3791
L171.1954 105.1905
" />
<path d="M171.1954 105.1905
L171.2558 105.1028
" />
<path d="M171.2558 105.1028
L171.3096 105.0623
" />
<path d="M171.3096 105.0623
L171.4105 105.0284
" />
</g><g transform="rotate(-85.000000 114.9545 89.4530)">
<text x="114.9545" y="89.9530"
transform="scale(-1 1) translate(-229.909056 0)"
textLength="2.1274" font-size="1.3333" lengthAdjust="spacingAndGlyphs"
text-anchor="middle" opacity="0">D1</text>
</g>
<g class="stroked-text"><desc>D1</desc>
<path d="M115.3848 88.7497
L114.3886 88.6625
" />
<path d="M114.3886 88.6625
L114.3679 88.8997
" />
<path d="M114.3679 88.8997
L114.4029 89.0462
" />
<path d="M114.4029 89.0462
L114.4895 89.1494
" />
<path d="M114.4895 89.1494
L114.5802 89.2051
" />
<path d="M114.5802 89.2051
L114.7658 89.2691
" />
<path d="M114.7658 89.2691
L114.9081 89.2816
" />
<path d="M114.9081 89.2816
L115.1020 89.2508
" />
<path d="M115.1020 89.2508
L115.2010 89.2116
" />
<path d="M115.2010 89.2116
L115.3042 89.1250
" />
<path d="M115.3042 89.1250
L115.3641 88.9869
" />
<path d="M115.3641 88.9869
L115.3848 88.7497
" />
<path d="M115.2520 90.2677
L115.3018 89.6984
" />
<path d="M115.2769 89.9831
L114.2807 89.8959
" />
<path d="M114.2807 89.8959
L114.4314 89.8135
" />
<path d="M114.4314 89.8135
L114.5345 89.7269
" />
<path d="M114.5345 89.7269
L114.5903 89.6362
" />
</g><g transform="rotate(-82.000000 153.1951 96.8084)">
<text x="153.1951" y="97.3084"
transform="scale(-1 1) translate(-306.390166 0)"
textLength="2.1274" font-size="1.3333" lengthAdjust="spacingAndGlyphs"
text-anchor="middle" opacity="0">D4</text>
</g>
<g class="stroked-text"><desc>D4</desc>
<path d="M153.6616 96.1286
L152.6713 95.9895
" />
<path d="M152.6713 95.9895
L152.6382 96.2253
" />
<path d="M152.6382 96.2253
L152.6655 96.3734
" />
<path d="M152.6655 96.3734
L152.7465 96.4809
" />
<path d="M152.7465 96.4809
L152.8342 96.5413
" />
<path d="M152.8342 96.5413
L153.0162 96.6150
" />
<path d="M153.0162 96.6150
L153.1577 96.6349
" />
<path d="M153.1577 96.6349
L153.3529 96.6142
" />
<path d="M153.3529 96.6142
L153.4539 96.5803
" />
<path d="M153.4539 96.5803
L153.5614 96.4993
" />
<path d="M153.5614 96.4993
L153.6285 96.3644
" />
<path d="M153.6285 96.3644
L153.6616 96.1286
" />
<path d="M152.8026 97.4505
L153.4628 97.5433
" />
<path d="M152.4585 97.1617
L153.1990 97.0254
" />
<path d="M153.1990 97.0254
L153.1128 97.6384
" />
</g><g transform="rotate(-82.000000 133.5505 98.0102)">
<text x="133.5505" y="98.5102"
transform="scale(-1 1) translate(-267.101076 0)"
textLength="2.1274" font-size="1.3333" lengthAdjust="spacingAndGlyphs"
text-anchor="middle" opacity="0">D2</text>
</g>
<g class="stroked-text"><desc>D2</desc>
<path d="M134.0171 97.3304
L133.0268 97.1912
" />
<path d="M133.0268 97.1912
L132.9937 97.4270
" />
<path d="M132.9937 97.4270
L133.0209 97.5751
" />
<path d="M133.0209 97.5751
L133.1020 97.6827
" />
<path d="M133.1020 97.6827
L133.1897 97.7431
" />
<path d="M133.1897 97.7431
L133.3717 97.8167
" />
<path d="M133.3717 97.8167
L133.5131 97.8366
" />
<path d="M133.5131 97.8366
L133.7084 97.8160
" />
<path d="M133.7084 97.8160
L133.8093 97.7821
" />
<path d="M133.8093 97.7821
L133.9169 97.7010
" />
<path d="M133.9169 97.7010
L133.9839 97.5662
" />
<path d="M133.9839 97.5662
L134.0171 97.3304
" />
<path d="M132.9886 98.1476
L132.9348 98.1881
" />
<path d="M132.9348 98.1881
L132.8744 98.2758
" />
<path d="M132.8744 98.2758
L132.8412 98.5116
" />
<path d="M132.8412 98.5116
L132.8751 98.6125
" />
<path d="M132.8751 98.6125
L132.9157 98.6663
" />
<path d="M132.9157 98.6663
L133.0033 98.7267
" />
<path d="M133.0033 98.7267
L133.0977 98.7400
" />
<path d="M133.0977 98.7400
L133.2458 98.7127
" />
<path d="M133.2458 98.7127
L133.8911 98.2263
" />
<path d="M133.8911 98.2263
L133.8050 98.8394
" />
</g><g transform="rotate(-82.000000 136.2327 79.1165)">
<text x="136.2327" y="79.6165"
transform="scale(-1 1) translate(-272.465468 0)"
textLength="2.1274" font-size="1.3333" lengthAdjust="spacingAndGlyphs"
text-anchor="middle" opacity="0">D3</text>
</g>
<g class="stroked-text"><desc>D3</desc>
<path d="M136.6993 78.4367
L135.7090 78.2976
" />
<path d="M135.7090 78.2976
L135.6759 78.5333
" />
<path d="M135.6759 78.5333
L135.7031 78.6814
" />
<path d="M135.7031 78.6814
L135.7842 78.7890
" />
<path d="M135.7842 78.7890
L135.8719 78.8494
" />
<path d="M135.8719 78.8494
L136.0539 78.9231
" />
<path d="M136.0539 78.9231
L136.1953 78.9429
" />
<path d="M136.1953 78.9429
L136.3906 78.9223
" />
<path d="M136.3906 78.9223
L136.4915 78.8884
" />
<path d="M136.4915 78.8884
L136.5991 78.8073
" />
<path d="M136.5991 78.8073
L136.6661 78.6725
" />
<path d="M136.6661 78.6725
L136.6993 78.4367
" />
<path d="M135.5831 79.1935
L135.4969 79.8065
" />
<path d="M135.4969 79.8065
L135.9206 79.5295
" />
<path d="M135.9206 79.5295
L135.9007 79.6709
" />
<path d="M135.9007 79.6709
L135.9346 79.7719
" />
<path d="M135.9346 79.7719
L135.9751 79.8256
" />
<path d="M135.9751 79.8256
L136.0628 79.8861
" />
<path d="M136.0628 79.8861
L136.2986 79.9192
" />
<path d="M136.2986 79.9192
L136.3995 79.8853
" />
<path d="M136.3995 79.8853
L136.4533 79.8448
" />
<path d="M136.4533 79.8448
L136.5137 79.7571
" />
<path d="M136.5137 79.7571
L136.5535 79.4741
" />
<path d="M136.5535 79.4741
L136.5196 79.3732
" />
<path d="M136.5196 79.3732
L136.4790 79.3194
" />
</g><g transform="rotate(-82.000000 156.4934 78.0875)">
<text x="156.4934" y="78.5875"
transform="scale(-1 1) translate(-312.986806 0)"
textLength="2.1274" font-size="1.3333" lengthAdjust="spacingAndGlyphs"
text-anchor="middle" opacity="0">D5</text>
</g>
<g class="stroked-text"><desc>D5</desc>
<path d="M156.9599 77.4077
L155.9697 77.2685
" />
<path d="M155.9697 77.2685
L155.9365 77.5043
" />
<path d="M155.9365 77.5043
L155.9638 77.6524
" />
<path d="M155.9638 77.6524
L156.0449 77.7600
" />
<path d="M156.0449 77.7600
L156.1325 77.8204
" />
<path d="M156.1325 77.8204
L156.3145 77.8941
" />
<path d="M156.3145 77.8941
L156.4560 77.9139
" />
<path d="M156.4560 77.9139
L156.6513 77.8933
" />
<path d="M156.6513 77.8933
L156.7522 77.8594
" />
<path d="M156.7522 77.8594
L156.8598 77.7783
" />
<path d="M156.8598 77.7783
L156.9268 77.6435
" />
<path d="M156.9268 77.6435
L156.9599 77.4077
" />
<path d="M155.7642 78.7304
L155.8305 78.2588
" />
<path d="M155.8305 78.2588
L156.3087 78.2779
" />
<path d="M156.3087 78.2779
L156.2549 78.3185
" />
<path d="M156.2549 78.3185
L156.1945 78.4061
" />
<path d="M156.1945 78.4061
L156.1613 78.6419
" />
<path d="M156.1613 78.6419
L156.1952 78.7429
" />
<path d="M156.1952 78.7429
L156.2358 78.7966
" />
<path d="M156.2358 78.7966
L156.3235 78.8571
" />
<path d="M156.3235 78.8571
L156.5592 78.8902
" />
<path d="M156.5592 78.8902
L156.6602 78.8563
" />
<path d="M156.6602 78.8563
L156.7140 78.8158
" />
<path d="M156.7140 78.8158
L156.7744 78.7281
" />
<path d="M156.7744 78.7281
L156.8075 78.4923
" />
<path d="M156.8075 78.4923
L156.7736 78.3914
" />
<path d="M156.7736 78.3914
L156.7331 78.3376
" />
</g></g>
<g style="fill:#000000; fill-opacity:0.0; 
stroke:#000000; stroke-width:0.1200; stroke-opacity:1; 
stroke-linecap:round; stroke-linejoin:round;">
<path d="M184.0412 124.0818
L185.9853 120.5746
" />
<path d="M185.7905 125.0514
L184.0412 124.0818
" />
<path d="M185.7905 125.0514
L187.7346 121.5442
" />
<path d="M173.3713 84.3042
L173.9294 80.3332
" />
<path d="M175.3518 84.5825
L173.3713 84.3042
" />
<path d="M175.3518 84.5825
L175.9099 80.6115
" />
<path d="M170.8313 103.3804
L171.3894 99.4094
" />
<path d="M172.8118 103.6587
L170.8313 103.3804
" />
<path d="M172.8118 103.6587
L173.3699 99.6877
" />
<path d="M114.1381 88.2278
L114.4876 84.2331
" />
<path d="M116.1305 88.4021
L114.1381 88.2278
" />
<path d="M116.1305 88.4021
L116.4800 84.4074
" />
<path d="M152.5716 95.4743
L153.1297 91.5033
" />
<path d="M154.5522 95.7526
L152.5716 95.4743
" />
<path d="M154.5522 95.7526
L155.1103 91.7817
" />
<path d="M132.8913 96.5504
L133.4494 92.5794
" />
<path d="M134.8718 96.8287
L132.8913 96.5504
" />
<path d="M134.8718 96.8287
L135.4299 92.8577
" />
<path d="M135.5809 77.7564
L136.1390 73.7854
" />
<path d="M137.5615 78.0348
L135.5809 77.7564
" />
<path d="M137.5615 78.0348
L138.1195 74.0638
" />
<path d="M155.0513 76.6904
L155.6094 72.7194
" />
<path d="M157.0318 76.9687
L155.0513 76.6904
" />
<path d="M157.0318 76.9687
L157.5899 72.9977
" />
<g >
</g>
<g >
</g>
<g >
</g>
<g >
</g>
<g >
</g>
<g >
</g>
<g >
</g>
<g >
</g>
<g >
</g>
<g >
</g>
<g >
</g>
<g >
</g>
<g >
</g>
<g >
</g>
<g >
</g>
<g >
</g>
<g >
</g>
<g >
</g>
<g >
</g>
<g >
</g>
<g >
</g>
<g >
</g>
<g >
</g>
<g >
</g>
<g >
</g>
<g >
</g>
<g >
</g>
<g >
</g>
<g >
</g>
<g >
</g>
<g >
</g>
<g >
</g>
<g >
</g>
<g >
</g>
<g >
</g>
<g >
</g>
</g> 
</svg>
