<?xml version="1.0" standalone="no"?>
 <!DOCTYPE svg PUBLIC "-//W3C//DTD SVG 1.1//EN" 
 "http://www.w3.org/Graphics/SVG/1.1/DTD/svg11.dtd"> 
<svg
  xmlns:svg="http://www.w3.org/2000/svg"
  xmlns="http://www.w3.org/2000/svg"
  xmlns:xlink="http://www.w3.org/1999/xlink"
  version="1.1"
  width="297.0022mm" height="210.0072mm" viewBox="0.0000 0.0000 297.0022 210.0072">
<title>SVG Image created as TCC-PCB-B_Cu.svg date 2023/03/16 17:04:14 </title>
  <desc>Image generated by PCBNEW </desc>
<g style="fill:#000000; fill-opacity:1.0000;stroke:#000000; stroke-opacity:1.0000;
stroke-linecap:round; stroke-linejoin:round;"
 transform="translate(0 0) scale(1 1)">
</g>
<g style="fill:#000000; fill-opacity:0.0; 
stroke:#000000; stroke-width:0.0000; stroke-opacity:1; 
stroke-linecap:round; stroke-linejoin:round;">
<g >
</g>
<g >
</g>
<g >
</g>
<g >
</g>
<g style="fill:#000000; fill-opacity:0.0; 
stroke:#000000; stroke-width:0.0000; stroke-opacity:1; 
stroke-linecap:round; stroke-linejoin:round;">
</g>
<g style="fill:#000000; fill-opacity:0.0; 
stroke:#000000; stroke-width:1.7000; stroke-opacity:1; 
stroke-linecap:round; stroke-linejoin:round;">
<path d="M189.4196 71.8818
L189.2116 72.8599
" />
<path d="M182.2791 70.3640
L182.0712 71.3422
" />
<path d="M188.4840 76.2834
L188.2760 77.2616
" />
<path d="M181.3435 74.7657
L181.1356 75.7438
" />
</g>
<g >
</g>
<g >
</g>
<g >
</g>
<g >
</g>
<g style="fill:#000000; fill-opacity:0.0; 
stroke:#000000; stroke-width:1.7000; stroke-opacity:1; 
stroke-linecap:round; stroke-linejoin:round;">
</g>
<g style="fill:#000000; fill-opacity:0.0; 
stroke:#000000; stroke-width:0.0000; stroke-opacity:1; 
stroke-linecap:round; stroke-linejoin:round;">
</g>
<g style="fill:#000000; fill-opacity:1.0000; 
stroke:#000000; stroke-width:0.0000; stroke-opacity:1; 
stroke-linecap:round; stroke-linejoin:round;">
<path style="fill:#000000; fill-opacity:1.0000; 
stroke:#000000; stroke-width:0.0000; stroke-opacity:1; 
stroke-linecap:round; stroke-linejoin:round;fill-rule:evenodd;"
d="M 139.9359,71.0417
140.2838,68.5660
142.8090,68.9209
142.4611,71.3966
Z" /> 
<path style="fill:#000000; fill-opacity:1.0000; 
stroke:#000000; stroke-width:0.0000; stroke-opacity:1; 
stroke-linecap:round; stroke-linejoin:round;fill-rule:evenodd;"
d="M 153.0906,70.3255
153.4385,67.8498
155.9637,68.2047
155.6158,70.6804
Z" /> 
</g>
<g >
</g>
<g style="fill:#000000; fill-opacity:1.0000; 
stroke:#000000; stroke-width:0.0000; stroke-opacity:1; 
stroke-linecap:round; stroke-linejoin:round;">
<path style="fill:#000000; fill-opacity:1.0000; 
stroke:#000000; stroke-width:0.0000; stroke-opacity:1; 
stroke-linecap:round; stroke-linejoin:round;fill-rule:evenodd;"
d="M 137.3909,89.8466
137.7388,87.3710
140.2640,87.7258
139.9160,90.2015
Z" /> 
<path style="fill:#000000; fill-opacity:1.0000; 
stroke:#000000; stroke-width:0.0000; stroke-opacity:1; 
stroke-linecap:round; stroke-linejoin:round;fill-rule:evenodd;"
d="M 150.5456,89.1304
150.8935,86.6548
153.4187,87.0097
153.0707,89.4853
Z" /> 
</g>
<g >
</g>
<g style="fill:#000000; fill-opacity:1.0000; 
stroke:#000000; stroke-width:0.0000; stroke-opacity:1; 
stroke-linecap:round; stroke-linejoin:round;">
<path style="fill:#000000; fill-opacity:1.0000; 
stroke:#000000; stroke-width:0.0000; stroke-opacity:1; 
stroke-linecap:round; stroke-linejoin:round;fill-rule:evenodd;"
d="M 171.7469,113.6213
172.8819,111.3938
175.1540,112.5515
174.0190,114.7790
Z" /> 
<path style="fill:#000000; fill-opacity:1.0000; 
stroke:#000000; stroke-width:0.0000; stroke-opacity:1; 
stroke-linecap:round; stroke-linejoin:round;fill-rule:evenodd;"
d="M 184.4181,117.2269
185.5531,114.9994
187.8251,116.1571
186.6902,118.3846
Z" /> 
</g>
<g >
</g>
<g style="fill:#000000; fill-opacity:1.0000; 
stroke:#000000; stroke-width:0.0000; stroke-opacity:1; 
stroke-linecap:round; stroke-linejoin:round;">
<path style="fill:#000000; fill-opacity:1.0000; 
stroke:#000000; stroke-width:0.0000; stroke-opacity:1; 
stroke-linecap:round; stroke-linejoin:round;fill-rule:evenodd;"
d="M 155.6503,97.3208
155.9982,94.8451
158.5234,95.2000
158.1754,97.6757
Z" /> 
<path style="fill:#000000; fill-opacity:1.0000; 
stroke:#000000; stroke-width:0.0000; stroke-opacity:1; 
stroke-linecap:round; stroke-linejoin:round;fill-rule:evenodd;"
d="M 168.8049,96.6046
169.1529,94.1289
171.6781,94.4838
171.3301,96.9595
Z" /> 
</g>
<g >
</g>
<g >
</g>
<g >
</g>
<g >
</g>
<g >
</g>
<g >
</g>
<g >
</g>
<g style="fill:#000000; fill-opacity:1.0000; 
stroke:#000000; stroke-width:0.0000; stroke-opacity:1; 
stroke-linecap:round; stroke-linejoin:round;">
<path style="fill:#000000; fill-opacity:1.0000; 
stroke:#000000; stroke-width:0.0000; stroke-opacity:1; 
stroke-linecap:round; stroke-linejoin:round;fill-rule:evenodd;"
d="M 98.8233,83.8192
98.9541,81.3227
101.5006,81.4561
101.3698,83.9527
Z" /> 
<path style="fill:#000000; fill-opacity:1.0000; 
stroke:#000000; stroke-width:0.0000; stroke-opacity:1; 
stroke-linecap:round; stroke-linejoin:round;fill-rule:evenodd;"
d="M 111.8655,81.9593
111.9963,79.4627
114.5428,79.5961
114.4120,82.0927
Z" /> 
</g>
<g >
</g>
<g >
</g>
<g style="fill:#000000; fill-opacity:1.0000; 
stroke:#000000; stroke-width:0.0000; stroke-opacity:1; 
stroke-linecap:round; stroke-linejoin:round;">
<path style="fill:#000000; fill-opacity:1.0000; 
stroke:#000000; stroke-width:0.0000; stroke-opacity:1; 
stroke-linecap:round; stroke-linejoin:round;fill-rule:evenodd;"
d="M 120.6033,71.9148
120.9512,69.4391
123.4764,69.7940
123.1284,72.2697
Z" /> 
<path style="fill:#000000; fill-opacity:1.0000; 
stroke:#000000; stroke-width:0.0000; stroke-opacity:1; 
stroke-linecap:round; stroke-linejoin:round;fill-rule:evenodd;"
d="M 133.7579,71.1986
134.1059,68.7230
136.6311,69.0778
136.2831,71.5535
Z" /> 
</g>
<g >
</g>
<g style="fill:#000000; fill-opacity:1.0000; 
stroke:#000000; stroke-width:0.0000; stroke-opacity:1; 
stroke-linecap:round; stroke-linejoin:round;">
<path style="fill:#000000; fill-opacity:1.0000; 
stroke:#000000; stroke-width:0.0000; stroke-opacity:1; 
stroke-linecap:round; stroke-linejoin:round;fill-rule:evenodd;"
d="M 117.9354,90.7631
118.2834,88.2875
120.8085,88.6424
120.4606,91.1180
Z" /> 
<path style="fill:#000000; fill-opacity:1.0000; 
stroke:#000000; stroke-width:0.0000; stroke-opacity:1; 
stroke-linecap:round; stroke-linejoin:round;fill-rule:evenodd;"
d="M 131.0901,90.0469
131.4381,87.5713
133.9632,87.9262
133.6153,90.4018
Z" /> 
</g>
<g >
</g>
<g style="fill:#000000; fill-opacity:1.0000; 
stroke:#000000; stroke-width:0.0000; stroke-opacity:1; 
stroke-linecap:round; stroke-linejoin:round;">
<path style="fill:#000000; fill-opacity:1.0000; 
stroke:#000000; stroke-width:0.0000; stroke-opacity:1; 
stroke-linecap:round; stroke-linejoin:round;fill-rule:evenodd;"
d="M 158.2809,78.5116
158.6288,76.0359
161.1540,76.3908
160.8061,78.8665
Z" /> 
<path style="fill:#000000; fill-opacity:1.0000; 
stroke:#000000; stroke-width:0.0000; stroke-opacity:1; 
stroke-linecap:round; stroke-linejoin:round;fill-rule:evenodd;"
d="M 171.4356,77.7954
171.7835,75.3197
174.3087,75.6746
173.9608,78.1503
Z" /> 
</g>
<g >
</g>
<g >
</g>
<g >
</g>
<g >
</g>
<g style="fill:#000000; fill-opacity:1.0000; 
stroke:#000000; stroke-width:0.0000; stroke-opacity:1; 
stroke-linecap:round; stroke-linejoin:round;">
<path style="fill:#000000; fill-opacity:1.0000; 
stroke:#000000; stroke-width:0.0000; stroke-opacity:1; 
stroke-linecap:round; stroke-linejoin:round;fill-rule:evenodd;"
d="M 184.7139,124.1574
184.6469,124.1007
184.6067,124.0226
184.5994,123.9351
184.6262,123.8515
184.8444,123.4579
184.9011,123.3909
184.9791,123.3507
185.0666,123.3435
185.1502,123.3702
185.8062,123.7338
185.8732,123.7906
185.9134,123.8686
185.9207,123.9561
185.8939,124.0397
185.6758,124.4333
185.6190,124.5003
185.5410,124.5405
185.4535,124.5478
185.3699,124.5210
Z" /> 
<path style="fill:#000000; fill-opacity:1.0000; 
stroke:#000000; stroke-width:0.0000; stroke-opacity:1; 
stroke-linecap:round; stroke-linejoin:round;fill-rule:evenodd;"
d="M 186.3138,121.2712
186.2468,121.2144
186.2066,121.1364
186.1993,121.0489
186.2261,120.9653
186.4442,120.5717
186.5010,120.5047
186.5790,120.4645
186.6665,120.4572
186.7501,120.4840
187.4061,120.8476
187.4731,120.9043
187.5133,120.9824
187.5206,121.0699
187.4938,121.1535
187.2756,121.5471
187.2189,121.6141
187.1409,121.6543
187.0534,121.6615
186.9698,121.6348
Z" /> 
</g>
<g >
</g>
<g style="fill:#000000; fill-opacity:1.0000; 
stroke:#000000; stroke-width:0.0000; stroke-opacity:1; 
stroke-linecap:round; stroke-linejoin:round;">
<path style="fill:#000000; fill-opacity:1.0000; 
stroke:#000000; stroke-width:0.0000; stroke-opacity:1; 
stroke-linecap:round; stroke-linejoin:round;fill-rule:evenodd;"
d="M 174.0264,84.1337
173.9435,84.1047
173.8780,84.0463
173.8399,83.9672
173.8349,83.8796
173.8975,83.4339
173.9265,83.3511
173.9849,83.2856
174.0640,83.2474
174.1516,83.2424
174.8943,83.3468
174.9772,83.3758
175.0427,83.4342
175.0809,83.5133
175.0858,83.6009
175.0232,84.0466
174.9943,84.1295
174.9358,84.1949
174.8567,84.2331
174.7691,84.2381
Z" /> 
<path style="fill:#000000; fill-opacity:1.0000; 
stroke:#000000; stroke-width:0.0000; stroke-opacity:1; 
stroke-linecap:round; stroke-linejoin:round;fill-rule:evenodd;"
d="M 174.4857,80.8658
174.4028,80.8369
174.3373,80.7784
174.2991,80.6993
174.2942,80.6117
174.3568,80.1661
174.3857,80.0832
174.4442,80.0177
174.5233,79.9795
174.6109,79.9746
175.3536,80.0789
175.4365,80.1079
175.5020,80.1663
175.5401,80.2454
175.5451,80.3331
175.4825,80.7787
175.4535,80.8616
175.3951,80.9271
175.3160,80.9652
175.2284,80.9702
Z" /> 
</g>
<g >
</g>
<g style="fill:#000000; fill-opacity:1.0000; 
stroke:#000000; stroke-width:0.0000; stroke-opacity:1; 
stroke-linecap:round; stroke-linejoin:round;">
<path style="fill:#000000; fill-opacity:1.0000; 
stroke:#000000; stroke-width:0.0000; stroke-opacity:1; 
stroke-linecap:round; stroke-linejoin:round;fill-rule:evenodd;"
d="M 171.4864,103.2099
171.4035,103.1809
171.3380,103.1225
171.2999,103.0434
171.2949,102.9557
171.3575,102.5101
171.3865,102.4272
171.4449,102.3617
171.5240,102.3236
171.6116,102.3186
172.3543,102.4230
172.4372,102.4520
172.5027,102.5104
172.5409,102.5895
172.5458,102.6771
172.4832,103.1228
172.4543,103.2056
172.3958,103.2711
172.3167,103.3093
172.2291,103.3143
Z" /> 
<path style="fill:#000000; fill-opacity:1.0000; 
stroke:#000000; stroke-width:0.0000; stroke-opacity:1; 
stroke-linecap:round; stroke-linejoin:round;fill-rule:evenodd;"
d="M 171.9457,99.9420
171.8628,99.9130
171.7973,99.8546
171.7591,99.7755
171.7542,99.6879
171.8168,99.2422
171.8457,99.1594
171.9042,99.0939
171.9833,99.0557
172.0709,99.0507
172.8136,99.1551
172.8965,99.1841
172.9620,99.2425
173.0001,99.3216
173.0051,99.4093
172.9425,99.8549
172.9135,99.9378
172.8551,100.0033
172.7760,100.0414
172.6884,100.0464
Z" /> 
</g>
<g >
</g>
<g style="fill:#000000; fill-opacity:1.0000; 
stroke:#000000; stroke-width:0.0000; stroke-opacity:1; 
stroke-linecap:round; stroke-linejoin:round;">
<path style="fill:#000000; fill-opacity:1.0000; 
stroke:#000000; stroke-width:0.0000; stroke-opacity:1; 
stroke-linecap:round; stroke-linejoin:round;fill-rule:evenodd;"
d="M 114.7834,88.0233
114.6991,87.9987
114.6306,87.9437
114.5884,87.8668
114.5789,87.7795
114.6181,87.3312
114.6427,87.2469
114.6976,87.1785
114.7746,87.1362
114.8618,87.1267
115.6090,87.1920
115.6933,87.2166
115.7617,87.2716
115.8040,87.3485
115.8135,87.4358
115.7743,87.8841
115.7497,87.9684
115.6948,88.0368
115.6178,88.0791
115.5305,88.0886
Z" /> 
<path style="fill:#000000; fill-opacity:1.0000; 
stroke:#000000; stroke-width:0.0000; stroke-opacity:1; 
stroke-linecap:round; stroke-linejoin:round;fill-rule:evenodd;"
d="M 115.0710,84.7358
114.9867,84.7112
114.9183,84.6563
114.8760,84.5793
114.8665,84.4921
114.9057,84.0438
114.9303,83.9595
114.9852,83.8910
115.0622,83.8488
115.1495,83.8392
115.8966,83.9046
115.9809,83.9292
116.0493,83.9841
116.0916,84.0611
116.1011,84.1484
116.0619,84.5966
116.0373,84.6809
115.9824,84.7494
115.9054,84.7916
115.8182,84.8012
Z" /> 
</g>
<g >
</g>
<g style="fill:#000000; fill-opacity:1.0000; 
stroke:#000000; stroke-width:0.0000; stroke-opacity:1; 
stroke-linecap:round; stroke-linejoin:round;">
<path style="fill:#000000; fill-opacity:1.0000; 
stroke:#000000; stroke-width:0.0000; stroke-opacity:1; 
stroke-linecap:round; stroke-linejoin:round;fill-rule:evenodd;"
d="M 153.2267,95.3038
153.1439,95.2749
153.0784,95.2164
153.0402,95.1373
153.0353,95.0497
153.0979,94.6041
153.1268,94.5212
153.1853,94.4557
153.2644,94.4175
153.3520,94.4126
154.0947,94.5170
154.1776,94.5459
154.2431,94.6044
154.2812,94.6834
154.2862,94.7711
154.2236,95.2167
154.1946,95.2996
154.1362,95.3651
154.0571,95.4032
153.9695,95.4082
Z" /> 
<path style="fill:#000000; fill-opacity:1.0000; 
stroke:#000000; stroke-width:0.0000; stroke-opacity:1; 
stroke-linecap:round; stroke-linejoin:round;fill-rule:evenodd;"
d="M 153.6860,92.0359
153.6031,92.0070
153.5376,91.9485
153.4995,91.8695
153.4945,91.7818
153.5572,91.3362
153.5861,91.2533
153.6446,91.1878
153.7236,91.1497
153.8113,91.1447
154.5540,91.2491
154.6369,91.2780
154.7024,91.3365
154.7405,91.4155
154.7455,91.5032
154.6828,91.9488
154.6539,92.0317
154.5954,92.0972
154.5164,92.1353
154.4287,92.1403
Z" /> 
</g>
<g >
</g>
<g style="fill:#000000; fill-opacity:1.0000; 
stroke:#000000; stroke-width:0.0000; stroke-opacity:1; 
stroke-linecap:round; stroke-linejoin:round;">
<path style="fill:#000000; fill-opacity:1.0000; 
stroke:#000000; stroke-width:0.0000; stroke-opacity:1; 
stroke-linecap:round; stroke-linejoin:round;fill-rule:evenodd;"
d="M 133.5464,96.3799
133.4635,96.3509
133.3980,96.2925
133.3599,96.2134
133.3549,96.1257
133.4175,95.6801
133.4465,95.5972
133.5049,95.5317
133.5840,95.4936
133.6716,95.4886
134.4143,95.5930
134.4972,95.6220
134.5627,95.6804
134.6009,95.7595
134.6058,95.8471
134.5432,96.2928
134.5143,96.3756
134.4558,96.4411
134.3767,96.4793
134.2891,96.4843
Z" /> 
<path style="fill:#000000; fill-opacity:1.0000; 
stroke:#000000; stroke-width:0.0000; stroke-opacity:1; 
stroke-linecap:round; stroke-linejoin:round;fill-rule:evenodd;"
d="M 134.0057,93.1120
133.9228,93.0830
133.8573,93.0246
133.8191,92.9455
133.8142,92.8579
133.8768,92.4122
133.9057,92.3294
133.9642,92.2639
134.0433,92.2257
134.1309,92.2207
134.8736,92.3251
134.9565,92.3541
135.0220,92.4125
135.0601,92.4916
135.0651,92.5793
135.0025,93.0249
134.9735,93.1078
134.9151,93.1733
134.8360,93.2114
134.7484,93.2164
Z" /> 
</g>
<g >
</g>
<g style="fill:#000000; fill-opacity:1.0000; 
stroke:#000000; stroke-width:0.0000; stroke-opacity:1; 
stroke-linecap:round; stroke-linejoin:round;">
<path style="fill:#000000; fill-opacity:1.0000; 
stroke:#000000; stroke-width:0.0000; stroke-opacity:1; 
stroke-linecap:round; stroke-linejoin:round;fill-rule:evenodd;"
d="M 136.2360,77.5859
136.1531,77.5570
136.0876,77.4985
136.0495,77.4195
136.0445,77.3318
136.1072,76.8862
136.1361,76.8033
136.1946,76.7378
136.2736,76.6997
136.3613,76.6947
137.1040,76.7991
137.1869,76.8280
137.2524,76.8865
137.2905,76.9655
137.2955,77.0532
137.2328,77.4988
137.2039,77.5817
137.1454,77.6472
137.0664,77.6853
136.9787,77.6903
Z" /> 
<path style="fill:#000000; fill-opacity:1.0000; 
stroke:#000000; stroke-width:0.0000; stroke-opacity:1; 
stroke-linecap:round; stroke-linejoin:round;fill-rule:evenodd;"
d="M 136.6953,74.3180
136.6124,74.2891
136.5469,74.2306
136.5088,74.1516
136.5038,74.0639
136.5664,73.6183
136.5954,73.5354
136.6538,73.4699
136.7329,73.4318
136.8205,73.4268
137.5632,73.5312
137.6461,73.5601
137.7116,73.6186
137.7498,73.6977
137.7547,73.7853
137.6921,74.2309
137.6632,74.3138
137.6047,74.3793
137.5256,74.4175
137.4380,74.4224
Z" /> 
</g>
<g >
</g>
<g style="fill:#000000; fill-opacity:1.0000; 
stroke:#000000; stroke-width:0.0000; stroke-opacity:1; 
stroke-linecap:round; stroke-linejoin:round;">
<path style="fill:#000000; fill-opacity:1.0000; 
stroke:#000000; stroke-width:0.0000; stroke-opacity:1; 
stroke-linecap:round; stroke-linejoin:round;fill-rule:evenodd;"
d="M 155.7064,76.5199
155.6235,76.4909
155.5580,76.4325
155.5199,76.3534
155.5149,76.2657
155.5775,75.8201
155.6065,75.7372
155.6649,75.6717
155.7440,75.6336
155.8316,75.6286
156.5743,75.7330
156.6572,75.7620
156.7227,75.8204
156.7609,75.8995
156.7658,75.9871
156.7032,76.4328
156.6743,76.5156
156.6158,76.5811
156.5367,76.6193
156.4491,76.6243
Z" /> 
<path style="fill:#000000; fill-opacity:1.0000; 
stroke:#000000; stroke-width:0.0000; stroke-opacity:1; 
stroke-linecap:round; stroke-linejoin:round;fill-rule:evenodd;"
d="M 156.1657,73.2520
156.0828,73.2230
156.0173,73.1646
155.9791,73.0855
155.9742,72.9979
156.0368,72.5522
156.0657,72.4694
156.1242,72.4039
156.2033,72.3657
156.2909,72.3607
157.0336,72.4651
157.1165,72.4941
157.1820,72.5525
157.2201,72.6316
157.2251,72.7193
157.1625,73.1649
157.1335,73.2478
157.0751,73.3133
156.9960,73.3514
156.9084,73.3564
Z" /> 
</g>
<g >
</g>
<g style="fill:#000000; fill-opacity:1.0000; 
stroke:#000000; stroke-width:0.0000; stroke-opacity:1; 
stroke-linecap:round; stroke-linejoin:round;">
<circle cx="183.4300" cy="88.7225" r="0.4000" /> 
</g>
<g style="fill:#000000; fill-opacity:1.0000; 
stroke:#000000; stroke-width:0.0212; stroke-opacity:1; 
stroke-linecap:round; stroke-linejoin:round;">
</g>
<g style="fill:#000000; fill-opacity:1.0000; 
stroke:#000000; stroke-width:0.0000; stroke-opacity:1; 
stroke-linecap:round; stroke-linejoin:round;">
<circle cx="192.2700" cy="98.5457" r="0.4000" /> 
</g>
<g style="fill:#000000; fill-opacity:1.0000; 
stroke:#000000; stroke-width:0.0212; stroke-opacity:1; 
stroke-linecap:round; stroke-linejoin:round;">
</g>
<g style="fill:#000000; fill-opacity:1.0000; 
stroke:#000000; stroke-width:0.0000; stroke-opacity:1; 
stroke-linecap:round; stroke-linejoin:round;">
<circle cx="179.8500" cy="89.2925" r="0.4000" /> 
</g>
<g style="fill:#000000; fill-opacity:1.0000; 
stroke:#000000; stroke-width:0.0212; stroke-opacity:1; 
stroke-linecap:round; stroke-linejoin:round;">
</g>
<g style="fill:#000000; fill-opacity:1.0000; 
stroke:#000000; stroke-width:0.0000; stroke-opacity:1; 
stroke-linecap:round; stroke-linejoin:round;">
<circle cx="195.0900" cy="96.2225" r="0.4000" /> 
</g>
<g style="fill:#000000; fill-opacity:1.0000; 
stroke:#000000; stroke-width:0.0212; stroke-opacity:1; 
stroke-linecap:round; stroke-linejoin:round;">
</g>
<g style="fill:#000000; fill-opacity:1.0000; 
stroke:#000000; stroke-width:0.0000; stroke-opacity:1; 
stroke-linecap:round; stroke-linejoin:round;">
<circle cx="193.3400" cy="98.8025" r="0.4000" /> 
</g>
<g style="fill:#000000; fill-opacity:1.0000; 
stroke:#000000; stroke-width:0.0212; stroke-opacity:1; 
stroke-linecap:round; stroke-linejoin:round;">
</g>
<g style="fill:#000000; fill-opacity:1.0000; 
stroke:#000000; stroke-width:0.0000; stroke-opacity:1; 
stroke-linecap:round; stroke-linejoin:round;">
<circle cx="178.7900" cy="78.2925" r="0.4000" /> 
</g>
<g style="fill:#000000; fill-opacity:1.0000; 
stroke:#000000; stroke-width:0.0212; stroke-opacity:1; 
stroke-linecap:round; stroke-linejoin:round;">
</g>
<g style="fill:#000000; fill-opacity:1.0000; 
stroke:#000000; stroke-width:0.0000; stroke-opacity:1; 
stroke-linecap:round; stroke-linejoin:round;">
<circle cx="196.1900" cy="90.4425" r="0.4000" /> 
</g>
<g style="fill:#000000; fill-opacity:1.0000; 
stroke:#000000; stroke-width:0.0212; stroke-opacity:1; 
stroke-linecap:round; stroke-linejoin:round;">
</g>
<g style="fill:#000000; fill-opacity:1.0000; 
stroke:#000000; stroke-width:0.0000; stroke-opacity:1; 
stroke-linecap:round; stroke-linejoin:round;">
<circle cx="188.4300" cy="97.6625" r="0.4000" /> 
</g>
<g style="fill:#000000; fill-opacity:1.0000; 
stroke:#000000; stroke-width:0.0212; stroke-opacity:1; 
stroke-linecap:round; stroke-linejoin:round;">
</g>
<g style="fill:#000000; fill-opacity:1.0000; 
stroke:#000000; stroke-width:0.0000; stroke-opacity:1; 
stroke-linecap:round; stroke-linejoin:round;">
<circle cx="196.8500" cy="77.4425" r="0.4000" /> 
</g>
<g style="fill:#000000; fill-opacity:1.0000; 
stroke:#000000; stroke-width:0.0212; stroke-opacity:1; 
stroke-linecap:round; stroke-linejoin:round;">
</g>
<g style="fill:#000000; fill-opacity:1.0000; 
stroke:#000000; stroke-width:0.0000; stroke-opacity:1; 
stroke-linecap:round; stroke-linejoin:round;">
<circle cx="180.8900" cy="105.2825" r="0.4000" /> 
</g>
<g style="fill:#000000; fill-opacity:1.0000; 
stroke:#000000; stroke-width:0.0212; stroke-opacity:1; 
stroke-linecap:round; stroke-linejoin:round;">
</g>
<g style="fill:#000000; fill-opacity:1.0000; 
stroke:#000000; stroke-width:0.0000; stroke-opacity:1; 
stroke-linecap:round; stroke-linejoin:round;">
<circle cx="185.8900" cy="107.7225" r="0.4000" /> 
</g>
<g style="fill:#000000; fill-opacity:1.0000; 
stroke:#000000; stroke-width:0.0212; stroke-opacity:1; 
stroke-linecap:round; stroke-linejoin:round;">
</g>
<g style="fill:#000000; fill-opacity:1.0000; 
stroke:#000000; stroke-width:0.0000; stroke-opacity:1; 
stroke-linecap:round; stroke-linejoin:round;">
<circle cx="187.8600" cy="102.0125" r="0.4000" /> 
</g>
<g style="fill:#000000; fill-opacity:1.0000; 
stroke:#000000; stroke-width:0.0212; stroke-opacity:1; 
stroke-linecap:round; stroke-linejoin:round;">
</g>
<g style="fill:#000000; fill-opacity:1.0000; 
stroke:#000000; stroke-width:0.0000; stroke-opacity:1; 
stroke-linecap:round; stroke-linejoin:round;">
<circle cx="176.3000" cy="96.0925" r="0.4000" /> 
</g>
<g style="fill:#000000; fill-opacity:1.0000; 
stroke:#000000; stroke-width:0.0212; stroke-opacity:1; 
stroke-linecap:round; stroke-linejoin:round;">
</g>
<g style="fill:#000000; fill-opacity:1.0000; 
stroke:#000000; stroke-width:0.0000; stroke-opacity:1; 
stroke-linecap:round; stroke-linejoin:round;">
<circle cx="179.9100" cy="91.1425" r="0.4000" /> 
</g>
<g style="fill:#000000; fill-opacity:1.0000; 
stroke:#000000; stroke-width:0.0212; stroke-opacity:1; 
stroke-linecap:round; stroke-linejoin:round;">
</g>
<g style="fill:#000000; fill-opacity:1.0000; 
stroke:#000000; stroke-width:0.0000; stroke-opacity:1; 
stroke-linecap:round; stroke-linejoin:round;">
<circle cx="187.1300" cy="108.8225" r="0.4000" /> 
</g>
<g style="fill:#000000; fill-opacity:1.0000; 
stroke:#000000; stroke-width:0.0212; stroke-opacity:1; 
stroke-linecap:round; stroke-linejoin:round;">
</g>
<g style="fill:#000000; fill-opacity:1.0000; 
stroke:#000000; stroke-width:0.0000; stroke-opacity:1; 
stroke-linecap:round; stroke-linejoin:round;">
<circle cx="180.7900" cy="87.9325" r="0.4000" /> 
</g>
<g style="fill:#000000; fill-opacity:1.0000; 
stroke:#000000; stroke-width:0.0212; stroke-opacity:1; 
stroke-linecap:round; stroke-linejoin:round;">
</g>
<g style="fill:#000000; fill-opacity:1.0000; 
stroke:#000000; stroke-width:0.0000; stroke-opacity:1; 
stroke-linecap:round; stroke-linejoin:round;">
<circle cx="178.7400" cy="89.7225" r="0.4000" /> 
</g>
<g style="fill:#000000; fill-opacity:1.0000; 
stroke:#000000; stroke-width:0.0212; stroke-opacity:1; 
stroke-linecap:round; stroke-linejoin:round;">
</g>
<g style="fill:#000000; fill-opacity:1.0000; 
stroke:#000000; stroke-width:0.0000; stroke-opacity:1; 
stroke-linecap:round; stroke-linejoin:round;">
<circle cx="177.8800" cy="105.1925" r="0.4000" /> 
</g>
<g style="fill:#000000; fill-opacity:1.0000; 
stroke:#000000; stroke-width:0.0212; stroke-opacity:1; 
stroke-linecap:round; stroke-linejoin:round;">
</g>
<g style="fill:#000000; fill-opacity:1.0000; 
stroke:#000000; stroke-width:0.0000; stroke-opacity:1; 
stroke-linecap:round; stroke-linejoin:round;">
<circle cx="187.1400" cy="90.6325" r="0.4000" /> 
</g>
<g style="fill:#000000; fill-opacity:1.0000; 
stroke:#000000; stroke-width:0.0212; stroke-opacity:1; 
stroke-linecap:round; stroke-linejoin:round;">
</g>
<g style="fill:#000000; fill-opacity:1.0000; 
stroke:#000000; stroke-width:0.0000; stroke-opacity:1; 
stroke-linecap:round; stroke-linejoin:round;">
<circle cx="152.5800" cy="104.3325" r="0.4000" /> 
</g>
<g style="fill:#000000; fill-opacity:1.0000; 
stroke:#000000; stroke-width:0.0212; stroke-opacity:1; 
stroke-linecap:round; stroke-linejoin:round;">
</g>
<g style="fill:#000000; fill-opacity:1.0000; 
stroke:#000000; stroke-width:0.0000; stroke-opacity:1; 
stroke-linecap:round; stroke-linejoin:round;">
<circle cx="118.7800" cy="73.0125" r="0.4000" /> 
</g>
<g style="fill:#000000; fill-opacity:1.0000; 
stroke:#000000; stroke-width:0.0212; stroke-opacity:1; 
stroke-linecap:round; stroke-linejoin:round;">
</g>
<g style="fill:#000000; fill-opacity:1.0000; 
stroke:#000000; stroke-width:0.0000; stroke-opacity:1; 
stroke-linecap:round; stroke-linejoin:round;">
<circle cx="117.3500" cy="93.1225" r="0.4000" /> 
</g>
<g style="fill:#000000; fill-opacity:1.0000; 
stroke:#000000; stroke-width:0.0212; stroke-opacity:1; 
stroke-linecap:round; stroke-linejoin:round;">
</g>
<g style="fill:#000000; fill-opacity:1.0000; 
stroke:#000000; stroke-width:0.0000; stroke-opacity:1; 
stroke-linecap:round; stroke-linejoin:round;">
<circle cx="120.4100" cy="75.7025" r="0.4000" /> 
</g>
<g style="fill:#000000; fill-opacity:1.0000; 
stroke:#000000; stroke-width:0.0212; stroke-opacity:1; 
stroke-linecap:round; stroke-linejoin:round;">
</g>
<g style="fill:#000000; fill-opacity:1.0000; 
stroke:#000000; stroke-width:0.0000; stroke-opacity:1; 
stroke-linecap:round; stroke-linejoin:round;">
<circle cx="136.9700" cy="93.7525" r="0.4000" /> 
</g>
<g style="fill:#000000; fill-opacity:1.0000; 
stroke:#000000; stroke-width:0.0212; stroke-opacity:1; 
stroke-linecap:round; stroke-linejoin:round;">
</g>
<g style="fill:#000000; fill-opacity:1.0000; 
stroke:#000000; stroke-width:0.0000; stroke-opacity:1; 
stroke-linecap:round; stroke-linejoin:round;">
<circle cx="138.7100" cy="81.1925" r="0.4000" /> 
</g>
<g style="fill:#000000; fill-opacity:1.0000; 
stroke:#000000; stroke-width:0.0212; stroke-opacity:1; 
stroke-linecap:round; stroke-linejoin:round;">
</g>
<g style="fill:#000000; fill-opacity:1.0000; 
stroke:#000000; stroke-width:0.0000; stroke-opacity:1; 
stroke-linecap:round; stroke-linejoin:round;">
<circle cx="139.5800" cy="74.0125" r="0.4000" /> 
</g>
<g style="fill:#000000; fill-opacity:1.0000; 
stroke:#000000; stroke-width:0.0212; stroke-opacity:1; 
stroke-linecap:round; stroke-linejoin:round;">
</g>
<g style="fill:#000000; fill-opacity:1.0000; 
stroke:#000000; stroke-width:0.0000; stroke-opacity:1; 
stroke-linecap:round; stroke-linejoin:round;">
<circle cx="157.0100" cy="86.1325" r="0.4000" /> 
</g>
<g style="fill:#000000; fill-opacity:1.0000; 
stroke:#000000; stroke-width:0.0212; stroke-opacity:1; 
stroke-linecap:round; stroke-linejoin:round;">
</g>
<g style="fill:#000000; fill-opacity:1.0000; 
stroke:#000000; stroke-width:0.0000; stroke-opacity:1; 
stroke-linecap:round; stroke-linejoin:round;">
<circle cx="160.1100" cy="101.7225" r="0.4000" /> 
</g>
<g style="fill:#000000; fill-opacity:1.0000; 
stroke:#000000; stroke-width:0.0212; stroke-opacity:1; 
stroke-linecap:round; stroke-linejoin:round;">
</g>
<g style="fill:#000000; fill-opacity:1.0000; 
stroke:#000000; stroke-width:0.0000; stroke-opacity:1; 
stroke-linecap:round; stroke-linejoin:round;">
<circle cx="158.9500" cy="81.9425" r="0.4000" /> 
</g>
<g style="fill:#000000; fill-opacity:1.0000; 
stroke:#000000; stroke-width:0.0212; stroke-opacity:1; 
stroke-linecap:round; stroke-linejoin:round;">
</g>
<g style="fill:#000000; fill-opacity:1.0000; 
stroke:#000000; stroke-width:0.0000; stroke-opacity:1; 
stroke-linecap:round; stroke-linejoin:round;">
<circle cx="155.7800" cy="107.4725" r="0.4000" /> 
</g>
<g style="fill:#000000; fill-opacity:1.0000; 
stroke:#000000; stroke-width:0.0212; stroke-opacity:1; 
stroke-linecap:round; stroke-linejoin:round;">
</g>
<g style="fill:#000000; fill-opacity:1.0000; 
stroke:#000000; stroke-width:0.0000; stroke-opacity:1; 
stroke-linecap:round; stroke-linejoin:round;">
<circle cx="155.3300" cy="103.1425" r="0.4000" /> 
</g>
<g style="fill:#000000; fill-opacity:1.0000; 
stroke:#000000; stroke-width:0.0212; stroke-opacity:1; 
stroke-linecap:round; stroke-linejoin:round;">
</g>
<g style="fill:#000000; fill-opacity:1.0000; 
stroke:#000000; stroke-width:0.0000; stroke-opacity:1; 
stroke-linecap:round; stroke-linejoin:round;">
<circle cx="191.0000" cy="109.9225" r="0.4000" /> 
</g>
<g style="fill:#000000; fill-opacity:1.0000; 
stroke:#000000; stroke-width:0.0212; stroke-opacity:1; 
stroke-linecap:round; stroke-linejoin:round;">
</g>
<g style="fill:#000000; fill-opacity:1.0000; 
stroke:#000000; stroke-width:0.0000; stroke-opacity:1; 
stroke-linecap:round; stroke-linejoin:round;">
<circle cx="178.4000" cy="103.9325" r="0.4000" /> 
</g>
<g style="fill:#000000; fill-opacity:1.0000; 
stroke:#000000; stroke-width:0.0212; stroke-opacity:1; 
stroke-linecap:round; stroke-linejoin:round;">
</g>
<g style="fill:#000000; fill-opacity:1.0000; 
stroke:#000000; stroke-width:0.0000; stroke-opacity:1; 
stroke-linecap:round; stroke-linejoin:round;">
<circle cx="191.7500" cy="100.1025" r="0.4000" /> 
</g>
<g style="fill:#000000; fill-opacity:1.0000; 
stroke:#000000; stroke-width:0.0212; stroke-opacity:1; 
stroke-linecap:round; stroke-linejoin:round;">
</g>
<g style="fill:#000000; fill-opacity:1.0000; 
stroke:#000000; stroke-width:0.0000; stroke-opacity:1; 
stroke-linecap:round; stroke-linejoin:round;">
<circle cx="180.0500" cy="81.5225" r="0.4000" /> 
</g>
<g style="fill:#000000; fill-opacity:1.0000; 
stroke:#000000; stroke-width:0.0212; stroke-opacity:1; 
stroke-linecap:round; stroke-linejoin:round;">
</g>
<g style="fill:#000000; fill-opacity:1.0000; 
stroke:#000000; stroke-width:0.0000; stroke-opacity:1; 
stroke-linecap:round; stroke-linejoin:round;">
<circle cx="191.3000" cy="103.5925" r="0.4000" /> 
</g>
<g style="fill:#000000; fill-opacity:1.0000; 
stroke:#000000; stroke-width:0.0212; stroke-opacity:1; 
stroke-linecap:round; stroke-linejoin:round;">
</g>
<g style="fill:#000000; fill-opacity:1.0000; 
stroke:#000000; stroke-width:0.0000; stroke-opacity:1; 
stroke-linecap:round; stroke-linejoin:round;">
<circle cx="174.0900" cy="95.6425" r="0.4000" /> 
</g>
<g style="fill:#000000; fill-opacity:1.0000; 
stroke:#000000; stroke-width:0.0212; stroke-opacity:1; 
stroke-linecap:round; stroke-linejoin:round;">
</g>
<g style="fill:#000000; fill-opacity:1.0000; 
stroke:#000000; stroke-width:0.0000; stroke-opacity:1; 
stroke-linecap:round; stroke-linejoin:round;">
<circle cx="190.2700" cy="81.9825" r="0.4000" /> 
</g>
<g style="fill:#000000; fill-opacity:1.0000; 
stroke:#000000; stroke-width:0.0212; stroke-opacity:1; 
stroke-linecap:round; stroke-linejoin:round;">
</g>
<g style="fill:#000000; fill-opacity:1.0000; 
stroke:#000000; stroke-width:0.0000; stroke-opacity:1; 
stroke-linecap:round; stroke-linejoin:round;">
<circle cx="191.6300" cy="90.9220" r="0.4000" /> 
</g>
<g style="fill:#000000; fill-opacity:1.0000; 
stroke:#000000; stroke-width:0.0212; stroke-opacity:1; 
stroke-linecap:round; stroke-linejoin:round;">
</g>
<g style="fill:#000000; fill-opacity:1.0000; 
stroke:#000000; stroke-width:0.0000; stroke-opacity:1; 
stroke-linecap:round; stroke-linejoin:round;">
<circle cx="175.0700" cy="106.6325" r="0.4000" /> 
</g>
<g style="fill:#000000; fill-opacity:1.0000; 
stroke:#000000; stroke-width:0.0212; stroke-opacity:1; 
stroke-linecap:round; stroke-linejoin:round;">
</g>
<g >
</g>
<g style="fill:#000000; fill-opacity:1.0000; 
stroke:#000000; stroke-width:0.0212; stroke-opacity:1; 
stroke-linecap:round; stroke-linejoin:round;">
</g>
<g style="fill:#000000; fill-opacity:1.0000; 
stroke:#000000; stroke-width:0.2500; stroke-opacity:1; 
stroke-linecap:round; stroke-linejoin:round;">
</g>
<g style="fill:#000000; fill-opacity:0.0; 
stroke:#000000; stroke-width:0.2500; stroke-opacity:1; 
stroke-linecap:round; stroke-linejoin:round;">
<path d="M190.9050 90.0675
L189.5600 88.7225
" />
<path d="M190.9050 91.2228
L190.9050 90.0675
" />
<path d="M191.8650 91.6475
L191.3297 91.6475
" />
<path d="M192.7200 98.0957
L192.7200 92.5025
" />
<path d="M189.5600 88.7225
L183.4300 88.7225
" />
<path d="M192.2700 98.5457
L192.7200 98.0957
" />
<path d="M191.3297 91.6475
L190.9050 91.2228
" />
<path d="M192.7200 92.5025
L191.8650 91.6475
" />
<path d="M195.0900 98.3525
L194.6400 98.8025
" />
<path d="M179.2100 78.7125
L179.2100 88.5625
" />
<path d="M179.8500 89.2925
L179.9400 89.2925
" />
<path d="M194.6400 98.8025
L193.3600 98.8025
" />
<path d="M179.9400 89.2925
L179.8500 89.2025
" />
<path d="M195.0900 96.2225
L195.0900 98.3525
" />
<path d="M179.2100 88.5625
L179.8500 89.2025
" />
<path d="M179.8500 89.2025
L179.8500 89.2925
" />
<path d="M178.7900 78.2925
L179.2100 78.7125
" />
<path d="M183.5000 105.2825
L185.8900 107.6725
" />
<path d="M176.3000 96.0925
L176.3000 100.6925
" />
<path d="M185.9400 107.7225
L185.8500 107.6325
" />
<path d="M196.1600 78.1325
L196.1900 90.4425
" />
<path d="M180.8900 105.2825
L183.5000 105.2825
" />
<path d="M188.4300 97.6625
L188.4900 97.6625
" />
<path d="M188.4900 97.6625
L188.4500 97.7025
" />
<path d="M188.4300 97.7225
L188.4300 97.6625
" />
<path d="M185.8900 107.6725
L185.8900 107.7225
" />
<path d="M196.8500 77.4425
L196.1600 78.1325
" />
<path d="M187.8600 98.2925
L188.4300 97.7225
" />
<path d="M176.3000 100.6925
L180.8900 105.2825
" />
<path d="M187.8600 102.0125
L187.8600 98.2925
" />
<path d="M185.8900 107.7225
L185.9400 107.7225
" />
<path d="M184.7700 105.5772
L184.7700 96.0025
" />
<path d="M187.1300 108.8225
L186.4727 108.1652
" />
<path d="M186.6150 108.0228
L186.6150 107.4222
" />
<path d="M184.7700 96.0025
L179.9100 91.1425
" />
<path d="M186.6150 107.4222
L184.7700 105.5772
" />
<path d="M186.4727 108.1652
L186.6150 108.0228
" />
<path d="M179.9100 91.1425
L179.9100 90.9825
" />
<path d="M179.9100 90.9825
L179.9600 91.0325
" />
<path d="M177.8800 105.2725
L177.8400 105.2325
" />
<path d="M174.9400 102.2525
L177.8800 105.1925
" />
<path d="M180.7900 87.9325
L183.5900 90.7325
" />
<path d="M177.8800 105.1925
L177.8800 105.2725
" />
<path d="M183.5900 90.7325
L187.1400 90.6325
" />
<path d="M178.7400 89.7225
L174.9400 93.5225
" />
<path d="M174.9400 93.5225
L174.9400 102.2525
" />
<path d="M157.7600 78.4503
L157.7600 82.3825
" />
<path d="M136.2216 86.6520
L136.6700 86.2036
" />
<path d="M115.1962 87.6077
L116.1518 86.6520
" />
<path d="M159.1178 83.7403
L174.4604 83.7403
" />
<path d="M156.1404 76.1264
L156.1404 76.8307
" />
<path d="M149.5350 82.7318
L156.1404 76.1264
" />
<path d="M136.6700 86.2036
L136.6700 77.1925
" />
<path d="M116.1518 86.6520
L136.2216 86.6520
" />
<path d="M157.7600 82.3825
L159.1178 83.7403
" />
<path d="M142.2093 82.7318
L149.5350 82.7318
" />
<path d="M156.1404 76.8307
L157.7600 78.4503
" />
<path d="M136.6700 77.1925
L142.2093 82.7318
" />
<path d="M113.2042 82.0406
L115.4838 84.3202
" />
<path d="M113.2042 80.7777
L113.2042 82.0406
" />
<path d="M132.5267 90.8056
L132.5267 88.9866
" />
<path d="M134.4396 92.7186
L132.5267 90.8056
" />
<path d="M171.9204 102.8164
L170.8750 103.8618
" />
<path d="M170.8750 103.8618
L158.0018 103.8618
" />
<path d="M155.5800 97.7101
L153.6607 95.7909
" />
<path d="M173.7056 123.9456
L168.6318 118.8718
" />
<path d="M138.9757 100.9818
L133.9804 95.9864
" />
<path d="M168.6318 106.1050
L171.9204 102.8164
" />
<path d="M155.5800 101.4400
L155.5800 97.7101
" />
<path d="M153.6607 99.2929
L151.9718 100.9818
" />
<path d="M151.9718 100.9818
L138.9757 100.9818
" />
<path d="M185.2601 123.9456
L173.7056 123.9456
" />
<path d="M168.6318 118.8718
L168.6318 106.1050
" />
<path d="M153.6607 95.7909
L153.6607 94.9104
" />
<path d="M153.6607 94.9104
L153.6607 99.2929
" />
<path d="M158.0018 103.8618
L155.5800 101.4400
" />
<path d="M137.1293 73.9246
L135.1945 71.9898
" />
<path d="M135.1945 71.9898
L135.1945 70.1382
" />
<path d="M151.9821 89.5046
L151.9821 88.0700
" />
<path d="M154.1200 91.6425
L151.9821 89.5046
" />
<path d="M154.5271 70.7861
L154.5271 69.2651
" />
<path d="M156.5996 72.8586
L154.5271 70.7861
" />
<path d="M172.3796 99.5486
L170.2415 97.4104
" />
<path d="M170.2415 97.4104
L170.2415 95.5442
" />
<path d="M172.8721 78.4249
L172.8721 76.7350
" />
<path d="M174.9196 80.4724
L172.8721 78.4249
" />
<path d="M186.1216 120.3211
L186.1216 116.6920
" />
<path d="M186.8599 121.0594
L186.1216 120.3211
" />
<path d="M152.3900 104.4225
L152.3000 104.4225
" />
<path d="M152.2100 104.4225
L152.5800 104.3325
" />
<path d="M152.5800 104.3325
L152.3900 104.4225
" />
<path d="M97.3718 95.6318
L106.1625 104.4225
" />
<path d="M100.1619 85.1776
L97.3718 87.9677
" />
<path d="M97.3718 87.9677
L97.3718 95.6318
" />
<path d="M106.1625 104.4225
L152.2100 104.4225
" />
<path d="M100.1619 82.6377
L100.1619 85.1776
" />
<path d="M118.7800 73.0125
L120.9381 70.8544
" />
<path d="M119.3720 91.0305
L117.3500 93.0525
" />
<path d="M120.4100 75.7025
L120.4100 74.6425
" />
<path d="M120.4100 74.6425
L118.7800 73.0125
" />
<path d="M120.9381 70.8544
L122.0398 70.8544
" />
<path d="M119.3720 89.7028
L119.3720 91.0305
" />
<path d="M136.9700 91.9636
L138.8274 90.1062
" />
<path d="M136.9700 93.7525
L136.9700 91.9636
" />
<path d="M141.3725 72.2200
L141.3725 69.9813
" />
<path d="M138.8274 90.1062
L138.8274 88.7862
" />
<path d="M138.8274 88.7862
L138.8274 81.3251
" />
<path d="M139.5800 74.0125
L141.3725 72.2200
" />
<path d="M157.0868 99.1905
L157.0868 96.2604
" />
<path d="M157.0868 96.2604
L157.0868 86.2093
" />
<path d="M159.7174 81.1750
L159.7174 77.4512
" />
<path d="M160.1100 101.7225
L158.4400 101.7225
" />
<path d="M155.7800 103.6725
L155.3300 103.2225
" />
<path d="M155.3300 103.2225
L155.3300 103.1425
" />
<path d="M157.0300 99.2473
L157.0868 99.1905
" />
<path d="M155.2500 103.1425
L155.3700 103.2625
" />
<path d="M155.3300 103.1425
L155.2500 103.1425
" />
<path d="M157.0300 100.3125
L157.0300 99.2473
" />
<path d="M155.7800 107.4725
L155.7800 103.6725
" />
<path d="M158.4400 101.7225
L157.0300 100.3125
" />
<path d="M158.9500 81.9425
L159.7174 81.1750
" />
<path d="M191.0000 109.9225
L184.3700 109.9225
" />
<path d="M184.3700 109.9225
L178.4000 103.9525
" />
<path d="M187.4403 91.3575
L189.4995 89.2984
" />
<path d="M190.4550 90.2539
L190.4550 91.4092
" />
<path d="M191.5450 99.8975
L191.7500 100.1025
" />
<path d="M192.2700 97.5204
L191.5450 98.2454
" />
<path d="M180.0500 81.5225
L180.0500 88.2178
" />
<path d="M192.2700 92.6889
L192.2700 97.5204
" />
<path d="M190.4550 91.4092
L191.1433 92.0975
" />
<path d="M191.1433 92.0975
L191.6786 92.0975
" />
<path d="M189.4995 89.2984
L190.4550 90.2539
" />
<path d="M183.1897 91.3575
L187.4403 91.3575
" />
<path d="M191.6786 92.0975
L192.2700 92.6889
" />
<path d="M191.5450 98.2454
L191.5450 99.8975
" />
<path d="M180.0500 88.2178
L183.1897 91.3575
" />
<path d="M191.8100 103.6325
L191.3000 103.5925
" />
<path d="M182.3097 110.6475
L191.3250 110.6475
" />
<path d="M192.9400 104.7625
L191.8100 103.6325
" />
<path d="M174.0900 95.6425
L174.0900 102.4278
" />
<path d="M191.3250 110.6475
L192.9400 109.0325
" />
<path d="M192.9400 109.0325
L192.9400 104.7625
" />
<path d="M174.0900 102.4278
L182.3097 110.6475
" />
<path d="M190.2700 81.9825
L190.1300 81.9825
" />
<path d="M191.6300 90.9220
L191.6300 83.4825
" />
<path d="M191.6300 83.4825
L190.2700 82.1225
" />
<path d="M190.1300 81.9825
L190.2400 82.0925
" />
<path d="M190.2700 82.1225
L190.2700 81.9825
" />
<path d="M173.4505 113.0864
L173.4505 108.2120
" />
<path d="M173.4505 108.2120
L175.0300 106.6325
" />
</g>
<g >
</g>
</g> 
</svg>
