<?xml version="1.0" standalone="no"?>
 <!DOCTYPE svg PUBLIC "-//W3C//DTD SVG 1.1//EN" 
 "http://www.w3.org/Graphics/SVG/1.1/DTD/svg11.dtd"> 
<svg
  xmlns:svg="http://www.w3.org/2000/svg"
  xmlns="http://www.w3.org/2000/svg"
  xmlns:xlink="http://www.w3.org/1999/xlink"
  version="1.1"
  width="297.0022mm" height="210.0072mm" viewBox="0.0000 0.0000 297.0022 210.0072">
<title>SVG Image created as TCC-PCB-F_Paste.svg date 2023/03/16 17:04:14 </title>
  <desc>Image generated by PCBNEW </desc>
<g style="fill:#000000; fill-opacity:1.0000;stroke:#000000; stroke-opacity:1.0000;
stroke-linecap:round; stroke-linejoin:round;"
 transform="translate(0 0) scale(1 1)">
</g>
<g style="fill:#000000; fill-opacity:0.0; 
stroke:#000000; stroke-width:0.0000; stroke-opacity:1; 
stroke-linecap:round; stroke-linejoin:round;">
<g >
</g>
<g style="fill:#000000; fill-opacity:0.0; 
stroke:#000000; stroke-width:0.0000; stroke-opacity:1; 
stroke-linecap:round; stroke-linejoin:round;">
</g>
<g style="fill:#000000; fill-opacity:1.0000; 
stroke:#000000; stroke-width:0.0000; stroke-opacity:1; 
stroke-linecap:round; stroke-linejoin:round;">
<path style="fill:#000000; fill-opacity:1.0000; 
stroke:#000000; stroke-width:0.0000; stroke-opacity:1; 
stroke-linecap:round; stroke-linejoin:round;fill-rule:evenodd;"
d="M 176.4031,90.4474
176.3110,90.4152
176.2382,90.3503
176.1958,90.2624
176.1903,90.1650
176.2633,89.6451
176.2955,89.5530
176.3605,89.4803
176.4483,89.4379
176.5457,89.4324
177.4369,89.5576
177.5290,89.5898
177.6018,89.6547
177.6442,89.7426
177.6497,89.8400
177.5767,90.3599
177.5445,90.4520
177.4795,90.5247
177.3917,90.5671
177.2943,90.5726
Z" /> 
<path style="fill:#000000; fill-opacity:1.0000; 
stroke:#000000; stroke-width:0.0000; stroke-opacity:1; 
stroke-linecap:round; stroke-linejoin:round;fill-rule:evenodd;"
d="M 176.6570,88.6401
176.5650,88.6080
176.4922,88.5430
176.4498,88.4552
176.4443,88.3578
176.5173,87.8379
176.5495,87.7458
176.6144,87.6730
176.7023,87.6307
176.7997,87.6251
177.6909,87.7504
177.7830,87.7825
177.8558,87.8475
177.8982,87.9353
177.9037,88.0327
177.8306,88.5526
177.7985,88.6447
177.7335,88.7175
177.6457,88.7599
177.5483,88.7654
Z" /> 
</g>
<g >
</g>
<g style="fill:#000000; fill-opacity:1.0000; 
stroke:#000000; stroke-width:0.0000; stroke-opacity:1; 
stroke-linecap:round; stroke-linejoin:round;">
<path style="fill:#000000; fill-opacity:1.0000; 
stroke:#000000; stroke-width:0.0000; stroke-opacity:1; 
stroke-linecap:round; stroke-linejoin:round;fill-rule:evenodd;"
d="M 180.9023,107.6903
180.8355,107.7613
180.7465,107.8014
180.6490,107.8044
180.5578,107.7698
180.1338,107.5049
180.0627,107.4380
180.0227,107.3491
180.0197,107.2516
180.0543,107.1604
180.5577,106.3547
180.6245,106.2837
180.7135,106.2436
180.8110,106.2406
180.9022,106.2752
181.3262,106.5401
181.3973,106.6070
181.4373,106.6959
181.4403,106.7934
181.4057,106.8846
Z" /> 
<path style="fill:#000000; fill-opacity:1.0000; 
stroke:#000000; stroke-width:0.0000; stroke-opacity:1; 
stroke-linecap:round; stroke-linejoin:round;fill-rule:evenodd;"
d="M 179.2910,106.6834
179.2242,106.7545
179.1352,106.7946
179.0377,106.7975
178.9465,106.7630
178.5225,106.4980
178.4515,106.4312
178.4114,106.3422
178.4084,106.2447
178.4430,106.1535
178.9464,105.3479
179.0132,105.2768
179.1022,105.2368
179.1997,105.2338
179.2909,105.2683
179.7149,105.5333
179.7860,105.6001
179.8260,105.6891
179.8290,105.7866
179.7944,105.8778
Z" /> 
</g>
<g >
</g>
<g style="fill:#000000; fill-opacity:1.0000; 
stroke:#000000; stroke-width:0.0000; stroke-opacity:1; 
stroke-linecap:round; stroke-linejoin:round;">
<path style="fill:#000000; fill-opacity:1.0000; 
stroke:#000000; stroke-width:0.0000; stroke-opacity:1; 
stroke-linecap:round; stroke-linejoin:round;fill-rule:evenodd;"
d="M 193.0231,97.7774
192.9310,97.7452
192.8582,97.6803
192.8158,97.5924
192.8103,97.4950
192.8833,96.9751
192.9155,96.8830
192.9805,96.8103
193.0683,96.7679
193.1657,96.7624
194.0569,96.8876
194.1490,96.9198
194.2218,96.9847
194.2642,97.0726
194.2697,97.1700
194.1967,97.6899
194.1645,97.7820
194.0995,97.8547
194.0117,97.8971
193.9143,97.9026
Z" /> 
<path style="fill:#000000; fill-opacity:1.0000; 
stroke:#000000; stroke-width:0.0000; stroke-opacity:1; 
stroke-linecap:round; stroke-linejoin:round;fill-rule:evenodd;"
d="M 193.2770,95.9701
193.1850,95.9380
193.1122,95.8730
193.0698,95.7852
193.0643,95.6878
193.1373,95.1679
193.1695,95.0758
193.2344,95.0030
193.3223,94.9607
193.4197,94.9551
194.3109,95.0804
194.4030,95.1125
194.4758,95.1775
194.5182,95.2653
194.5237,95.3627
194.4506,95.8826
194.4185,95.9747
194.3535,96.0475
194.2657,96.0899
194.1683,96.0954
Z" /> 
</g>
<g >
</g>
<g style="fill:#000000; fill-opacity:1.0000; 
stroke:#000000; stroke-width:0.0000; stroke-opacity:1; 
stroke-linecap:round; stroke-linejoin:round;">
<path style="fill:#000000; fill-opacity:1.0000; 
stroke:#000000; stroke-width:0.0000; stroke-opacity:1; 
stroke-linecap:round; stroke-linejoin:round;fill-rule:evenodd;"
d="M 183.2341,74.5286
183.7232,74.6325
183.2554,76.8334
182.7663,76.7294
Z" /> 
<path style="fill:#000000; fill-opacity:1.0000; 
stroke:#000000; stroke-width:0.0000; stroke-opacity:1; 
stroke-linecap:round; stroke-linejoin:round;fill-rule:evenodd;"
d="M 184.0166,74.6949
184.5057,74.7989
184.0379,76.9997
183.5488,76.8957
Z" /> 
<path style="fill:#000000; fill-opacity:1.0000; 
stroke:#000000; stroke-width:0.0000; stroke-opacity:1; 
stroke-linecap:round; stroke-linejoin:round;fill-rule:evenodd;"
d="M 184.7991,74.8612
185.2882,74.9652
184.8204,77.1660
184.3313,77.0621
Z" /> 
<path style="fill:#000000; fill-opacity:1.0000; 
stroke:#000000; stroke-width:0.0000; stroke-opacity:1; 
stroke-linecap:round; stroke-linejoin:round;fill-rule:evenodd;"
d="M 185.5816,75.0276
186.0707,75.1315
185.6029,77.3323
185.1138,77.2284
Z" /> 
<path style="fill:#000000; fill-opacity:1.0000; 
stroke:#000000; stroke-width:0.0000; stroke-opacity:1; 
stroke-linecap:round; stroke-linejoin:round;fill-rule:evenodd;"
d="M 186.3642,75.1939
186.8532,75.2978
186.3854,77.4987
185.8964,77.3947
Z" /> 
</g>
<g >
</g>
<g style="fill:#000000; fill-opacity:1.0000; 
stroke:#000000; stroke-width:0.0000; stroke-opacity:1; 
stroke-linecap:round; stroke-linejoin:round;">
<path style="fill:#000000; fill-opacity:1.0000; 
stroke:#000000; stroke-width:0.0000; stroke-opacity:1; 
stroke-linecap:round; stroke-linejoin:round;fill-rule:evenodd;"
d="M 194.9844,90.8120
195.0765,90.8441
195.1493,90.9091
195.1916,90.9969
195.1972,91.0943
195.1276,91.5895
195.0954,91.6815
195.0305,91.7543
194.9426,91.7967
194.8452,91.8022
193.9045,91.6700
193.8124,91.6379
193.7396,91.5729
193.6972,91.4850
193.6917,91.3877
193.7613,90.8925
193.7934,90.8004
193.8584,90.7277
193.9462,90.6853
194.0436,90.6797
Z" /> 
<path style="fill:#000000; fill-opacity:1.0000; 
stroke:#000000; stroke-width:0.0000; stroke-opacity:1; 
stroke-linecap:round; stroke-linejoin:round;fill-rule:evenodd;"
d="M 194.7200,92.6935
194.8121,92.7256
194.8848,92.7906
194.9272,92.8784
194.9327,92.9758
194.8632,93.4710
194.8310,93.5631
194.7660,93.6358
194.6782,93.6782
194.5808,93.6837
193.6400,93.5515
193.5479,93.5194
193.4752,93.4544
193.4328,93.3666
193.4273,93.2692
193.4968,92.7740
193.5290,92.6819
193.5940,92.6092
193.6818,92.5668
193.7792,92.5613
Z" /> 
</g>
<g >
</g>
<g style="fill:#000000; fill-opacity:1.0000; 
stroke:#000000; stroke-width:0.0000; stroke-opacity:1; 
stroke-linecap:round; stroke-linejoin:round;">
<path style="fill:#000000; fill-opacity:1.0000; 
stroke:#000000; stroke-width:0.0000; stroke-opacity:1; 
stroke-linecap:round; stroke-linejoin:round;fill-rule:evenodd;"
d="M 182.3862,87.3818
182.2941,87.3497
182.2213,87.2847
182.1789,87.1969
182.1734,87.0995
182.2430,86.6044
182.2751,86.5123
182.3401,86.4395
182.4280,86.3971
182.5253,86.3916
183.4661,86.5238
183.5582,86.5560
183.6310,86.6209
183.6733,86.7088
183.6789,86.8062
183.6093,87.3013
183.5771,87.3934
183.5122,87.4662
183.4243,87.5085
183.3269,87.5141
Z" /> 
<path style="fill:#000000; fill-opacity:1.0000; 
stroke:#000000; stroke-width:0.0000; stroke-opacity:1; 
stroke-linecap:round; stroke-linejoin:round;fill-rule:evenodd;"
d="M 182.6506,85.5003
182.5585,85.4682
182.4857,85.4032
182.4433,85.3154
182.4378,85.2180
182.5074,84.7228
182.5396,84.6308
182.6045,84.5580
182.6924,84.5156
182.7898,84.5101
183.7305,84.6423
183.8226,84.6744
183.8954,84.7394
183.9378,84.8273
183.9433,84.9246
183.8737,85.4198
183.8415,85.5119
183.7766,85.5846
183.6887,85.6270
183.5913,85.6326
Z" /> 
</g>
<g >
</g>
<g style="fill:#000000; fill-opacity:1.0000; 
stroke:#000000; stroke-width:0.0000; stroke-opacity:1; 
stroke-linecap:round; stroke-linejoin:round;">
<path style="fill:#000000; fill-opacity:1.0000; 
stroke:#000000; stroke-width:0.0000; stroke-opacity:1; 
stroke-linecap:round; stroke-linejoin:round;fill-rule:evenodd;"
d="M 175.6500,94.7715
175.5579,94.7394
175.4852,94.6744
175.4428,94.5866
175.4373,94.4892
175.5068,93.9940
175.5390,93.9019
175.6040,93.8292
175.6918,93.7868
175.7892,93.7813
176.7300,93.9135
176.8221,93.9456
176.8948,94.0106
176.9372,94.0984
176.9427,94.1958
176.8732,94.6910
176.8410,94.7831
176.7760,94.8558
176.6882,94.8982
176.5908,94.9037
Z" /> 
<path style="fill:#000000; fill-opacity:1.0000; 
stroke:#000000; stroke-width:0.0000; stroke-opacity:1; 
stroke-linecap:round; stroke-linejoin:round;fill-rule:evenodd;"
d="M 175.9145,92.8900
175.8224,92.8579
175.7496,92.7929
175.7072,92.7050
175.7017,92.6077
175.7713,92.1125
175.8034,92.0204
175.8684,91.9477
175.9562,91.9053
176.0536,91.8997
176.9944,92.0320
177.0865,92.0641
177.1593,92.1291
177.2016,92.2169
177.2072,92.3143
177.1376,92.8095
177.1054,92.9015
177.0405,92.9743
176.9526,93.0167
176.8552,93.0222
Z" /> 
</g>
<g >
</g>
<g >
</g>
<g >
</g>
<g >
</g>
<g >
</g>
<g style="fill:#000000; fill-opacity:1.0000; 
stroke:#000000; stroke-width:0.0000; stroke-opacity:1; 
stroke-linecap:round; stroke-linejoin:round;">
<path style="fill:#000000; fill-opacity:1.0000; 
stroke:#000000; stroke-width:0.0000; stroke-opacity:1; 
stroke-linecap:round; stroke-linejoin:round;fill-rule:evenodd;"
d="M 183.5027,108.0330
183.5562,107.9515
183.6368,107.8966
183.7323,107.8767
183.8281,107.8949
184.2917,108.0822
184.3733,108.1357
184.4282,108.2163
184.4481,108.3118
184.4299,108.4076
184.0740,109.2885
184.0205,109.3700
183.9399,109.4249
183.8444,109.4448
183.7486,109.4266
183.2850,109.2393
183.2034,109.1858
183.1485,109.1052
183.1286,109.0097
183.1468,108.9139
Z" /> 
<path style="fill:#000000; fill-opacity:1.0000; 
stroke:#000000; stroke-width:0.0000; stroke-opacity:1; 
stroke-linecap:round; stroke-linejoin:round;fill-rule:evenodd;"
d="M 185.2643,108.7448
185.3178,108.6632
185.3985,108.6083
185.4940,108.5884
185.5898,108.6066
186.0534,108.7939
186.1350,108.8474
186.1899,108.9281
186.2097,109.0236
186.1915,109.1194
185.8357,110.0002
185.7822,110.0818
185.7015,110.1367
185.6060,110.1566
185.5102,110.1384
185.0466,109.9511
184.9650,109.8976
184.9101,109.8169
184.8903,109.7214
184.9085,109.6256
Z" /> 
</g>
<g >
</g>
<g style="fill:#000000; fill-opacity:1.0000; 
stroke:#000000; stroke-width:0.0000; stroke-opacity:1; 
stroke-linecap:round; stroke-linejoin:round;">
<path style="fill:#000000; fill-opacity:1.0000; 
stroke:#000000; stroke-width:0.0000; stroke-opacity:1; 
stroke-linecap:round; stroke-linejoin:round;fill-rule:evenodd;"
d="M 192.7050,74.0175
192.7240,73.9218
192.7782,73.8407
192.8593,73.7865
192.9550,73.7675
193.7050,73.7675
193.8007,73.7865
193.8818,73.8407
193.9360,73.9218
193.9550,74.0175
193.9550,75.2675
193.9360,75.3632
193.8818,75.4443
193.8007,75.4985
193.7050,75.5175
192.9550,75.5175
192.8593,75.4985
192.7782,75.4443
192.7240,75.3632
192.7050,75.2675
Z" /> 
<path style="fill:#000000; fill-opacity:1.0000; 
stroke:#000000; stroke-width:0.0000; stroke-opacity:1; 
stroke-linecap:round; stroke-linejoin:round;fill-rule:evenodd;"
d="M 195.5050,74.0175
195.5240,73.9218
195.5782,73.8407
195.6593,73.7865
195.7550,73.7675
196.5050,73.7675
196.6007,73.7865
196.6818,73.8407
196.7360,73.9218
196.7550,74.0175
196.7550,75.2675
196.7360,75.3632
196.6818,75.4443
196.6007,75.4985
196.5050,75.5175
195.7550,75.5175
195.6593,75.4985
195.5782,75.4443
195.5240,75.3632
195.5050,75.2675
Z" /> 
</g>
<g >
</g>
<g style="fill:#000000; fill-opacity:1.0000; 
stroke:#000000; stroke-width:0.0000; stroke-opacity:1; 
stroke-linecap:round; stroke-linejoin:round;">
<path style="fill:#000000; fill-opacity:1.0000; 
stroke:#000000; stroke-width:0.0000; stroke-opacity:1; 
stroke-linecap:round; stroke-linejoin:round;fill-rule:evenodd;"
d="M 185.5139,79.2940
185.6060,79.3262
185.6788,79.3911
185.7212,79.4790
185.7267,79.5764
185.6536,80.0962
185.6215,80.1883
185.5565,80.2611
185.4687,80.3035
185.3713,80.3090
184.4800,80.1838
184.3880,80.1516
184.3152,80.0867
184.2728,79.9988
184.2673,79.9014
184.3403,79.3815
184.3725,79.2894
184.4375,79.2166
184.5253,79.1743
184.6227,79.1687
Z" /> 
<path style="fill:#000000; fill-opacity:1.0000; 
stroke:#000000; stroke-width:0.0000; stroke-opacity:1; 
stroke-linecap:round; stroke-linejoin:round;fill-rule:evenodd;"
d="M 185.2600,81.1012
185.3520,81.1334
185.4248,81.1983
185.4672,81.2862
185.4727,81.3836
185.3997,81.9035
185.3675,81.9956
185.3025,82.0684
185.2147,82.1107
185.1173,82.1163
184.2261,81.9910
184.1340,81.9588
184.0612,81.8939
184.0188,81.8060
184.0133,81.7086
184.0863,81.1888
184.1185,81.0967
184.1835,81.0239
184.2713,80.9815
184.3687,80.9760
Z" /> 
</g>
<g >
</g>
<g style="fill:#000000; fill-opacity:1.0000; 
stroke:#000000; stroke-width:0.0000; stroke-opacity:1; 
stroke-linecap:round; stroke-linejoin:round;">
<path style="fill:#000000; fill-opacity:1.0000; 
stroke:#000000; stroke-width:0.0000; stroke-opacity:1; 
stroke-linecap:round; stroke-linejoin:round;fill-rule:evenodd;"
d="M 183.3339,78.9340
183.4260,78.9662
183.4988,79.0311
183.5412,79.1190
183.5467,79.2164
183.4736,79.7362
183.4415,79.8283
183.3765,79.9011
183.2887,79.9435
183.1913,79.9490
182.3000,79.8238
182.2080,79.7916
182.1352,79.7267
182.0928,79.6388
182.0873,79.5414
182.1603,79.0215
182.1925,78.9294
182.2575,78.8566
182.3453,78.8143
182.4427,78.8087
Z" /> 
<path style="fill:#000000; fill-opacity:1.0000; 
stroke:#000000; stroke-width:0.0000; stroke-opacity:1; 
stroke-linecap:round; stroke-linejoin:round;fill-rule:evenodd;"
d="M 183.0800,80.7412
183.1720,80.7734
183.2448,80.8383
183.2872,80.9262
183.2927,81.0236
183.2197,81.5435
183.1875,81.6356
183.1225,81.7084
183.0347,81.7507
182.9373,81.7563
182.0461,81.6310
181.9540,81.5988
181.8812,81.5339
181.8388,81.4460
181.8333,81.3486
181.9064,80.8288
181.9385,80.7367
182.0035,80.6639
182.0913,80.6215
182.1887,80.6160
Z" /> 
</g>
<g >
</g>
<g >
</g>
<g style="fill:#000000; fill-opacity:1.0000; 
stroke:#000000; stroke-width:0.0000; stroke-opacity:1; 
stroke-linecap:round; stroke-linejoin:round;">
<path style="fill:#000000; fill-opacity:1.0000; 
stroke:#000000; stroke-width:0.0000; stroke-opacity:1; 
stroke-linecap:round; stroke-linejoin:round;fill-rule:evenodd;"
d="M 195.3019,84.6748
195.4550,83.5855
197.2374,83.8360
197.0844,84.9253
Z" /> 
<path style="fill:#000000; fill-opacity:1.0000; 
stroke:#000000; stroke-width:0.0000; stroke-opacity:1; 
stroke-linecap:round; stroke-linejoin:round;fill-rule:evenodd;"
d="M 189.6772,80.1479
189.8302,79.0586
191.6127,79.3091
191.4596,80.3984
Z" /> 
<path style="fill:#000000; fill-opacity:1.0000; 
stroke:#000000; stroke-width:0.0000; stroke-opacity:1; 
stroke-linecap:round; stroke-linejoin:round;fill-rule:evenodd;"
d="M 195.8168,81.0108
195.9699,79.9215
197.7524,80.1720
197.5993,81.2613
Z" /> 
<path style="fill:#000000; fill-opacity:1.0000; 
stroke:#000000; stroke-width:0.0000; stroke-opacity:1; 
stroke-linecap:round; stroke-linejoin:round;fill-rule:evenodd;"
d="M 189.1622,83.8119
189.3153,82.7226
191.0978,82.9731
190.9447,84.0624
Z" /> 
</g>
<g >
</g>
<g >
</g>
<g style="fill:#000000; fill-opacity:1.0000; 
stroke:#000000; stroke-width:0.0000; stroke-opacity:1; 
stroke-linecap:round; stroke-linejoin:round;">
<path style="fill:#000000; fill-opacity:1.0000; 
stroke:#000000; stroke-width:0.0000; stroke-opacity:1; 
stroke-linecap:round; stroke-linejoin:round;fill-rule:evenodd;"
d="M 192.7578,102.5523
192.6657,102.5201
192.5930,102.4552
192.5506,102.3673
192.5450,102.2699
192.6146,101.7748
192.6468,101.6827
192.7117,101.6099
192.7996,101.5675
192.8970,101.5620
193.8377,101.6942
193.9298,101.7264
194.0026,101.7913
194.0450,101.8792
194.0505,101.9766
193.9809,102.4717
193.9488,102.5638
193.8838,102.6366
193.7960,102.6790
193.6986,102.6845
Z" /> 
<path style="fill:#000000; fill-opacity:1.0000; 
stroke:#000000; stroke-width:0.0000; stroke-opacity:1; 
stroke-linecap:round; stroke-linejoin:round;fill-rule:evenodd;"
d="M 193.0222,100.6708
192.9302,100.6386
192.8574,100.5737
192.8150,100.4858
192.8095,100.3884
192.8791,99.8933
192.9112,99.8012
192.9762,99.7284
193.0640,99.6860
193.1614,99.6805
194.1022,99.8127
194.1943,99.8449
194.2670,99.9098
194.3094,99.9977
194.3150,100.0951
194.2454,100.5902
194.2132,100.6823
194.1483,100.7551
194.0604,100.7975
193.9630,100.8030
Z" /> 
</g>
<g >
</g>
<g >
</g>
<g >
</g>
<g >
</g>
<g style="fill:#000000; fill-opacity:1.0000; 
stroke:#000000; stroke-width:0.0000; stroke-opacity:1; 
stroke-linecap:round; stroke-linejoin:round;">
<path style="fill:#000000; fill-opacity:1.0000; 
stroke:#000000; stroke-width:0.0000; stroke-opacity:1; 
stroke-linecap:round; stroke-linejoin:round;fill-rule:evenodd;"
d="M 190.5832,102.2711
190.5066,102.8157
189.0212,102.6070
189.0978,102.0623
Z" /> 
<path style="fill:#000000; fill-opacity:1.0000; 
stroke:#000000; stroke-width:0.0000; stroke-opacity:1; 
stroke-linecap:round; stroke-linejoin:round;fill-rule:evenodd;"
d="M 190.6945,101.4789
190.6180,102.0235
189.1326,101.8148
189.2091,101.2701
Z" /> 
<path style="fill:#000000; fill-opacity:1.0000; 
stroke:#000000; stroke-width:0.0000; stroke-opacity:1; 
stroke-linecap:round; stroke-linejoin:round;fill-rule:evenodd;"
d="M 190.8058,100.6867
190.7293,101.2313
189.2439,101.0225
189.3204,100.4779
Z" /> 
<path style="fill:#000000; fill-opacity:1.0000; 
stroke:#000000; stroke-width:0.0000; stroke-opacity:1; 
stroke-linecap:round; stroke-linejoin:round;fill-rule:evenodd;"
d="M 190.9172,99.8944
190.8406,100.4391
189.3552,100.2303
189.4318,99.6857
Z" /> 
<path style="fill:#000000; fill-opacity:1.0000; 
stroke:#000000; stroke-width:0.0000; stroke-opacity:1; 
stroke-linecap:round; stroke-linejoin:round;fill-rule:evenodd;"
d="M 191.0285,99.1022
190.9520,99.6469
189.4666,99.4381
189.5431,98.8935
Z" /> 
<path style="fill:#000000; fill-opacity:1.0000; 
stroke:#000000; stroke-width:0.0000; stroke-opacity:1; 
stroke-linecap:round; stroke-linejoin:round;fill-rule:evenodd;"
d="M 191.1399,98.3100
191.0633,98.8547
189.5779,98.6459
189.6545,98.1012
Z" /> 
<path style="fill:#000000; fill-opacity:1.0000; 
stroke:#000000; stroke-width:0.0000; stroke-opacity:1; 
stroke-linecap:round; stroke-linejoin:round;fill-rule:evenodd;"
d="M 191.2512,97.5178
191.1747,98.0624
189.6893,97.8537
189.7658,97.3090
Z" /> 
<path style="fill:#000000; fill-opacity:1.0000; 
stroke:#000000; stroke-width:0.0000; stroke-opacity:1; 
stroke-linecap:round; stroke-linejoin:round;fill-rule:evenodd;"
d="M 191.3625,96.7256
191.2860,97.2702
189.8006,97.0615
189.8771,96.5168
Z" /> 
<path style="fill:#000000; fill-opacity:1.0000; 
stroke:#000000; stroke-width:0.0000; stroke-opacity:1; 
stroke-linecap:round; stroke-linejoin:round;fill-rule:evenodd;"
d="M 191.4739,95.9334
191.3973,96.4780
189.9119,96.2693
189.9885,95.7246
Z" /> 
<path style="fill:#000000; fill-opacity:1.0000; 
stroke:#000000; stroke-width:0.0000; stroke-opacity:1; 
stroke-linecap:round; stroke-linejoin:round;fill-rule:evenodd;"
d="M 191.5852,95.1411
191.5087,95.6858
190.0233,95.4770
190.0998,94.9324
Z" /> 
<path style="fill:#000000; fill-opacity:1.0000; 
stroke:#000000; stroke-width:0.0000; stroke-opacity:1; 
stroke-linecap:round; stroke-linejoin:round;fill-rule:evenodd;"
d="M 191.6966,94.3489
191.6200,94.8936
190.1346,94.6848
190.2112,94.1402
Z" /> 
<path style="fill:#000000; fill-opacity:1.0000; 
stroke:#000000; stroke-width:0.0000; stroke-opacity:1; 
stroke-linecap:round; stroke-linejoin:round;fill-rule:evenodd;"
d="M 189.3008,91.8159
189.8454,91.8924
189.6367,93.3778
189.0920,93.3013
Z" /> 
<path style="fill:#000000; fill-opacity:1.0000; 
stroke:#000000; stroke-width:0.0000; stroke-opacity:1; 
stroke-linecap:round; stroke-linejoin:round;fill-rule:evenodd;"
d="M 188.5086,91.7045
189.0532,91.7811
188.8444,93.2665
188.2998,93.1899
Z" /> 
<path style="fill:#000000; fill-opacity:1.0000; 
stroke:#000000; stroke-width:0.0000; stroke-opacity:1; 
stroke-linecap:round; stroke-linejoin:round;fill-rule:evenodd;"
d="M 187.7163,91.5932
188.2610,91.6697
188.0522,93.1551
187.5076,93.0786
Z" /> 
<path style="fill:#000000; fill-opacity:1.0000; 
stroke:#000000; stroke-width:0.0000; stroke-opacity:1; 
stroke-linecap:round; stroke-linejoin:round;fill-rule:evenodd;"
d="M 186.9241,91.4818
187.4688,91.5584
187.2600,93.0438
186.7154,92.9672
Z" /> 
<path style="fill:#000000; fill-opacity:1.0000; 
stroke:#000000; stroke-width:0.0000; stroke-opacity:1; 
stroke-linecap:round; stroke-linejoin:round;fill-rule:evenodd;"
d="M 186.1319,91.3705
186.6766,91.4470
186.4678,92.9324
185.9232,92.8559
Z" /> 
<path style="fill:#000000; fill-opacity:1.0000; 
stroke:#000000; stroke-width:0.0000; stroke-opacity:1; 
stroke-linecap:round; stroke-linejoin:round;fill-rule:evenodd;"
d="M 185.3397,91.2592
185.8843,91.3357
185.6756,92.8211
185.1309,92.7446
Z" /> 
<path style="fill:#000000; fill-opacity:1.0000; 
stroke:#000000; stroke-width:0.0000; stroke-opacity:1; 
stroke-linecap:round; stroke-linejoin:round;fill-rule:evenodd;"
d="M 184.5475,91.1478
185.0921,91.2244
184.8834,92.7098
184.3387,92.6332
Z" /> 
<path style="fill:#000000; fill-opacity:1.0000; 
stroke:#000000; stroke-width:0.0000; stroke-opacity:1; 
stroke-linecap:round; stroke-linejoin:round;fill-rule:evenodd;"
d="M 183.7553,91.0365
184.2999,91.1130
184.0912,92.5984
183.5465,92.5219
Z" /> 
<path style="fill:#000000; fill-opacity:1.0000; 
stroke:#000000; stroke-width:0.0000; stroke-opacity:1; 
stroke-linecap:round; stroke-linejoin:round;fill-rule:evenodd;"
d="M 182.9631,90.9251
183.5077,91.0017
183.2989,92.4871
182.7543,92.4105
Z" /> 
<path style="fill:#000000; fill-opacity:1.0000; 
stroke:#000000; stroke-width:0.0000; stroke-opacity:1; 
stroke-linecap:round; stroke-linejoin:round;fill-rule:evenodd;"
d="M 182.1708,90.8138
182.7155,90.8904
182.5067,92.3758
181.9621,92.2992
Z" /> 
<path style="fill:#000000; fill-opacity:1.0000; 
stroke:#000000; stroke-width:0.0000; stroke-opacity:1; 
stroke-linecap:round; stroke-linejoin:round;fill-rule:evenodd;"
d="M 181.3786,90.7025
181.9233,90.7790
181.7145,92.2644
181.1699,92.1879
Z" /> 
<path style="fill:#000000; fill-opacity:1.0000; 
stroke:#000000; stroke-width:0.0000; stroke-opacity:1; 
stroke-linecap:round; stroke-linejoin:round;fill-rule:evenodd;"
d="M 180.4075,92.7624
180.3310,93.3070
178.8455,93.0982
178.9221,92.5536
Z" /> 
<path style="fill:#000000; fill-opacity:1.0000; 
stroke:#000000; stroke-width:0.0000; stroke-opacity:1; 
stroke-linecap:round; stroke-linejoin:round;fill-rule:evenodd;"
d="M 180.2962,93.5546
180.2196,94.0992
178.7342,93.8905
178.8108,93.3458
Z" /> 
<path style="fill:#000000; fill-opacity:1.0000; 
stroke:#000000; stroke-width:0.0000; stroke-opacity:1; 
stroke-linecap:round; stroke-linejoin:round;fill-rule:evenodd;"
d="M 180.1848,94.3468
180.1083,94.8914
178.6229,94.6827
178.6994,94.1380
Z" /> 
<path style="fill:#000000; fill-opacity:1.0000; 
stroke:#000000; stroke-width:0.0000; stroke-opacity:1; 
stroke-linecap:round; stroke-linejoin:round;fill-rule:evenodd;"
d="M 180.0735,95.1390
179.9969,95.6837
178.5115,95.4749
178.5881,94.9302
Z" /> 
<path style="fill:#000000; fill-opacity:1.0000; 
stroke:#000000; stroke-width:0.0000; stroke-opacity:1; 
stroke-linecap:round; stroke-linejoin:round;fill-rule:evenodd;"
d="M 179.9621,95.9312
179.8856,96.4759
178.4002,96.2671
178.4767,95.7225
Z" /> 
<path style="fill:#000000; fill-opacity:1.0000; 
stroke:#000000; stroke-width:0.0000; stroke-opacity:1; 
stroke-linecap:round; stroke-linejoin:round;fill-rule:evenodd;"
d="M 179.8508,96.7234
179.7743,97.2681
178.2889,97.0593
178.3654,96.5147
Z" /> 
<path style="fill:#000000; fill-opacity:1.0000; 
stroke:#000000; stroke-width:0.0000; stroke-opacity:1; 
stroke-linecap:round; stroke-linejoin:round;fill-rule:evenodd;"
d="M 179.7395,97.5156
179.6629,98.0603
178.1775,97.8515
178.2541,97.3069
Z" /> 
<path style="fill:#000000; fill-opacity:1.0000; 
stroke:#000000; stroke-width:0.0000; stroke-opacity:1; 
stroke-linecap:round; stroke-linejoin:round;fill-rule:evenodd;"
d="M 179.6281,98.3079
179.5516,98.8525
178.0662,98.6437
178.1427,98.0991
Z" /> 
<path style="fill:#000000; fill-opacity:1.0000; 
stroke:#000000; stroke-width:0.0000; stroke-opacity:1; 
stroke-linecap:round; stroke-linejoin:round;fill-rule:evenodd;"
d="M 179.5168,99.1001
179.4402,99.6447
177.9548,99.4360
178.0314,98.8913
Z" /> 
<path style="fill:#000000; fill-opacity:1.0000; 
stroke:#000000; stroke-width:0.0000; stroke-opacity:1; 
stroke-linecap:round; stroke-linejoin:round;fill-rule:evenodd;"
d="M 179.4055,99.8923
179.3289,100.4369
177.8435,100.2282
177.9200,99.6835
Z" /> 
<path style="fill:#000000; fill-opacity:1.0000; 
stroke:#000000; stroke-width:0.0000; stroke-opacity:1; 
stroke-linecap:round; stroke-linejoin:round;fill-rule:evenodd;"
d="M 179.2941,100.6845
179.2176,101.2292
177.7322,101.0204
177.8087,100.4757
Z" /> 
<path style="fill:#000000; fill-opacity:1.0000; 
stroke:#000000; stroke-width:0.0000; stroke-opacity:1; 
stroke-linecap:round; stroke-linejoin:round;fill-rule:evenodd;"
d="M 179.7921,101.9915
180.3367,102.0681
180.1279,103.5535
179.5833,103.4769
Z" /> 
<path style="fill:#000000; fill-opacity:1.0000; 
stroke:#000000; stroke-width:0.0000; stroke-opacity:1; 
stroke-linecap:round; stroke-linejoin:round;fill-rule:evenodd;"
d="M 180.5843,102.1029
181.1289,102.1794
180.9202,103.6648
180.3755,103.5883
Z" /> 
<path style="fill:#000000; fill-opacity:1.0000; 
stroke:#000000; stroke-width:0.0000; stroke-opacity:1; 
stroke-linecap:round; stroke-linejoin:round;fill-rule:evenodd;"
d="M 181.3765,102.2142
181.9211,102.2907
181.7124,103.7762
181.1677,103.6996
Z" /> 
<path style="fill:#000000; fill-opacity:1.0000; 
stroke:#000000; stroke-width:0.0000; stroke-opacity:1; 
stroke-linecap:round; stroke-linejoin:round;fill-rule:evenodd;"
d="M 182.1687,102.3255
182.7133,102.4021
182.5046,103.8875
181.9599,103.8109
Z" /> 
<path style="fill:#000000; fill-opacity:1.0000; 
stroke:#000000; stroke-width:0.0000; stroke-opacity:1; 
stroke-linecap:round; stroke-linejoin:round;fill-rule:evenodd;"
d="M 182.9609,102.4369
183.5056,102.5134
183.2968,103.9988
182.7522,103.9223
Z" /> 
<path style="fill:#000000; fill-opacity:1.0000; 
stroke:#000000; stroke-width:0.0000; stroke-opacity:1; 
stroke-linecap:round; stroke-linejoin:round;fill-rule:evenodd;"
d="M 183.7531,102.5482
184.2978,102.6248
184.0890,104.1102
183.5444,104.0336
Z" /> 
<path style="fill:#000000; fill-opacity:1.0000; 
stroke:#000000; stroke-width:0.0000; stroke-opacity:1; 
stroke-linecap:round; stroke-linejoin:round;fill-rule:evenodd;"
d="M 184.5453,102.6596
185.0900,102.7361
184.8812,104.2215
184.3366,104.1450
Z" /> 
<path style="fill:#000000; fill-opacity:1.0000; 
stroke:#000000; stroke-width:0.0000; stroke-opacity:1; 
stroke-linecap:round; stroke-linejoin:round;fill-rule:evenodd;"
d="M 185.3376,102.7709
185.8822,102.8474
185.6734,104.3328
185.1288,104.2563
Z" /> 
<path style="fill:#000000; fill-opacity:1.0000; 
stroke:#000000; stroke-width:0.0000; stroke-opacity:1; 
stroke-linecap:round; stroke-linejoin:round;fill-rule:evenodd;"
d="M 186.1298,102.8822
186.6744,102.9588
186.4657,104.4442
185.9210,104.3676
Z" /> 
<path style="fill:#000000; fill-opacity:1.0000; 
stroke:#000000; stroke-width:0.0000; stroke-opacity:1; 
stroke-linecap:round; stroke-linejoin:round;fill-rule:evenodd;"
d="M 186.9220,102.9936
187.4666,103.0701
187.2579,104.5555
186.7132,104.4790
Z" /> 
<path style="fill:#000000; fill-opacity:1.0000; 
stroke:#000000; stroke-width:0.0000; stroke-opacity:1; 
stroke-linecap:round; stroke-linejoin:round;fill-rule:evenodd;"
d="M 187.7142,103.1049
188.2588,103.1815
188.0501,104.6669
187.5054,104.5903
Z" /> 
</g>
<g >
</g>
<g style="fill:#000000; fill-opacity:1.0000; 
stroke:#000000; stroke-width:0.0000; stroke-opacity:1; 
stroke-linecap:round; stroke-linejoin:round;">
<path style="fill:#000000; fill-opacity:1.0000; 
stroke:#000000; stroke-width:0.0000; stroke-opacity:1; 
stroke-linecap:round; stroke-linejoin:round;fill-rule:evenodd;"
d="M 189.9320,88.4423
189.8399,88.4102
189.7671,88.3452
189.7248,88.2574
189.7192,88.1600
189.7888,87.6649
189.8210,87.5728
189.8859,87.5000
189.9738,87.4576
190.0712,87.4521
191.0119,87.5843
191.1040,87.6165
191.1768,87.6814
191.2192,87.7693
191.2247,87.8667
191.1551,88.3618
191.1230,88.4539
191.0580,88.5267
190.9702,88.5690
190.8728,88.5746
Z" /> 
<path style="fill:#000000; fill-opacity:1.0000; 
stroke:#000000; stroke-width:0.0000; stroke-opacity:1; 
stroke-linecap:round; stroke-linejoin:round;fill-rule:evenodd;"
d="M 190.1964,86.5608
190.1043,86.5287
190.0316,86.4637
189.9892,86.3759
189.9837,86.2785
190.0532,85.7833
190.0854,85.6912
190.1504,85.6185
190.2382,85.5761
190.3356,85.5706
191.2764,85.7028
191.3685,85.7349
191.4412,85.7999
191.4836,85.8878
191.4891,85.9851
191.4196,86.4803
191.3874,86.5724
191.3224,86.6451
191.2346,86.6875
191.1372,86.6930
Z" /> 
</g>
<g >
</g>
<g style="fill:#000000; fill-opacity:1.0000; 
stroke:#000000; stroke-width:0.0000; stroke-opacity:1; 
stroke-linecap:round; stroke-linejoin:round;">
<path style="fill:#000000; fill-opacity:1.0000; 
stroke:#000000; stroke-width:0.0000; stroke-opacity:1; 
stroke-linecap:round; stroke-linejoin:round;fill-rule:evenodd;"
d="M 184.6647,87.8031
184.8317,86.6147
186.2181,86.8096
186.0511,87.9979
Z" /> 
<path style="fill:#000000; fill-opacity:1.0000; 
stroke:#000000; stroke-width:0.0000; stroke-opacity:1; 
stroke-linecap:round; stroke-linejoin:round;fill-rule:evenodd;"
d="M 186.8433,88.1092
187.0103,86.9209
188.3967,87.1158
188.2297,88.3041
Z" /> 
<path style="fill:#000000; fill-opacity:1.0000; 
stroke:#000000; stroke-width:0.0000; stroke-opacity:1; 
stroke-linecap:round; stroke-linejoin:round;fill-rule:evenodd;"
d="M 187.0799,86.4258
187.2469,85.2375
188.6333,85.4323
188.4663,86.6206
Z" /> 
<path style="fill:#000000; fill-opacity:1.0000; 
stroke:#000000; stroke-width:0.0000; stroke-opacity:1; 
stroke-linecap:round; stroke-linejoin:round;fill-rule:evenodd;"
d="M 184.9013,86.1196
185.0683,84.9313
186.4547,85.1261
186.2877,86.3144
Z" /> 
</g>
<g >
</g>
<g >
</g>
<g >
</g>
<g >
</g>
<g >
</g>
<g >
</g>
<g >
</g>
<g >
</g>
<g >
</g>
<g >
</g>
<g >
</g>
</g> 
</svg>
