<?xml version="1.0" standalone="no"?>
 <!DOCTYPE svg PUBLIC "-//W3C//DTD SVG 1.1//EN" 
 "http://www.w3.org/Graphics/SVG/1.1/DTD/svg11.dtd"> 
<svg
  xmlns:svg="http://www.w3.org/2000/svg"
  xmlns="http://www.w3.org/2000/svg"
  xmlns:xlink="http://www.w3.org/1999/xlink"
  version="1.1"
  width="297.0022mm" height="210.0072mm" viewBox="0.0000 0.0000 297.0022 210.0072">
<title>SVG Image created as TCC-PCB-F_Silkscreen.svg date 2023/03/16 17:04:14 </title>
  <desc>Image generated by PCBNEW </desc>
<g style="fill:#000000; fill-opacity:1.0000;stroke:#000000; stroke-opacity:1.0000;
stroke-linecap:round; stroke-linejoin:round;"
 transform="translate(0 0) scale(1 1)">
</g>
<g style="fill:#000000; fill-opacity:0.0; 
stroke:#000000; stroke-width:0.0000; stroke-opacity:1; 
stroke-linecap:round; stroke-linejoin:round;">
</g>
<g style="fill:#000000; fill-opacity:0.0; 
stroke:#000000; stroke-width:0.1500; stroke-opacity:1; 
stroke-linecap:round; stroke-linejoin:round;">
<g transform="rotate(-82.000000 175.4131 88.8692)">
<text x="175.4131" y="89.3692"
textLength="2.1274" font-size="1.3333" lengthAdjust="spacingAndGlyphs"
text-anchor="middle" opacity="0">R4</text>
</g>
<g class="stroked-text"><desc>R4</desc>
<path d="M175.7537 89.0854
L175.2357 89.3492
" />
<path d="M175.6741 89.6513
L174.6839 89.5121
" />
<path d="M174.6839 89.5121
L174.7369 89.1349
" />
<path d="M174.7369 89.1349
L174.7973 89.0472
" />
<path d="M174.7973 89.0472
L174.8511 89.0067
" />
<path d="M174.8511 89.0067
L174.9520 88.9728
" />
<path d="M174.9520 88.9728
L175.0935 88.9926
" />
<path d="M175.0935 88.9926
L175.1812 89.0530
" />
<path d="M175.1812 89.0530
L175.2217 89.1068
" />
<path d="M175.2217 89.1068
L175.2556 89.2078
" />
<path d="M175.2556 89.2078
L175.2026 89.5850
" />
<path d="M175.2128 88.1438
L175.8730 88.2366
" />
<path d="M174.8024 88.3266
L175.4766 88.6618
" />
<path d="M175.4766 88.6618
L175.5627 88.0488
" />
</g><g transform="rotate(32.000000 179.0341 107.9438)">
<text x="179.0341" y="108.4438"
textLength="2.1274" font-size="1.3333" lengthAdjust="spacingAndGlyphs"
text-anchor="middle" opacity="0">C7</text>
</g>
<g class="stroked-text"><desc>C7</desc>
<path d="M178.7485 108.0863
L178.6829 108.1014
" />
<path d="M178.6829 108.1014
L178.5365 108.0661
" />
<path d="M178.5365 108.0661
L178.4558 108.0156
" />
<path d="M178.4558 108.0156
L178.3599 107.8995
" />
<path d="M178.3599 107.8995
L178.3296 107.7683
" />
<path d="M178.3296 107.7683
L178.3396 107.6623
" />
<path d="M178.3396 107.6623
L178.4002 107.4755
" />
<path d="M178.4002 107.4755
L178.4759 107.3544
" />
<path d="M178.4759 107.3544
L178.6172 107.2181
" />
<path d="M178.6172 107.2181
L178.7081 107.1626
" />
<path d="M178.7081 107.1626
L178.8393 107.1323
" />
<path d="M178.8393 107.1323
L178.9857 107.1676
" />
<path d="M178.9857 107.1676
L179.0665 107.2180
" />
<path d="M179.0665 107.2180
L179.1624 107.3341
" />
<path d="M179.1624 107.3341
L179.1775 107.3998
" />
<path d="M179.5107 107.4956
L180.0760 107.8489
" />
<path d="M180.0760 107.8489
L179.1827 108.4698
" />
</g><g transform="rotate(-82.000000 192.0331 96.1992)">
<text x="192.0331" y="96.6992"
textLength="2.1274" font-size="1.3333" lengthAdjust="spacingAndGlyphs"
text-anchor="middle" opacity="0">R1</text>
</g>
<g class="stroked-text"><desc>R1</desc>
<path d="M192.3737 96.4154
L191.8557 96.6792
" />
<path d="M192.2941 96.9813
L191.3039 96.8421
" />
<path d="M191.3039 96.8421
L191.3569 96.4649
" />
<path d="M191.3569 96.4649
L191.4173 96.3772
" />
<path d="M191.4173 96.3772
L191.4711 96.3367
" />
<path d="M191.4711 96.3367
L191.5720 96.3028
" />
<path d="M191.5720 96.3028
L191.7135 96.3226
" />
<path d="M191.7135 96.3226
L191.8012 96.3830
" />
<path d="M191.8012 96.3830
L191.8417 96.4368
" />
<path d="M191.8417 96.4368
L191.8756 96.5378
" />
<path d="M191.8756 96.5378
L191.8226 96.9150
" />
<path d="M192.5062 95.4723
L192.4267 96.0382
" />
<path d="M192.4664 95.7552
L191.4762 95.6161
" />
<path d="M191.4762 95.6161
L191.6044 95.7303
" />
<path d="M191.6044 95.7303
L191.6854 95.8378
" />
<path d="M191.6854 95.8378
L191.7193 95.9388
" />
</g><g transform="rotate(12.000000 185.3229 73.5996)">
<text x="185.3229" y="74.0996"
textLength="4.1274" font-size="1.3333" lengthAdjust="spacingAndGlyphs"
text-anchor="middle" opacity="0">USB1</text>
</g>
<g class="stroked-text"><desc>USB1</desc>
<path d="M183.7543 72.6194
L183.5860 73.4112
" />
<path d="M183.5860 73.4112
L183.6128 73.5143
" />
<path d="M183.6128 73.5143
L183.6494 73.5708
" />
<path d="M183.6494 73.5708
L183.7327 73.6371
" />
<path d="M183.7327 73.6371
L183.9190 73.6767
" />
<path d="M183.9190 73.6767
L184.0221 73.6500
" />
<path d="M184.0221 73.6500
L184.0786 73.6133
" />
<path d="M184.0786 73.6133
L184.1449 73.5300
" />
<path d="M184.1449 73.5300
L184.3132 72.7382
" />
<path d="M184.5344 73.7589
L184.6643 73.8351
" />
<path d="M184.6643 73.8351
L184.8972 73.8847
" />
<path d="M184.8972 73.8847
L185.0002 73.8579
" />
<path d="M185.0002 73.8579
L185.0567 73.8212
" />
<path d="M185.0567 73.8212
L185.1231 73.7379
" />
<path d="M185.1231 73.7379
L185.1429 73.6448
" />
<path d="M185.1429 73.6448
L185.1161 73.5417
" />
<path d="M185.1161 73.5417
L185.0794 73.4852
" />
<path d="M185.0794 73.4852
L184.9962 73.4189
" />
<path d="M184.9962 73.4189
L184.8198 73.3327
" />
<path d="M184.8198 73.3327
L184.7365 73.2663
" />
<path d="M184.7365 73.2663
L184.6998 73.2098
" />
<path d="M184.6998 73.2098
L184.6730 73.1068
" />
<path d="M184.6730 73.1068
L184.6928 73.0136
" />
<path d="M184.6928 73.0136
L184.7592 72.9304
" />
<path d="M184.7592 72.9304
L184.8157 72.8937
" />
<path d="M184.8157 72.8937
L184.9188 72.8669
" />
<path d="M184.9188 72.8669
L185.1517 72.9164
" />
<path d="M185.1517 72.9164
L185.2815 72.9927
" />
<path d="M185.9376 73.5703
L186.0675 73.6466
" />
<path d="M186.0675 73.6466
L186.1042 73.7031
" />
<path d="M186.1042 73.7031
L186.1309 73.8061
" />
<path d="M186.1309 73.8061
L186.1012 73.9459
" />
<path d="M186.1012 73.9459
L186.0348 74.0291
" />
<path d="M186.0348 74.0291
L185.9784 74.0658
" />
<path d="M185.9784 74.0658
L185.8753 74.0926
" />
<path d="M185.8753 74.0926
L185.5027 74.0134
" />
<path d="M185.5027 74.0134
L185.7106 73.0352
" />
<path d="M185.7106 73.0352
L186.0366 73.1045
" />
<path d="M186.0366 73.1045
L186.1199 73.1709
" />
<path d="M186.1199 73.1709
L186.1566 73.2274
" />
<path d="M186.1566 73.2274
L186.1834 73.3304
" />
<path d="M186.1834 73.3304
L186.1636 73.4236
" />
<path d="M186.1636 73.4236
L186.0972 73.5068
" />
<path d="M186.0972 73.5068
L186.0407 73.5435
" />
<path d="M186.0407 73.5435
L185.9376 73.5703
" />
<path d="M185.9376 73.5703
L185.6116 73.5010
" />
<path d="M186.9932 74.3302
L186.4343 74.2114
" />
<path d="M186.7137 74.2708
L186.9216 73.2926
" />
<path d="M186.9216 73.2926
L186.7988 73.4126
" />
<path d="M186.7988 73.4126
L186.6858 73.4859
" />
<path d="M186.6858 73.4859
L186.5828 73.5127
" />
</g><g transform="rotate(-82.000000 195.9759 92.4156)">
<text x="195.9759" y="92.9156"
textLength="2.1274" font-size="1.3333" lengthAdjust="spacingAndGlyphs"
text-anchor="middle" opacity="0">C4</text>
</g>
<g class="stroked-text"><desc>C4</desc>
<path d="M196.2222 92.6185
L196.2627 92.6723
" />
<path d="M196.2627 92.6723
L196.2900 92.8204
" />
<path d="M196.2900 92.8204
L196.2767 92.9147
" />
<path d="M196.2767 92.9147
L196.2097 93.0495
" />
<path d="M196.2097 93.0495
L196.1021 93.1306
" />
<path d="M196.1021 93.1306
L196.0012 93.1645
" />
<path d="M196.0012 93.1645
L195.8059 93.1851
" />
<path d="M195.8059 93.1851
L195.6645 93.1652
" />
<path d="M195.6645 93.1652
L195.4825 93.0916
" />
<path d="M195.4825 93.0916
L195.3948 93.0311
" />
<path d="M195.3948 93.0311
L195.3137 92.9236
" />
<path d="M195.3137 92.9236
L195.2864 92.7755
" />
<path d="M195.2864 92.7755
L195.2997 92.6812
" />
<path d="M195.2997 92.6812
L195.3667 92.5463
" />
<path d="M195.3667 92.5463
L195.4205 92.5058
" />
<path d="M195.7756 91.6901
L196.4358 91.7829
" />
<path d="M195.3652 91.8729
L196.0394 92.2081
" />
<path d="M196.0394 92.2081
L196.1256 91.5951
" />
</g><g transform="rotate(-82.000000 181.3947 85.7783)">
<text x="181.3947" y="86.2783"
textLength="2.1274" font-size="1.3333" lengthAdjust="spacingAndGlyphs"
text-anchor="middle" opacity="0">C1</text>
</g>
<g class="stroked-text"><desc>C1</desc>
<path d="M181.6410 85.9812
L181.6815 86.0350
" />
<path d="M181.6815 86.0350
L181.7088 86.1830
" />
<path d="M181.7088 86.1830
L181.6955 86.2774
" />
<path d="M181.6955 86.2774
L181.6285 86.4122
" />
<path d="M181.6285 86.4122
L181.5209 86.4933
" />
<path d="M181.5209 86.4933
L181.4200 86.5272
" />
<path d="M181.4200 86.5272
L181.2247 86.5478
" />
<path d="M181.2247 86.5478
L181.0833 86.5279
" />
<path d="M181.0833 86.5279
L180.9013 86.4543
" />
<path d="M180.9013 86.4543
L180.8136 86.3938
" />
<path d="M180.8136 86.3938
L180.7325 86.2863
" />
<path d="M180.7325 86.2863
L180.7053 86.1382
" />
<path d="M180.7053 86.1382
L180.7185 86.0439
" />
<path d="M180.7185 86.0439
L180.7856 85.9090
" />
<path d="M180.7856 85.9090
L180.8393 85.8685
" />
<path d="M181.8678 85.0513
L181.7883 85.6172
" />
<path d="M181.8281 85.3342
L180.8378 85.1951
" />
<path d="M180.8378 85.1951
L180.9660 85.3093
" />
<path d="M180.9660 85.3093
L181.0471 85.4168
" />
<path d="M181.0471 85.4168
L181.0810 85.5178
" />
</g><g transform="rotate(-82.000000 174.6586 93.1679)">
<text x="174.6586" y="93.6679"
textLength="2.1274" font-size="1.3333" lengthAdjust="spacingAndGlyphs"
text-anchor="middle" opacity="0">C5</text>
</g>
<g class="stroked-text"><desc>C5</desc>
<path d="M174.9049 93.3709
L174.9454 93.4246
" />
<path d="M174.9454 93.4246
L174.9727 93.5727
" />
<path d="M174.9727 93.5727
L174.9594 93.6670
" />
<path d="M174.9594 93.6670
L174.8924 93.8019
" />
<path d="M174.8924 93.8019
L174.7848 93.8829
" />
<path d="M174.7848 93.8829
L174.6839 93.9168
" />
<path d="M174.6839 93.9168
L174.4886 93.9375
" />
<path d="M174.4886 93.9375
L174.3472 93.9176
" />
<path d="M174.3472 93.9176
L174.1652 93.8439
" />
<path d="M174.1652 93.8439
L174.0775 93.7835
" />
<path d="M174.0775 93.7835
L173.9964 93.6760
" />
<path d="M173.9964 93.6760
L173.9691 93.5279
" />
<path d="M173.9691 93.5279
L173.9824 93.4336
" />
<path d="M173.9824 93.4336
L174.0494 93.2987
" />
<path d="M174.0494 93.2987
L174.1032 93.2582
" />
<path d="M174.1348 92.3490
L174.0686 92.8205
" />
<path d="M174.0686 92.8205
L174.5335 92.9340
" />
<path d="M174.5335 92.9340
L174.4930 92.8802
" />
<path d="M174.4930 92.8802
L174.4591 92.7792
" />
<path d="M174.4591 92.7792
L174.4922 92.5435
" />
<path d="M174.4922 92.5435
L174.5526 92.4558
" />
<path d="M174.5526 92.4558
L174.6064 92.4153
" />
<path d="M174.6064 92.4153
L174.7073 92.3813
" />
<path d="M174.7073 92.3813
L174.9431 92.4145
" />
<path d="M174.9431 92.4145
L175.0308 92.4749
" />
<path d="M175.0308 92.4749
L175.0713 92.5287
" />
<path d="M175.0713 92.5287
L175.1052 92.6296
" />
<path d="M175.1052 92.6296
L175.0721 92.8654
" />
<path d="M175.0721 92.8654
L175.0117 92.9531
" />
<path d="M175.0117 92.9531
L174.9579 92.9936
" />
</g><g transform="rotate(22.000000 187.8052 109.0049)">
<text x="187.8052" y="109.5049"
textLength="2.1274" font-size="1.3333" lengthAdjust="spacingAndGlyphs"
text-anchor="middle" opacity="0">C6</text>
</g>
<g class="stroked-text"><desc>C6</desc>
<path d="M187.5487 109.1948
L187.4867 109.2211
" />
<path d="M187.4867 109.2211
L187.3364 109.2118
" />
<path d="M187.3364 109.2118
L187.2481 109.1761
" />
<path d="M187.2481 109.1761
L187.1335 109.0784
" />
<path d="M187.1335 109.0784
L187.0808 108.9545
" />
<path d="M187.0808 108.9545
L187.0724 108.8483
" />
<path d="M187.0724 108.8483
L187.0996 108.6539
" />
<path d="M187.0996 108.6539
L187.1531 108.5214
" />
<path d="M187.1531 108.5214
L187.2686 108.3626
" />
<path d="M187.2686 108.3626
L187.3484 108.2922
" />
<path d="M187.3484 108.2922
L187.4724 108.2396
" />
<path d="M187.4724 108.2396
L187.6227 108.2489
" />
<path d="M187.6227 108.2489
L187.7110 108.2846
" />
<path d="M187.7110 108.2846
L187.8256 108.3823
" />
<path d="M187.8256 108.3823
L187.8519 108.4443
" />
<path d="M188.6823 108.6770
L188.5057 108.6057
" />
<path d="M188.5057 108.6057
L188.3996 108.6142
" />
<path d="M188.3996 108.6142
L188.3376 108.6405
" />
<path d="M188.3376 108.6405
L188.1958 108.7373
" />
<path d="M188.1958 108.7373
L188.0803 108.8960
" />
<path d="M188.0803 108.8960
L187.9376 109.2492
" />
<path d="M187.9376 109.2492
L187.9460 109.3554
" />
<path d="M187.9460 109.3554
L187.9724 109.4174
" />
<path d="M187.9724 109.4174
L188.0428 109.4972
" />
<path d="M188.0428 109.4972
L188.2194 109.5685
" />
<path d="M188.2194 109.5685
L188.3256 109.5601
" />
<path d="M188.3256 109.5601
L188.3876 109.5338
" />
<path d="M188.3876 109.5338
L188.4674 109.4633
" />
<path d="M188.4674 109.4633
L188.5566 109.2425
" />
<path d="M188.5566 109.2425
L188.5481 109.1364
" />
<path d="M188.5481 109.1364
L188.5218 109.0744
" />
<path d="M188.5218 109.0744
L188.4513 108.9946
" />
<path d="M188.4513 108.9946
L188.2747 108.9232
" />
<path d="M188.2747 108.9232
L188.1686 108.9317
" />
<path d="M188.1686 108.9317
L188.1066 108.9580
" />
<path d="M188.1066 108.9580
L188.0268 109.0285
" />
</g><text x="194.7300" y="73.3225"
textLength="1.9845" font-size="1.3333" lengthAdjust="spacingAndGlyphs"
text-anchor="middle" opacity="0">F1</text>
<g class="stroked-text"><desc>F1</desc>
<path d="M194.3967 72.6661
L194.0633 72.6661
" />
<path d="M194.0633 73.1899
L194.0633 72.1899
" />
<path d="M194.0633 72.1899
L194.5395 72.1899
" />
<path d="M195.4443 73.1899
L194.8729 73.1899
" />
<path d="M195.1586 73.1899
L195.1586 72.1899
" />
<path d="M195.1586 72.1899
L195.0633 72.3327
" />
<path d="M195.0633 72.3327
L194.9681 72.4280
" />
<path d="M194.9681 72.4280
L194.8729 72.4756
" />
</g><g transform="rotate(-82.000000 186.6278 81.7896)">
<text x="186.6278" y="82.2896"
textLength="2.1274" font-size="1.3333" lengthAdjust="spacingAndGlyphs"
text-anchor="middle" opacity="0">R3</text>
</g>
<g class="stroked-text"><desc>R3</desc>
<path d="M186.9684 82.0058
L186.4505 82.2696
" />
<path d="M186.8889 82.5717
L185.8986 82.4325
" />
<path d="M185.8986 82.4325
L185.9517 82.0552
" />
<path d="M185.9517 82.0552
L186.0121 81.9676
" />
<path d="M186.0121 81.9676
L186.0658 81.9270
" />
<path d="M186.0658 81.9270
L186.1668 81.8931
" />
<path d="M186.1668 81.8931
L186.3082 81.9130
" />
<path d="M186.3082 81.9130
L186.3959 81.9734
" />
<path d="M186.3959 81.9734
L186.4365 82.0272
" />
<path d="M186.4365 82.0272
L186.4704 82.1281
" />
<path d="M186.4704 82.1281
L186.4173 82.5054
" />
<path d="M186.0246 81.5365
L186.1107 80.9235
" />
<path d="M186.1107 80.9235
L186.4416 81.3066
" />
<path d="M186.4416 81.3066
L186.4614 81.1651
" />
<path d="M186.4614 81.1651
L186.5219 81.0775
" />
<path d="M186.5219 81.0775
L186.5756 81.0369
" />
<path d="M186.5756 81.0369
L186.6766 81.0030
" />
<path d="M186.6766 81.0030
L186.9124 81.0362
" />
<path d="M186.9124 81.0362
L187.0000 81.0966
" />
<path d="M187.0000 81.0966
L187.0406 81.1504
" />
<path d="M187.0406 81.1504
L187.0745 81.2513
" />
<path d="M187.0745 81.2513
L187.0347 81.5342
" />
<path d="M187.0347 81.5342
L186.9743 81.6219
" />
<path d="M186.9743 81.6219
L186.9205 81.6624
" />
</g><g transform="rotate(-82.000000 180.9530 80.8425)">
<text x="180.9530" y="81.3425"
textLength="2.1274" font-size="1.3333" lengthAdjust="spacingAndGlyphs"
text-anchor="middle" opacity="0">R2</text>
</g>
<g class="stroked-text"><desc>R2</desc>
<path d="M181.2936 81.0587
L180.7757 81.3225
" />
<path d="M181.2141 81.6246
L180.2238 81.4854
" />
<path d="M180.2238 81.4854
L180.2768 81.1081
" />
<path d="M180.2768 81.1081
L180.3373 81.0205
" />
<path d="M180.3373 81.0205
L180.3910 80.9799
" />
<path d="M180.3910 80.9799
L180.4920 80.9460
" />
<path d="M180.4920 80.9460
L180.6334 80.9659
" />
<path d="M180.6334 80.9659
L180.7211 81.0263
" />
<path d="M180.7211 81.0263
L180.7617 81.0801
" />
<path d="M180.7617 81.0801
L180.7956 81.1810
" />
<path d="M180.7956 81.1810
L180.7425 81.5583
" />
<path d="M180.4507 80.5555
L180.4102 80.5017
" />
<path d="M180.4102 80.5017
L180.3763 80.4008
" />
<path d="M180.3763 80.4008
L180.4094 80.1650
" />
<path d="M180.4094 80.1650
L180.4698 80.0773
" />
<path d="M180.4698 80.0773
L180.5236 80.0368
" />
<path d="M180.5236 80.0368
L180.6245 80.0029
" />
<path d="M180.6245 80.0029
L180.7188 80.0162
" />
<path d="M180.7188 80.0162
L180.8537 80.0832
" />
<path d="M180.8537 80.0832
L181.3400 80.7286
" />
<path d="M181.3400 80.7286
L181.4262 80.1156
" />
</g><g transform="rotate(8.000000 192.8917 86.0164)">
<text x="192.8917" y="86.5164"
textLength="3.2226" font-size="1.3333" lengthAdjust="spacingAndGlyphs"
text-anchor="middle" opacity="0">SW1</text>
</g>
<g class="stroked-text"><desc>SW1</desc>
<path d="M191.5268 86.1475
L191.6617 86.2145
" />
<path d="M191.6617 86.2145
L191.8975 86.2476
" />
<path d="M191.8975 86.2476
L191.9984 86.2137
" />
<path d="M191.9984 86.2137
L192.0522 86.1732
" />
<path d="M192.0522 86.1732
L192.1126 86.0855
" />
<path d="M192.1126 86.0855
L192.1258 85.9912
" />
<path d="M192.1258 85.9912
L192.0919 85.8903
" />
<path d="M192.0919 85.8903
L192.0514 85.8365
" />
<path d="M192.0514 85.8365
L191.9637 85.7761
" />
<path d="M191.9637 85.7761
L191.7817 85.7024
" />
<path d="M191.7817 85.7024
L191.6941 85.6420
" />
<path d="M191.6941 85.6420
L191.6535 85.5882
" />
<path d="M191.6535 85.5882
L191.6196 85.4873
" />
<path d="M191.6196 85.4873
L191.6329 85.3930
" />
<path d="M191.6329 85.3930
L191.6933 85.3053
" />
<path d="M191.6933 85.3053
L191.7471 85.2648
" />
<path d="M191.7471 85.2648
L191.8480 85.2309
" />
<path d="M191.8480 85.2309
L192.0838 85.2640
" />
<path d="M192.0838 85.2640
L192.2186 85.3310
" />
<path d="M192.5553 85.3303
L192.6519 86.3537
" />
<path d="M192.6519 86.3537
L192.9400 85.6729
" />
<path d="M192.9400 85.6729
L193.0292 86.4067
" />
<path d="M193.0292 86.4067
L193.4041 85.4496
" />
<path d="M194.1609 86.5658
L193.5951 86.4862
" />
<path d="M193.8780 86.5260
L194.0172 85.5357
" />
<path d="M194.0172 85.5357
L193.9030 85.6639
" />
<path d="M193.9030 85.6639
L193.7954 85.7450
" />
<path d="M193.7954 85.7450
L193.6945 85.7789
" />
</g><g transform="rotate(-82.000000 191.7663 100.9487)">
<text x="191.7663" y="101.4487"
textLength="2.1274" font-size="1.3333" lengthAdjust="spacingAndGlyphs"
text-anchor="middle" opacity="0">C3</text>
</g>
<g class="stroked-text"><desc>C3</desc>
<path d="M192.0126 101.1516
L192.0532 101.2054
" />
<path d="M192.0532 101.2054
L192.0805 101.3535
" />
<path d="M192.0805 101.3535
L192.0672 101.4478
" />
<path d="M192.0672 101.4478
L192.0002 101.5826
" />
<path d="M192.0002 101.5826
L191.8926 101.6637
" />
<path d="M191.8926 101.6637
L191.7917 101.6976
" />
<path d="M191.7917 101.6976
L191.5964 101.7182
" />
<path d="M191.5964 101.7182
L191.4549 101.6984
" />
<path d="M191.4549 101.6984
L191.2729 101.6247
" />
<path d="M191.2729 101.6247
L191.1853 101.5643
" />
<path d="M191.1853 101.5643
L191.1042 101.4567
" />
<path d="M191.1042 101.4567
L191.0769 101.3086
" />
<path d="M191.0769 101.3086
L191.0902 101.2143
" />
<path d="M191.0902 101.2143
L191.1572 101.0795
" />
<path d="M191.1572 101.0795
L191.2110 101.0389
" />
<path d="M191.1631 100.6956
L191.2492 100.0826
" />
<path d="M191.2492 100.0826
L191.5801 100.4657
" />
<path d="M191.5801 100.4657
L191.6000 100.3242
" />
<path d="M191.6000 100.3242
L191.6604 100.2365
" />
<path d="M191.6604 100.2365
L191.7142 100.1960
" />
<path d="M191.7142 100.1960
L191.8151 100.1621
" />
<path d="M191.8151 100.1621
L192.0509 100.1952
" />
<path d="M192.0509 100.1952
L192.1386 100.2557
" />
<path d="M192.1386 100.2557
L192.1791 100.3094
" />
<path d="M192.1791 100.3094
L192.2130 100.4104
" />
<path d="M192.2130 100.4104
L192.1732 100.6933
" />
<path d="M192.1732 100.6933
L192.1128 100.7810
" />
<path d="M192.1128 100.7810
L192.0590 100.8215
" />
</g><g transform="rotate(8.000000 183.6775 105.0622)">
<text x="183.6775" y="105.5622"
textLength="2.1750" font-size="1.3333" lengthAdjust="spacingAndGlyphs"
text-anchor="middle" opacity="0">U1</text>
</g>
<g class="stroked-text"><desc>U1</desc>
<path d="M183.0111 104.3297
L182.8984 105.1313
" />
<path d="M182.8984 105.1313
L182.9323 105.2322
" />
<path d="M182.9323 105.2322
L182.9728 105.2860
" />
<path d="M182.9728 105.2860
L183.0605 105.3464
" />
<path d="M183.0605 105.3464
L183.2491 105.3729
" />
<path d="M183.2491 105.3729
L183.3501 105.3390
" />
<path d="M183.3501 105.3390
L183.4039 105.2985
" />
<path d="M183.4039 105.2985
L183.4643 105.2108
" />
<path d="M183.4643 105.2108
L183.5769 104.4092
" />
<path d="M184.4280 105.5386
L183.8622 105.4591
" />
<path d="M184.1451 105.4989
L184.2843 104.5086
" />
<path d="M184.2843 104.5086
L184.1701 104.6368
" />
<path d="M184.1701 104.6368
L184.0625 104.7179
" />
<path d="M184.0625 104.7179
L183.9616 104.7518
" />
</g><g transform="rotate(-82.000000 188.9405 86.8388)">
<text x="188.9405" y="87.3388"
textLength="2.1274" font-size="1.3333" lengthAdjust="spacingAndGlyphs"
text-anchor="middle" opacity="0">C2</text>
</g>
<g class="stroked-text"><desc>C2</desc>
<path d="M189.1868 87.0417
L189.2274 87.0955
" />
<path d="M189.2274 87.0955
L189.2546 87.2435
" />
<path d="M189.2546 87.2435
L189.2414 87.3379
" />
<path d="M189.2414 87.3379
L189.1743 87.4727
" />
<path d="M189.1743 87.4727
L189.0668 87.5538
" />
<path d="M189.0668 87.5538
L188.9658 87.5877
" />
<path d="M188.9658 87.5877
L188.7706 87.6083
" />
<path d="M188.7706 87.6083
L188.6291 87.5884
" />
<path d="M188.6291 87.5884
L188.4471 87.5148
" />
<path d="M188.4471 87.5148
L188.3594 87.4543
" />
<path d="M188.3594 87.4543
L188.2784 87.3468
" />
<path d="M188.2784 87.3468
L188.2511 87.1987
" />
<path d="M188.2511 87.1987
L188.2644 87.1044
" />
<path d="M188.2644 87.1044
L188.3314 86.9695
" />
<path d="M188.3314 86.9695
L188.3852 86.9290
" />
<path d="M188.4382 86.5518
L188.3977 86.4980
" />
<path d="M188.3977 86.4980
L188.3638 86.3970
" />
<path d="M188.3638 86.3970
L188.3969 86.1613
" />
<path d="M188.3969 86.1613
L188.4573 86.0736
" />
<path d="M188.4573 86.0736
L188.5111 86.0331
" />
<path d="M188.5111 86.0331
L188.6120 85.9992
" />
<path d="M188.6120 85.9992
L188.7064 86.0124
" />
<path d="M188.7064 86.0124
L188.8412 86.0794
" />
<path d="M188.8412 86.0794
L189.3275 86.7248
" />
<path d="M189.3275 86.7248
L189.4137 86.1118
" />
</g><g transform="rotate(8.000000 186.8280 84.0429)">
<text x="186.8280" y="84.5429"
textLength="1.9845" font-size="1.3333" lengthAdjust="spacingAndGlyphs"
text-anchor="middle" opacity="0">Y1</text>
</g>
<g class="stroked-text"><desc>Y1</desc>
<path d="M186.3716 83.8688
L186.3053 84.3404
" />
<path d="M186.1144 83.3037
L186.3716 83.8688
" />
<path d="M186.3716 83.8688
L186.7746 83.3965
" />
<path d="M187.4842 84.5061
L186.9183 84.4266
" />
<path d="M187.2013 84.4663
L187.3404 83.4760
" />
<path d="M187.3404 83.4760
L187.2263 83.6043
" />
<path d="M187.2263 83.6043
L187.1187 83.6853
" />
<path d="M187.1187 83.6853
L187.0177 83.7192
" />
</g></g>
<g style="fill:#000000; fill-opacity:0.0; 
stroke:#000000; stroke-width:0.1200; stroke-opacity:1; 
stroke-linecap:round; stroke-linejoin:round;">
<path d="M176.2875 89.2214
L176.3507 88.7717
" />
<path d="M177.7432 89.4260
L177.8064 88.9763
" />
<path d="M179.7564 107.2808
L179.3133 107.0039
" />
<path d="M180.5354 106.0342
L180.0923 105.7573
" />
<path d="M192.9075 96.5514
L192.9707 96.1017
" />
<path d="M194.3632 96.7560
L194.4264 96.3063
" />
</g>
<g style="fill:#000000; fill-opacity:0.0; 
stroke:#000000; stroke-width:0.1500; stroke-opacity:1; 
stroke-linecap:round; stroke-linejoin:round;">
<path d="M189.5112 72.4124
L188.3781 77.7433
" />
<path d="M181.9795 70.8115
L180.8464 76.1424
" />
<path d="M188.3781 77.7433
L180.8464 76.1424
" />
</g>
<g style="fill:#000000; fill-opacity:0.0; 
stroke:#000000; stroke-width:0.1200; stroke-opacity:1; 
stroke-linecap:round; stroke-linejoin:round;">
<path d="M195.0764 92.0253
L195.0037 92.5427
" />
<path d="M193.6207 91.8207
L193.5480 92.3382
" />
<path d="M182.2941 86.1685
L182.3669 85.6511
" />
<path d="M183.7498 86.3731
L183.8225 85.8556
" />
<path d="M175.5580 93.5582
L175.6307 93.0407
" />
<path d="M177.0137 93.7627
L177.0864 93.2453
" />
<path d="M184.7023 108.2373
L185.1867 108.4330
" />
<path d="M184.1516 109.6002
L184.6361 109.7960
" />
<path d="M194.1279 73.7325
L195.3321 73.7325
" />
<path d="M194.1279 75.5525
L195.3321 75.5525
" />
<path d="M185.6294 80.5199
L185.5662 80.9696
" />
<path d="M184.1738 80.3154
L184.1106 80.7651
" />
<path d="M183.4494 80.1599
L183.3862 80.6096
" />
<path d="M181.9938 79.9554
L181.9306 80.4051
" />
</g>
<g style="fill:#000000; fill-opacity:1.0000; 
stroke:#000000; stroke-width:0.0000; stroke-opacity:1; 
stroke-linecap:round; stroke-linejoin:round;">
<path style="fill:#000000; fill-opacity:1.0000; 
stroke:#000000; stroke-width:0.0000; stroke-opacity:1; 
stroke-linecap:round; stroke-linejoin:round;fill-rule:evenodd;"
d="M 138.0524,107.1384
138.0868,107.1419
138.1323,107.1480
138.1865,107.1560
138.2466,107.1656
138.3101,107.1764
138.3745,107.1877
138.4370,107.1993
138.4952,107.2105
138.5464,107.2211
138.5880,107.2304
138.6175,107.2381
138.6316,107.2434
138.6723,107.2750
138.6990,107.3149
138.7135,107.3658
138.7143,107.3716
138.7151,107.3788
138.7155,107.3867
138.7153,107.3958
138.7143,107.4072
138.7123,107.4214
138.7090,107.4394
138.7043,107.4619
138.6980,107.4896
138.6898,107.5234
138.6797,107.5640
138.6672,107.6122
138.6524,107.6687
138.6349,107.7345
138.6145,107.8102
138.5912,107.8966
138.5645,107.9945
138.5345,108.1047
138.5007,108.2280
138.4631,108.3651
138.4215,108.5168
138.3756,108.6839
138.3422,108.8056
138.3006,108.9567
138.2601,109.1036
138.2209,109.2454
138.1832,109.3812
138.1473,109.5100
138.1135,109.6310
138.0821,109.7434
138.0532,109.8460
138.0271,109.9382
138.0041,110.0190
137.9844,110.0874
137.9683,110.1426
137.9560,110.1837
137.9478,110.2098
137.9442,110.2197
137.9183,110.2517
137.8813,110.2791
137.8398,110.2982
137.8056,110.3048
137.7878,110.3038
137.7556,110.3001
137.7116,110.2942
137.6585,110.2864
137.5989,110.2770
137.5376,110.2669
137.4594,110.2534
137.3964,110.2416
137.3465,110.2309
137.3077,110.2205
137.2780,110.2097
137.2555,110.1977
137.2380,110.1839
137.2237,110.1675
137.2108,110.1484
137.1907,110.1024
137.1852,110.0712
137.1858,110.0610
137.1886,110.0436
137.1938,110.0182
137.2016,109.9840
137.2123,109.9404
137.2259,109.8865
137.2427,109.8218
137.2629,109.7453
137.2866,109.6565
137.3141,109.5545
137.3456,109.4387
137.3812,109.3083
137.4211,109.1625
137.4585,109.0265
137.7346,108.0224
137.6371,108.0053
137.5787,107.9935
137.5344,107.9806
137.5010,107.9647
137.4754,107.9442
137.4542,107.9174
137.4458,107.9038
137.4298,107.8730
137.4221,107.8478
137.4207,107.8204
137.4209,107.8144
137.4245,107.7827
137.4312,107.7537
137.4343,107.7452
137.4437,107.7308
137.4634,107.7055
137.4919,107.6711
137.5277,107.6292
137.5694,107.5815
137.6152,107.5298
137.6637,107.4756
137.7134,107.4208
137.7627,107.3669
137.8101,107.3158
137.8541,107.2690
137.8931,107.2283
137.9256,107.1953
137.9500,107.1719
137.9649,107.1595
137.9662,107.1587
137.9955,107.1463
138.0253,107.1385
138.0319,107.1377
Z" /> 
<path style="fill:#000000; fill-opacity:1.0000; 
stroke:#000000; stroke-width:0.0000; stroke-opacity:1; 
stroke-linecap:round; stroke-linejoin:round;fill-rule:evenodd;"
d="M 143.9651,108.1121
143.9635,108.1239
143.9596,108.1516
143.9536,108.1937
143.9458,108.2490
143.9363,108.3162
143.9253,108.3939
143.9129,108.4807
143.8995,108.5754
143.8851,108.6766
143.8700,108.7831
143.8633,108.8304
143.8480,108.9383
143.8335,109.0413
143.8199,109.1381
143.8074,109.2275
143.7961,109.3081
143.7864,109.3786
143.7783,109.4377
143.7720,109.4842
143.7677,109.5167
143.7656,109.5339
143.7654,109.5363
143.7729,109.5426
143.7938,109.5564
143.8264,109.5766
143.8691,109.6023
143.9201,109.6323
143.9777,109.6657
144.0379,109.7001
144.1004,109.7357
144.1580,109.7686
144.2090,109.7978
144.2517,109.8225
144.2844,109.8416
144.3053,109.8541
144.3128,109.8589
144.3053,109.8601
144.2825,109.8612
144.2463,109.8621
144.1988,109.8630
144.1420,109.8637
144.0778,109.8642
144.0326,109.8644
143.9625,109.8647
143.8965,109.8650
143.8370,109.8654
143.7863,109.8659
143.7469,109.8664
143.7211,109.8669
143.7135,109.8671
143.6780,109.8690
143.4254,110.5141
143.3860,110.6148
143.3483,110.7109
143.3127,110.8011
143.2799,110.8843
143.2503,110.9592
143.2244,111.0245
143.2026,111.0790
143.1855,111.1216
143.1736,111.1509
143.1673,111.1658
143.1664,111.1674
143.1624,111.1674
143.1628,111.1590
143.1658,111.1404
143.1711,111.1072
143.1784,111.0609
143.1874,111.0032
143.1980,110.9357
143.2099,110.8598
143.2227,110.7773
143.2364,110.6895
143.2506,110.5982
143.2652,110.5048
143.2797,110.4110
143.2941,110.3183
143.3081,110.2283
143.3214,110.1425
143.3337,110.0626
143.3449,109.9901
143.3547,109.9266
143.3629,109.8736
143.3691,109.8327
143.3732,109.8056
143.3749,109.7936
143.3750,109.7932
143.3675,109.7879
143.3466,109.7752
143.3138,109.7560
143.2708,109.7315
143.2192,109.7024
143.1608,109.6697
143.0973,109.6345
143.0905,109.6307
143.0272,109.5955
142.9695,109.5629
142.9190,109.5338
142.8774,109.5091
142.8460,109.4898
142.8266,109.4768
142.8207,109.4710
142.8210,109.4709
142.8328,109.4701
142.8598,109.4693
142.9001,109.4684
142.9515,109.4676
143.0120,109.4669
143.0795,109.4662
143.1466,109.4657
143.4577,109.4637
143.4674,109.4411
143.4719,109.4295
143.4818,109.4030
143.4968,109.3627
143.5162,109.3101
143.5397,109.2463
143.5668,109.1726
143.5970,109.0905
143.6298,109.0010
143.6647,108.9056
143.7014,108.8055
143.7113,108.7784
143.7483,108.6772
143.7839,108.5803
143.8174,108.4890
143.8484,108.4047
143.8765,108.3285
143.9012,108.2618
143.9220,108.2059
143.9383,108.1621
143.9499,108.1316
143.9560,108.1158
143.9567,108.1142
143.9680,108.0902
Z" /> 
<path style="fill:#000000; fill-opacity:1.0000; 
stroke:#000000; stroke-width:0.0000; stroke-opacity:1; 
stroke-linecap:round; stroke-linejoin:round;fill-rule:evenodd;"
d="M 142.2188,107.8385
142.2453,107.8406
142.2805,107.8447
142.3257,107.8508
142.3822,107.8592
142.4513,107.8700
142.5343,107.8834
142.6325,107.8997
142.6753,107.9068
142.7716,107.9231
142.8605,107.9385
142.9404,107.9528
143.0102,107.9657
143.0682,107.9769
143.1133,107.9863
143.1438,107.9934
143.1579,107.9978
143.1890,108.0185
143.2182,108.0488
143.2222,108.0541
143.2355,108.0740
143.2455,108.0931
143.2518,108.1135
143.2544,108.1372
143.2531,108.1661
143.2476,108.2023
143.2378,108.2477
143.2235,108.3045
143.2046,108.3745
143.1894,108.4290
143.1664,108.5102
143.1472,108.5748
143.1318,108.6232
143.1200,108.6558
143.1117,108.6728
143.1084,108.6757
143.0950,108.6746
143.0688,108.6709
143.0341,108.6653
143.0076,108.6606
142.9701,108.6543
142.9387,108.6499
142.9176,108.6478
142.9110,108.6481
142.9077,108.6567
142.9001,108.6811
142.8885,108.7202
142.8731,108.7732
142.8543,108.8390
142.8322,108.9166
142.8071,109.0052
142.7794,109.1037
142.7493,109.2112
142.7171,109.3267
142.6830,109.4493
142.6473,109.5779
142.6103,109.7117
142.5913,109.7803
142.5536,109.9169
142.5169,110.0493
142.4815,110.1764
142.4476,110.2973
142.4157,110.4110
142.3859,110.5165
142.3586,110.6127
142.3340,110.6987
142.3124,110.7734
142.2942,110.8359
142.2795,110.8852
142.2687,110.9202
142.2620,110.9399
142.2605,110.9436
142.2354,110.9740
142.1996,111.0008
142.1593,111.0201
142.1239,111.0277
142.1074,111.0267
142.0765,111.0230
142.0336,111.0171
141.9816,111.0092
141.9228,110.9999
141.8632,110.9900
141.8008,110.9791
141.7428,110.9685
141.6919,110.9587
141.6505,110.9503
141.6213,110.9437
141.6070,110.9395
141.5670,110.9140
141.5341,110.8772
141.5112,110.8337
141.5009,110.7880
141.5012,110.7689
141.5038,110.7570
141.5107,110.7294
141.5218,110.6871
141.5366,110.6311
141.5550,110.5624
141.5767,110.4821
141.6013,110.3911
141.6287,110.2904
141.6585,110.1811
141.6905,110.0641
141.7244,109.9405
141.7599,109.8112
141.7968,109.6773
141.8101,109.6289
141.8472,109.4941
141.8830,109.3640
141.9171,109.2394
141.9494,109.1214
141.9794,109.0110
142.0071,108.9090
142.0321,108.8166
142.0541,108.7346
142.0729,108.6641
142.0882,108.6060
142.0998,108.5613
142.1074,108.5309
142.1107,108.5159
142.1108,108.5144
142.1005,108.5112
142.0768,108.5061
142.0431,108.4997
142.0059,108.4934
141.9669,108.4867
141.9351,108.4806
141.9137,108.4757
141.9063,108.4730
141.9085,108.4616
141.9149,108.4361
141.9248,108.3990
141.9376,108.3526
141.9525,108.2995
141.9687,108.2422
141.9857,108.1830
142.0026,108.1245
142.0188,108.0692
142.0336,108.0194
142.0462,107.9777
142.0560,107.9466
142.0622,107.9285
142.0635,107.9256
142.0903,107.8902
142.1284,107.8611
142.1722,107.8423
142.1866,107.8390
142.1997,107.8380
Z" /> 
<path style="fill:#000000; fill-opacity:1.0000; 
stroke:#000000; stroke-width:0.0000; stroke-opacity:1; 
stroke-linecap:round; stroke-linejoin:round;fill-rule:evenodd;"
d="M 131.8176,106.0614
131.8335,106.0637
131.8646,106.0685
131.9093,106.0756
131.9655,106.0847
132.0316,106.0955
132.1057,106.1076
132.1860,106.1209
132.2706,106.1349
132.2814,106.1367
132.3837,106.1538
132.4703,106.1685
132.5427,106.1812
132.6024,106.1924
132.6508,106.2024
132.6894,106.2116
132.7196,106.2205
132.7428,106.2295
132.7605,106.2389
132.7743,106.2493
132.7854,106.2609
132.7954,106.2743
132.8017,106.2835
132.8135,106.3033
132.8219,106.3236
132.8266,106.3462
132.8275,106.3732
132.8244,106.4065
132.8170,106.4481
132.8052,106.5000
132.7888,106.5642
132.7675,106.6427
132.7637,106.6565
132.7465,106.7183
132.7309,106.7745
132.7173,106.8229
132.7064,106.8615
132.6987,106.8881
132.6950,106.9007
132.6947,106.9014
132.6859,106.9011
132.6634,106.8984
132.6304,106.8935
132.5904,106.8870
132.5869,106.8864
132.5424,106.8790
132.5120,106.8748
132.4930,106.8737
132.4825,106.8755
132.4776,106.8801
132.4767,106.8825
132.4739,106.8925
132.4667,106.9181
132.4556,106.9585
132.4406,107.0126
132.4221,107.0796
132.4004,107.1583
132.3757,107.2478
132.3482,107.3472
132.3184,107.4554
132.2864,107.5715
132.2525,107.6944
132.2170,107.8233
132.1801,107.9571
132.1636,108.0168
132.1223,108.1664
132.0829,108.3087
132.0455,108.4429
132.0105,108.5683
131.9779,108.6840
131.9482,108.7893
131.9214,108.8833
131.8978,108.9652
131.8777,109.0343
131.8612,109.0898
131.8486,109.1308
131.8402,109.1565
131.8364,109.1659
131.8154,109.1946
131.7923,109.2167
131.7652,109.2324
131.7319,109.2420
131.6905,109.2459
131.6391,109.2442
131.5756,109.2373
131.4980,109.2256
131.4680,109.2205
131.3908,109.2072
131.3287,109.1964
131.2798,109.1875
131.2421,109.1801
131.2138,109.1736
131.1928,109.1676
131.1772,109.1615
131.1651,109.1548
131.1545,109.1471
131.1435,109.1377
131.1395,109.1342
131.1031,109.0926
131.0819,109.0452
131.0769,108.9952
131.0795,108.9831
131.0863,108.9553
131.0973,108.9128
131.1121,108.8567
131.1304,108.7879
131.1520,108.7074
131.1766,108.6163
131.2039,108.5155
131.2337,108.4061
131.2656,108.2890
131.2995,108.1654
131.3350,108.0361
131.3718,107.9022
131.3851,107.8542
131.4222,107.7195
131.4579,107.5893
131.4920,107.4647
131.5241,107.3467
131.5540,107.2362
131.5815,107.1342
131.6063,107.0417
131.6282,106.9596
131.6468,106.8890
131.6619,106.8308
131.6732,106.7859
131.6806,106.7555
131.6837,106.7403
131.6836,106.7388
131.6724,106.7350
131.6479,106.7296
131.6144,106.7235
131.5883,106.7194
131.5505,106.7133
131.5186,106.7077
131.4970,106.7033
131.4902,106.7014
131.4900,106.6924
131.4940,106.6691
131.5016,106.6340
131.5121,106.5895
131.5249,106.5379
131.5394,106.4817
131.5549,106.4233
131.5708,106.3650
131.5865,106.3093
131.6013,106.2586
131.6146,106.2152
131.6257,106.1816
131.6326,106.1635
131.6595,106.1213
131.6983,106.0887
131.7455,106.0677
131.7973,106.0602
Z" /> 
<path style="fill:#000000; fill-opacity:1.0000; 
stroke:#000000; stroke-width:0.0000; stroke-opacity:1; 
stroke-linecap:round; stroke-linejoin:round;fill-rule:evenodd;"
d="M 136.4640,106.8740
136.5098,106.8789
136.5639,106.8859
136.6237,106.8946
136.6863,106.9047
136.7487,106.9155
136.8083,106.9266
136.8621,106.9376
136.9074,106.9480
136.9412,106.9572
136.9605,106.9647
136.9947,106.9927
137.0224,107.0315
137.0404,107.0754
137.0454,107.1178
137.0429,107.1311
137.0359,107.1600
137.0248,107.2035
137.0099,107.2607
136.9914,107.3306
136.9695,107.4120
136.9447,107.5040
136.9171,107.6056
136.8870,107.7157
136.8547,107.8334
136.8205,107.9576
136.7846,108.0873
136.7474,108.2215
136.7340,108.2696
136.6965,108.4043
136.6603,108.5344
136.6257,108.6588
136.5931,108.7767
136.5625,108.8870
136.5344,108.9887
136.5089,109.0809
136.4864,109.1627
136.4671,109.2330
136.4512,109.2909
136.4391,109.3354
136.4311,109.3656
136.4273,109.3804
136.4270,109.3818
136.4362,109.3840
136.4564,109.3879
136.4661,109.3896
136.4893,109.3928
136.5013,109.3903
136.5078,109.3800
136.5103,109.3726
136.5138,109.3604
136.5216,109.3330
136.5331,109.2918
136.5481,109.2382
136.5660,109.1737
136.5866,109.0998
136.6093,109.0179
136.6338,108.9294
136.6597,108.8359
136.6707,108.7962
136.6969,108.7017
136.7217,108.6122
136.7448,108.5291
136.7658,108.4537
136.7842,108.3876
136.7998,108.3320
136.8121,108.2883
136.8208,108.2579
136.8254,108.2422
136.8261,108.2403
136.8349,108.2411
136.8588,108.2444
136.8958,108.2500
136.9440,108.2576
137.0014,108.2669
137.0660,108.2775
137.1218,108.2868
137.2171,108.3032
137.2962,108.3176
137.3588,108.3300
137.4047,108.3404
137.4338,108.3486
137.4434,108.3527
137.4816,108.3835
137.5109,108.4239
137.5288,108.4692
137.5328,108.5146
137.5325,108.5175
137.5297,108.5302
137.5227,108.5580
137.5118,108.5996
137.4975,108.6535
137.4801,108.7181
137.4601,108.7921
137.4379,108.8739
137.4138,108.9620
137.3884,109.0550
137.3619,109.1514
137.3348,109.2498
137.3076,109.3486
137.2806,109.4464
137.2541,109.5417
137.2288,109.6330
137.2048,109.7189
137.1827,109.7978
137.1628,109.8684
137.1456,109.9291
137.1315,109.9784
137.1208,110.0149
137.1140,110.0371
137.1126,110.0412
137.0960,110.0798
137.0761,110.1071
137.0480,110.1295
137.0393,110.1349
137.0271,110.1421
137.0152,110.1481
137.0023,110.1528
136.9874,110.1562
136.9691,110.1580
136.9463,110.1582
136.9177,110.1567
136.8821,110.1533
136.8383,110.1478
136.7850,110.1403
136.7211,110.1305
136.6454,110.1183
136.5566,110.1036
136.4535,110.0863
136.3348,110.0663
136.2971,110.0599
136.1941,110.0425
136.0956,110.0257
136.0029,110.0098
135.9174,109.9952
135.8407,109.9819
135.7740,109.9703
135.7189,109.9607
135.6767,109.9532
135.6488,109.9480
135.6371,109.9457
135.6033,109.9307
135.5687,109.9048
135.5394,109.8732
135.5316,109.8617
135.5267,109.8539
135.5223,109.8465
135.5187,109.8388
135.5158,109.8299
135.5141,109.8192
135.5136,109.8059
135.5145,109.7891
135.5170,109.7682
135.5213,109.7423
135.5277,109.7107
135.5361,109.6726
135.5470,109.6273
135.5603,109.5740
135.5764,109.5118
135.5955,109.4401
135.6176,109.3581
135.6429,109.2649
135.6718,109.1599
135.7043,109.0423
135.7406,108.9113
135.7810,108.7661
135.8256,108.6059
135.8745,108.4300
135.8892,108.3772
135.9311,108.2270
135.9718,108.0809
136.0112,107.9399
136.0490,107.8049
136.0849,107.6768
136.1186,107.5564
136.1500,107.4448
136.1787,107.3427
136.2046,107.2512
136.2273,107.1711
136.2466,107.1034
136.2622,107.0488
136.2739,107.0085
136.2815,106.9832
136.2843,106.9743
136.3077,106.9363
136.3433,106.9035
136.3862,106.8800
136.4092,106.8729
136.4296,106.8719
Z" /> 
<path style="fill:#000000; fill-opacity:1.0000; 
stroke:#000000; stroke-width:0.0000; stroke-opacity:1; 
stroke-linecap:round; stroke-linejoin:round;fill-rule:evenodd;"
d="M 132.4399,107.9889
132.4548,107.9351
133.2495,107.9351
133.2571,107.9390
133.2748,107.9424
133.2957,107.9445
133.3130,107.9447
133.3198,107.9425
133.3220,107.9340
133.3285,107.9103
133.3388,107.8731
133.3525,107.8237
133.3691,107.7639
133.3882,107.6951
133.4094,107.6189
133.4322,107.5368
133.4431,107.4975
133.5665,107.0546
133.5314,107.0463
133.5095,107.0417
133.4966,107.0399
133.4953,107.0402
133.4926,107.0492
133.4859,107.0731
133.4756,107.1098
133.4624,107.1576
133.4466,107.2145
133.4289,107.2787
133.4097,107.3484
133.3896,107.4215
133.3690,107.4963
133.3486,107.5709
133.3287,107.6434
133.3100,107.7120
133.2928,107.7747
133.2778,107.8297
133.2655,107.8750
133.2564,107.9090
133.2509,107.9295
133.2495,107.9351
132.4548,107.9351
132.4777,107.8524
132.5155,107.7157
132.5532,107.5799
132.5904,107.4459
132.6269,107.3148
132.6623,107.1877
132.6963,107.0656
132.7287,106.9495
132.7592,106.8404
132.7876,106.7394
132.8134,106.6475
132.8364,106.5657
132.8565,106.4951
132.8731,106.4367
132.8862,106.3915
132.8953,106.3606
132.9002,106.3450
132.9008,106.3435
132.9269,106.3054
132.9626,106.2812
133.0092,106.2699
133.0158,106.2693
133.0304,106.2703
133.0604,106.2740
133.1042,106.2801
133.1603,106.2883
133.2271,106.2985
133.3029,106.3102
133.3860,106.3233
133.4750,106.3375
133.5682,106.3525
133.6640,106.3681
133.7607,106.3840
133.8568,106.3999
133.9507,106.4156
134.0407,106.4308
134.1252,106.4453
134.2027,106.4587
134.2715,106.4708
134.3300,106.4814
134.3765,106.4901
134.4096,106.4968
134.4276,106.5011
134.4279,106.5012
134.4663,106.5208
134.4912,106.5495
134.5012,106.5845
134.5014,106.5897
134.5012,106.5958
134.5005,106.6035
134.4991,106.6134
134.4967,106.6263
134.4931,106.6429
134.4883,106.6639
134.4819,106.6900
134.4739,106.7219
134.4639,106.7602
134.4519,106.8058
134.4377,106.8593
134.4209,106.9214
134.4016,106.9928
134.3794,107.0742
134.3542,107.1664
134.3258,107.2700
134.2940,107.3857
134.2587,107.5142
134.2196,107.6563
134.1765,107.8127
134.1292,107.9840
134.0777,108.1710
134.0512,108.2669
134.0024,108.4439
133.9579,108.6048
133.9176,108.7505
133.8812,108.8816
133.8486,108.9988
133.8195,109.1028
133.7937,109.1944
133.7711,109.2743
133.7514,109.3432
133.7344,109.4017
133.7199,109.4507
133.7078,109.4908
133.6977,109.5227
133.6895,109.5471
133.6831,109.5648
133.6781,109.5765
133.6744,109.5828
133.6722,109.5845
133.6605,109.5836
133.6335,109.5801
133.5931,109.5742
133.5412,109.5661
133.4795,109.5563
133.4099,109.5450
133.3343,109.5324
133.2846,109.5240
133.2065,109.5106
133.1337,109.4980
133.0681,109.4864
133.0113,109.4762
132.9651,109.4677
132.9313,109.4612
132.9117,109.4570
132.9073,109.4558
132.9085,109.4467
132.9138,109.4225
132.9231,109.3849
132.9357,109.3354
132.9514,109.2757
132.9697,109.2074
132.9902,109.1320
133.0124,109.0513
133.0165,109.0364
133.0390,108.9549
133.0598,108.8784
133.0785,108.8087
133.0946,108.7473
133.1078,108.6958
133.1175,108.6559
133.1235,108.6292
133.1253,108.6173
133.1252,108.6168
133.1128,108.6129
133.0915,108.6106
133.0899,108.6106
133.0609,108.6097
132.9468,109.0214
132.9241,109.1028
132.9027,109.1791
132.8831,109.2487
132.8656,109.3100
132.8508,109.3612
132.8392,109.4009
132.8311,109.4274
132.8271,109.4390
132.8269,109.4394
132.8173,109.4395
132.7929,109.4369
132.7557,109.4319
132.7080,109.4249
132.6517,109.4163
132.5891,109.4063
132.5222,109.3955
132.4532,109.3840
132.3842,109.3723
132.3172,109.3607
132.2545,109.3496
132.1981,109.3394
132.1501,109.3303
132.1128,109.3228
132.0880,109.3171
132.0781,109.3138
132.0780,109.3136
132.0802,109.3036
132.0867,109.2779
132.0973,109.2376
132.1118,109.1837
132.1297,109.1173
132.1509,109.0393
132.1750,108.9508
132.2018,108.8529
132.2310,108.7465
132.2622,108.6327
132.2953,108.5126
132.3299,108.3871
132.3657,108.2573
132.4024,108.1242
132.4391,107.9918
Z" /> 
<path style="fill:#000000; fill-opacity:1.0000; 
stroke:#000000; stroke-width:0.0000; stroke-opacity:1; 
stroke-linecap:round; stroke-linejoin:round;fill-rule:evenodd;"
d="M 140.5360,107.5549
140.5648,107.5583
140.6054,107.5639
140.6557,107.5713
140.7132,107.5800
140.7757,107.5898
140.8410,107.6003
140.9067,107.6110
140.9705,107.6217
141.0301,107.6319
141.0833,107.6412
141.1278,107.6493
141.1612,107.6559
141.1812,107.6605
141.1860,107.6622
141.1849,107.6714
141.1794,107.6957
141.1701,107.7335
141.1574,107.7833
141.1417,107.8434
141.1233,107.9124
141.1027,107.9886
141.0803,108.0704
141.0717,108.1017
141.0470,108.1909
141.0225,108.2795
140.9988,108.3654
140.9766,108.4461
140.9564,108.5195
140.9388,108.5832
140.9246,108.6349
140.9143,108.6724
140.9138,108.6745
140.8758,108.8134
140.9069,108.8213
140.9280,108.8254
140.9406,108.8255
140.9416,108.8250
140.9445,108.8161
140.9516,108.7919
140.9625,108.7538
140.9769,108.7031
140.9943,108.6411
141.0144,108.5693
141.0368,108.4891
141.0611,108.4017
141.0869,108.3086
141.1018,108.2549
141.1283,108.1591
141.1537,108.0682
141.1774,107.9835
141.1991,107.9064
141.2185,107.8383
141.2350,107.7807
141.2483,107.7348
141.2581,107.7021
141.2638,107.6840
141.2651,107.6808
141.2749,107.6802
141.2995,107.6823
141.3363,107.6867
141.3832,107.6931
141.4377,107.7010
141.4976,107.7101
141.5604,107.7200
141.6238,107.7303
141.6854,107.7407
141.7430,107.7508
141.7941,107.7601
141.8365,107.7684
141.8677,107.7753
141.8838,107.7797
141.9275,107.8032
141.9636,107.8388
141.9892,107.8824
142.0016,107.9302
142.0021,107.9539
141.9994,107.9675
141.9924,107.9966
141.9812,108.0401
141.9663,108.0970
141.9479,108.1662
141.9263,108.2466
141.9018,108.3372
141.8747,108.4369
141.8453,108.5446
141.8139,108.6592
141.7808,108.7797
141.7463,108.9050
141.7107,109.0340
141.6743,109.1656
141.6374,109.2988
141.6003,109.4324
141.5632,109.5655
141.5266,109.6970
141.4906,109.8257
141.4556,109.9506
141.4219,110.0706
141.3898,110.1846
141.3596,110.2916
141.3315,110.3906
141.3059,110.4803
141.2831,110.5598
141.2634,110.6279
141.2470,110.6837
141.2343,110.7260
141.2256,110.7537
141.2211,110.7658
141.2211,110.7659
141.2004,110.7935
141.1746,110.8183
141.1671,110.8238
141.1502,110.8336
141.1318,110.8409
141.1100,110.8455
141.0831,110.8475
141.0493,110.8467
141.0068,110.8430
140.9538,110.8364
140.8886,110.8267
140.8094,110.8139
140.7448,110.8031
140.6758,110.7914
140.6116,110.7805
140.5544,110.7708
140.5064,110.7626
140.4696,110.7564
140.4464,110.7524
140.4394,110.7513
140.4238,110.7446
140.4191,110.7372
140.4213,110.7273
140.4278,110.7020
140.4381,110.6628
140.4521,110.6108
140.4692,110.5475
140.4891,110.4742
140.5115,110.3922
140.5360,110.3029
140.5623,110.2076
140.5877,110.1155
140.6152,110.0160
140.6410,109.9214
140.6650,109.8329
140.6867,109.7520
140.7059,109.6800
140.7220,109.6181
140.7349,109.5677
140.7441,109.5300
140.7494,109.5066
140.7503,109.4986
140.7378,109.4934
140.7173,109.4893
140.6907,109.4859
140.5197,110.1081
140.4921,110.2085
140.4658,110.3039
140.4412,110.3931
140.4186,110.4747
140.3985,110.5475
140.3811,110.6100
140.3668,110.6612
140.3561,110.6995
140.3492,110.7238
140.3465,110.7327
140.3465,110.7327
140.3374,110.7324
140.3135,110.7293
140.2772,110.7238
140.2307,110.7164
140.1765,110.7075
140.1167,110.6974
140.0538,110.6865
139.9899,110.6753
139.9275,110.6642
139.8687,110.6535
139.8160,110.6437
139.7715,110.6352
139.7377,110.6283
139.7168,110.6236
139.7117,110.6220
139.6683,110.5938
139.6354,110.5536
139.6152,110.5045
139.6101,110.4718
139.6110,110.4618
139.6146,110.4424
139.6211,110.4132
139.6306,110.3737
139.6432,110.3233
139.6591,110.2615
139.6784,110.1877
139.7012,110.1016
139.7277,110.0025
139.7580,109.8899
139.7924,109.7632
139.8308,109.6221
139.8734,109.4659
139.9204,109.2941
139.9720,109.1062
139.9779,109.0846
140.0190,108.9350
140.0590,108.7895
140.0976,108.6490
140.1347,108.5144
140.1698,108.3867
140.2029,108.2668
140.2336,108.1556
140.2616,108.0540
140.2868,107.9629
140.3088,107.8833
140.3275,107.8160
140.3425,107.7621
140.3536,107.7224
140.3606,107.6978
140.3629,107.6900
140.3866,107.6397
140.4212,107.5988
140.4639,107.5697
140.5118,107.5550
140.5215,107.5540
Z" /> 
<path style="fill:#000000; fill-opacity:1.0000; 
stroke:#000000; stroke-width:0.0000; stroke-opacity:1; 
stroke-linecap:round; stroke-linejoin:round;fill-rule:evenodd;"
d="M 134.2154,107.9315
134.2231,107.9037
135.0454,107.9037
135.0528,107.9093
135.0651,107.9122
135.0785,107.9138
135.0896,107.9140
135.0992,107.9111
135.1080,107.9035
135.1166,107.8896
135.1260,107.8679
135.1367,107.8367
135.1495,107.7945
135.1652,107.7396
135.1845,107.6705
135.1965,107.6272
135.2149,107.5601
135.2314,107.4983
135.2454,107.4438
135.2565,107.3986
135.2642,107.3646
135.2680,107.3438
135.2680,107.3381
135.2552,107.3338
135.2334,107.3315
135.2314,107.3315
135.2020,107.3311
135.1237,107.6144
135.1052,107.6816
135.0882,107.7435
135.0734,107.7981
135.0612,107.8433
135.0521,107.8773
135.0467,107.8980
135.0454,107.9037
134.2231,107.9037
134.2653,107.7503
134.3119,107.5813
134.3553,107.4248
134.3951,107.2813
134.4315,107.1511
134.4642,107.0347
134.4931,106.9323
134.5182,106.8445
134.5393,106.7715
134.5563,106.7139
134.5692,106.6718
134.5777,106.6459
134.5813,106.6370
134.6126,106.5991
134.6542,106.5706
134.7006,106.5549
134.7146,106.5532
134.7298,106.5542
134.7604,106.5579
134.8049,106.5640
134.8616,106.5724
134.9290,106.5827
135.0054,106.5946
135.0893,106.6080
135.1790,106.6224
135.2730,106.6378
135.3696,106.6537
135.4672,106.6699
135.5643,106.6862
135.6591,106.7023
135.7502,106.7180
135.8359,106.7328
135.9146,106.7467
135.9848,106.7593
136.0447,106.7703
136.0928,106.7796
136.1276,106.7867
136.1473,106.7915
136.1502,106.7925
136.1743,106.8058
136.1923,106.8212
136.1948,106.8246
136.1998,106.8336
136.2036,106.8435
136.2059,106.8557
136.2066,106.8710
136.2052,106.8908
136.2017,106.9160
136.1958,106.9477
136.1872,106.9871
136.1757,107.0354
136.1610,107.0935
136.1429,107.1626
136.1212,107.2438
136.0955,107.3382
136.0657,107.4469
136.0316,107.5711
136.0263,107.5902
135.9974,107.6949
135.9694,107.7954
135.9429,107.8902
135.9181,107.9780
135.8955,108.0574
135.8755,108.1273
135.8583,108.1861
135.8445,108.2327
135.8344,108.2656
135.8283,108.2836
135.8272,108.2860
135.8110,108.3089
135.7870,108.3265
135.7508,108.3422
135.7481,108.3432
135.7298,108.3457
135.7020,108.3454
135.6836,108.3438
135.6535,108.3413
135.6359,108.3441
135.6264,108.3542
135.6209,108.3721
135.6213,108.3898
135.6280,108.3946
135.6816,108.4088
135.7199,108.4256
135.7448,108.4468
135.7581,108.4741
135.7617,108.5091
135.7616,108.5147
135.7591,108.5298
135.7524,108.5594
135.7420,108.6021
135.7283,108.6563
135.7116,108.7205
135.6925,108.7932
135.6713,108.8728
135.6484,108.9579
135.6242,109.0470
135.5993,109.1385
135.5739,109.2309
135.5486,109.3227
135.5236,109.4123
135.4995,109.4984
135.4767,109.5793
135.4555,109.6535
135.4364,109.7195
135.4199,109.7758
135.4062,109.8209
135.3959,109.8533
135.3894,109.8714
135.3874,109.8748
135.3772,109.8734
135.3517,109.8694
135.3126,109.8630
135.2617,109.8546
135.2008,109.8445
135.1317,109.8329
135.0561,109.8202
134.9959,109.8100
134.9169,109.7966
134.8432,109.7841
134.7768,109.7728
134.7192,109.7629
134.6723,109.7548
134.6376,109.7488
134.6170,109.7451
134.6118,109.7441
134.6138,109.7357
134.6200,109.7120
134.6301,109.6744
134.6437,109.6242
134.6605,109.5628
134.6800,109.4916
134.7020,109.4118
134.7259,109.3250
134.7515,109.2325
134.7648,109.1846
134.7913,109.0891
134.8164,108.9982
134.8399,108.9134
134.8613,108.8360
134.8802,108.7676
134.8963,108.7094
134.9091,108.6630
134.9182,108.6297
134.9232,108.6111
134.9241,108.6078
134.9243,108.5948
134.9143,108.5866
134.8967,108.5811
134.8756,108.5767
134.8631,108.5758
134.8621,108.5763
134.8595,108.5850
134.8526,108.6090
134.8419,108.6470
134.8278,108.6976
134.8106,108.7595
134.7908,108.8313
134.7686,108.9116
134.7445,108.9991
134.7189,109.0924
134.7031,109.1502
134.6766,109.2464
134.6515,109.3376
134.6279,109.4226
134.6063,109.4999
134.5871,109.5682
134.5707,109.6261
134.5575,109.6721
134.5478,109.7050
134.5420,109.7234
134.5406,109.7269
134.5311,109.7267
134.5062,109.7238
134.4678,109.7185
134.4174,109.7111
134.3570,109.7017
134.2881,109.6906
134.2125,109.6782
134.1479,109.6674
134.0522,109.6510
133.9724,109.6371
133.9074,109.6254
133.8561,109.6156
133.8173,109.6076
133.7897,109.6010
133.7724,109.5957
133.7640,109.5915
133.7629,109.5892
133.7653,109.5796
133.7721,109.5542
133.7830,109.5138
133.7978,109.4592
133.8162,109.3914
133.8380,109.3112
133.8631,109.2194
133.8910,109.1169
133.9217,109.0045
133.9548,108.8832
133.9902,108.7537
134.0276,108.6170
134.0668,108.4739
134.1075,108.3252
134.1495,108.1718
134.1625,108.1245
134.2070,107.9623
Z" /> 
<path style="fill:#000000; fill-opacity:1.0000; 
stroke:#000000; stroke-width:0.0000; stroke-opacity:1; 
stroke-linecap:round; stroke-linejoin:round;fill-rule:evenodd;"
d="M 138.1285,109.8709
138.1368,109.8405
138.8885,109.8405
138.8971,109.8463
138.9200,109.8505
138.9381,109.8519
138.9430,109.8441
138.9517,109.8217
138.9633,109.7872
138.9773,109.7426
138.9927,109.6903
139.0051,109.6465
139.0234,109.5805
139.0425,109.5118
139.0611,109.4449
139.0779,109.3841
139.0918,109.3339
139.0960,109.3186
139.1297,109.1966
139.1038,109.1932
139.0837,109.1906
139.0726,109.1892
139.0694,109.1970
139.0623,109.2194
139.0518,109.2541
139.0386,109.2990
139.0233,109.3519
139.0064,109.4106
138.9887,109.4729
138.9706,109.5366
138.9530,109.5996
138.9362,109.6597
138.9211,109.7147
138.9081,109.7624
138.8980,109.8006
138.8913,109.8272
138.8886,109.8399
138.8885,109.8405
138.1368,109.8405
138.1554,109.7722
138.1847,109.6653
138.2159,109.5512
138.2488,109.4310
138.2832,109.3058
138.3187,109.1766
138.3550,109.0445
138.3919,108.9105
138.4290,108.7757
138.4661,108.6412
138.5028,108.5080
138.5390,108.3771
138.5742,108.2497
138.6082,108.1268
138.6407,108.0095
138.6714,107.8987
138.7000,107.7957
138.7262,107.7013
138.7498,107.6168
138.7705,107.5431
138.7878,107.4813
138.8017,107.4325
138.8117,107.3977
138.8138,107.3906
138.8263,107.3589
138.8429,107.3297
138.8510,107.3193
138.8674,107.3037
138.8846,107.2952
138.9095,107.2912
138.9249,107.2901
138.9413,107.2911
138.9731,107.2948
139.0186,107.3009
139.0760,107.3092
139.1439,107.3194
139.2203,107.3311
139.3037,107.3442
139.3924,107.3583
139.4847,107.3732
139.5789,107.3885
139.6733,107.4041
139.7662,107.4196
139.8560,107.4348
139.9410,107.4493
140.0194,107.4630
140.0896,107.4755
140.1500,107.4865
140.1987,107.4959
140.2342,107.5032
140.2548,107.5082
140.2570,107.5089
140.2917,107.5268
140.3117,107.5516
140.3192,107.5865
140.3194,107.6008
140.3168,107.6170
140.3100,107.6478
140.2994,107.6913
140.2857,107.7456
140.2693,107.8086
140.2508,107.8784
140.2307,107.9531
140.2096,108.0306
140.1880,108.1089
140.1665,108.1862
140.1455,108.2605
140.1258,108.3297
140.1077,108.3919
140.0918,108.4451
140.0787,108.4874
140.0689,108.5168
140.0634,108.5305
140.0463,108.5538
140.0220,108.5767
140.0135,108.5829
139.9957,108.5944
139.9791,108.6034
139.9618,108.6098
139.9418,108.6135
139.9172,108.6146
139.8860,108.6130
139.8464,108.6085
139.7963,108.6012
139.7338,108.5909
139.6570,108.5777
139.6217,108.5716
139.5528,108.5595
139.4894,108.5481
139.4335,108.5378
139.3870,108.5291
139.3522,108.5222
139.3308,108.5176
139.3248,108.5158
139.3256,108.5065
139.3307,108.4827
139.3394,108.4464
139.3512,108.3998
139.3657,108.3451
139.3823,108.2843
139.3870,108.2672
139.4041,108.2052
139.4191,108.1486
139.4316,108.0996
139.4411,108.0604
139.4471,108.0331
139.4489,108.0197
139.4487,108.0187
139.4362,108.0137
139.4195,108.0100
139.4047,108.0095
139.3955,108.0167
139.3878,108.0357
139.3852,108.0439
139.3761,108.0750
139.3643,108.1166
139.3504,108.1661
139.3351,108.2212
139.3191,108.2793
139.3030,108.3382
139.2875,108.3952
139.2733,108.4480
139.2610,108.4941
139.2513,108.5311
139.2449,108.5565
139.2425,108.5678
139.2425,108.5681
139.2509,108.5716
139.2745,108.5775
139.3115,108.5853
139.3600,108.5947
139.4181,108.6054
139.4840,108.6170
139.5528,108.6286
139.6261,108.6408
139.6957,108.6527
139.7594,108.6639
139.8148,108.6739
139.8598,108.6824
139.8920,108.6889
139.9078,108.6926
139.9473,108.7070
139.9722,108.7249
139.9853,108.7491
139.9894,108.7797
139.9877,108.7942
139.9820,108.8221
139.9722,108.8637
139.9582,108.9194
139.9399,108.9894
139.9173,109.0742
139.8903,109.1741
139.8587,109.2894
139.8225,109.4205
139.7816,109.5677
139.7608,109.6421
139.7282,109.7586
139.6967,109.8709
139.6666,109.9778
139.6382,110.0780
139.6120,110.1705
139.5882,110.2540
139.5672,110.3273
139.5493,110.3892
139.5348,110.4386
139.5242,110.4743
139.5177,110.4950
139.5162,110.4993
139.5020,110.5251
139.4853,110.5460
139.4811,110.5496
139.4533,110.5632
139.4168,110.5715
139.3797,110.5728
139.3739,110.5722
139.3441,110.5679
139.3009,110.5612
139.2457,110.5523
139.1803,110.5416
139.1063,110.5292
139.0253,110.5156
138.9390,110.5010
138.8491,110.4856
138.7572,110.4698
138.6648,110.4539
138.5737,110.4381
138.4856,110.4226
138.4019,110.4079
138.3245,110.3941
138.2549,110.3816
138.1947,110.3707
138.1457,110.3616
138.1095,110.3546
138.0876,110.3500
138.0819,110.3484
138.0495,110.3280
138.0315,110.2997
138.0269,110.2615
138.0286,110.2426
138.0313,110.2311
138.0384,110.2040
138.0495,110.1623
138.0643,110.1071
138.0826,110.0394
138.1041,109.9603
138.1222,109.8941
Z" /> 
<path style="fill:#000000; fill-opacity:1.0000; 
stroke:#000000; stroke-width:0.0000; stroke-opacity:1; 
stroke-linecap:round; stroke-linejoin:round;fill-rule:evenodd;"
d="M 130.1212,105.7822
130.1514,105.7860
130.1953,105.7922
130.2516,105.8006
130.3185,105.8109
130.3945,105.8229
130.4780,105.8363
130.5673,105.8508
130.6609,105.8662
130.7571,105.8821
130.8544,105.8984
130.9512,105.9147
131.0458,105.9309
131.1367,105.9465
131.2222,105.9614
131.3009,105.9752
131.3709,105.9878
131.4309,105.9988
131.4791,106.0080
131.5139,106.0151
131.5339,106.0198
131.5370,106.0209
131.5532,106.0281
131.5667,106.0357
131.5774,106.0449
131.5852,106.0571
131.5899,106.0735
131.5914,106.0952
131.5895,106.1235
131.5842,106.1597
131.5751,106.2051
131.5623,106.2607
131.5455,106.3280
131.5246,106.4080
131.4994,106.5021
131.4699,106.6115
131.4650,106.6295
131.4410,106.7179
131.4184,106.8012
131.3974,106.8779
131.3786,106.9466
131.3623,107.0057
131.3490,107.0538
131.3390,107.0894
131.3328,107.1110
131.3308,107.1172
131.3213,107.1172
131.2969,107.1144
131.2598,107.1092
131.2121,107.1019
131.1559,107.0928
131.0933,107.0824
131.0263,107.0710
130.9572,107.0590
130.8880,107.0468
130.8208,107.0347
130.7577,107.0230
130.7009,107.0123
130.6524,107.0027
130.6144,106.9948
130.5889,106.9889
130.5781,106.9853
130.5778,106.9850
130.5799,106.9740
130.5859,106.9487
130.5953,106.9116
130.6075,106.8651
130.6219,106.8117
130.6325,106.7729
130.6478,106.7167
130.6612,106.6663
130.6721,106.6240
130.6800,106.5922
130.6842,106.5731
130.6847,106.5686
130.6748,106.5668
130.6543,106.5660
130.6489,106.5660
130.6163,106.5662
130.5510,106.7998
130.5341,106.8609
130.5188,106.9167
130.5058,106.9651
130.4957,107.0038
130.4890,107.0305
130.4864,107.0430
130.4864,107.0434
130.4950,107.0474
130.5194,107.0536
130.5585,107.0620
130.6111,107.0721
130.6759,107.0839
130.7517,107.0970
130.8144,107.1075
130.9092,107.1233
130.9885,107.1368
131.0537,107.1483
131.1065,107.1582
131.1485,107.1669
131.1811,107.1747
131.2060,107.1820
131.2247,107.1892
131.2387,107.1965
131.2497,107.2044
131.2539,107.2082
131.2611,107.2150
131.2672,107.2220
131.2721,107.2302
131.2755,107.2405
131.2771,107.2539
131.2769,107.2714
131.2745,107.2939
131.2697,107.3225
131.2624,107.3581
131.2524,107.4016
131.2393,107.4541
131.2231,107.5165
131.2034,107.5899
131.1801,107.6751
131.1530,107.7731
131.1218,107.8850
131.0864,108.0118
131.0498,108.1425
131.0170,108.2592
130.9853,108.3717
130.9549,108.4788
130.9262,108.5795
130.8996,108.6723
130.8753,108.7563
130.8538,108.8301
130.8354,108.8925
130.8204,108.9424
130.8093,108.9786
130.8022,108.9999
130.8004,109.0045
130.7849,109.0309
130.7677,109.0525
130.7614,109.0583
130.7285,109.0737
130.6838,109.0806
130.6304,109.0786
130.6155,109.0765
130.5375,109.0640
130.4518,109.0501
130.3599,109.0349
130.2634,109.0189
130.1637,109.0021
130.0623,108.9850
129.9609,108.9677
129.8608,108.9505
129.7636,108.9337
129.6708,108.9175
129.5839,108.9022
129.5045,108.8881
129.4339,108.8754
129.3739,108.8644
129.3257,108.8553
129.2911,108.8485
129.2714,108.8441
129.2681,108.8431
129.2309,108.8212
129.2086,108.7907
129.2009,108.7511
129.2013,108.7403
129.2039,108.7266
129.2106,108.6983
129.2209,108.6572
129.2344,108.6049
129.2505,108.5433
129.2689,108.4741
129.2890,108.3989
129.3104,108.3195
129.3326,108.2376
129.3551,108.1550
129.3775,108.0735
129.3992,107.9946
129.4199,107.9202
129.4390,107.8520
129.4560,107.7917
129.4706,107.7411
129.4822,107.7018
129.4903,107.6757
129.4945,107.6644
129.4947,107.6642
129.5039,107.6646
129.5280,107.6676
129.5650,107.6729
129.6126,107.6800
129.6689,107.6887
129.7316,107.6986
129.7987,107.7093
129.8679,107.7206
129.9373,107.7320
130.0046,107.7432
130.0678,107.7539
130.1247,107.7637
130.1732,107.7723
130.2112,107.7793
130.2365,107.7843
130.2470,107.7871
130.2471,107.7872
130.2459,107.7961
130.2404,107.8195
130.2312,107.8554
130.2188,107.9017
130.2038,107.9561
130.1868,108.0167
130.1818,108.0341
130.1642,108.0964
130.1482,108.1535
130.1346,108.2032
130.1238,108.2433
130.1165,108.2717
130.1132,108.2861
130.1131,108.2873
130.1210,108.2934
130.1387,108.2992
130.1592,108.3031
130.1750,108.3034
130.1790,108.3016
130.1817,108.2929
130.1887,108.2695
130.1992,108.2332
130.2128,108.1861
130.2288,108.1301
130.2468,108.0672
130.2616,108.0152
130.2834,107.9382
130.3007,107.8761
130.3138,107.8275
130.3232,107.7906
130.3291,107.7639
130.3320,107.7457
130.3322,107.7344
130.3301,107.7285
130.3273,107.7265
130.3155,107.7239
130.2886,107.7190
130.2488,107.7119
130.1981,107.7031
130.1386,107.6931
130.0723,107.6820
130.0137,107.6723
129.9409,107.6603
129.8712,107.6485
129.8069,107.6375
129.7505,107.6277
129.7044,107.6195
129.6713,107.6132
129.6568,107.6103
129.6082,107.5957
129.5748,107.5764
129.5550,107.5509
129.5469,107.5178
129.5469,107.5174
129.5488,107.5037
129.5550,107.4747
129.5651,107.4319
129.5787,107.3767
129.5955,107.3106
129.6150,107.2348
129.6369,107.1510
129.6607,107.0604
129.6862,106.9645
129.7129,106.8648
129.7403,106.7626
129.7683,106.6595
129.7963,106.5567
129.8239,106.4558
129.8508,106.3582
129.8767,106.2652
129.9010,106.1784
129.9235,106.0991
129.9437,106.0287
129.9612,105.9688
129.9757,105.9206
129.9868,105.8857
129.9941,105.8654
129.9949,105.8635
130.0226,105.8210
130.0587,105.7937
130.1031,105.7815
130.1065,105.7812
Z" /> 
</g>
<g style="fill:#000000; fill-opacity:1.0000; 
stroke:#000000; stroke-width:0.1500; stroke-opacity:1; 
stroke-linecap:round; stroke-linejoin:round;">
</g>
<g style="fill:#000000; fill-opacity:0.0; 
stroke:#000000; stroke-width:0.1500; stroke-opacity:1; 
stroke-linecap:round; stroke-linejoin:round;">
<path d="M191.2445 79.0554
L196.3938 79.7791
" />
<path d="M190.5208 84.2048
L191.2445 79.0554
" />
<path d="M196.3938 79.7791
L195.6701 84.9285
" />
<path d="M195.6701 84.9285
L190.5208 84.2048
" />
<circle cx="193.4573" cy="81.9919" r="1.0000" /> 
</g>
<g style="fill:#000000; fill-opacity:0.0; 
stroke:#000000; stroke-width:0.1200; stroke-opacity:1; 
stroke-linecap:round; stroke-linejoin:round;">
<path d="M192.6658 101.3389
L192.7385 100.8215
" />
<path d="M194.1215 101.5435
L194.1942 101.0261
" />
</g>
<g style="fill:#000000; fill-opacity:0.0; 
stroke:#000000; stroke-width:0.1500; stroke-opacity:1; 
stroke-linecap:round; stroke-linejoin:round;">
<path d="M189.1188 103.5295
L189.1988 102.9601
" />
<path d="M189.1188 103.5295
L188.4503 103.4356
" />
<path d="M189.1988 102.9601
L190.4614 103.1376
" />
<path d="M190.5592 93.2802
L190.4653 93.9487
" />
<path d="M190.5592 93.2802
L189.8908 93.1863
" />
<path d="M178.8695 102.0891
L179.5379 102.1830
" />
<path d="M178.8695 102.0891
L178.9634 101.4206
" />
<path d="M180.3099 91.8398
L180.9784 91.9337
" />
<path d="M180.3099 91.8398
L180.2160 92.5082
" />
</g>
<g style="fill:#000000; fill-opacity:0.0; 
stroke:#000000; stroke-width:0.1200; stroke-opacity:1; 
stroke-linecap:round; stroke-linejoin:round;">
<path d="M189.8400 87.2290
L189.9127 86.7116
" />
<path d="M191.2957 87.4336
L191.3684 86.9161
" />
<path d="M184.8981 84.7054
L184.4388 87.9733
" />
<path d="M184.4388 87.9733
L188.3999 88.5300
" />
<g >
</g>
<g >
</g>
<g >
</g>
<g >
</g>
<g >
</g>
<g >
</g>
<g >
</g>
<g >
</g>
<g >
</g>
<g >
</g>
<g >
</g>
<g >
</g>
<g >
</g>
<g >
</g>
<g >
</g>
<g >
</g>
<g >
</g>
<g >
</g>
<g >
</g>
<g >
</g>
<g >
</g>
<g >
</g>
<g >
</g>
<g >
</g>
<g >
</g>
<g >
</g>
<g >
</g>
<g >
</g>
<g >
</g>
<g >
</g>
<g >
</g>
<g >
</g>
<g >
</g>
<g >
</g>
<g >
</g>
<g >
</g>
</g> 
</svg>
