<?xml version="1.0" standalone="no"?>
 <!DOCTYPE svg PUBLIC "-//W3C//DTD SVG 1.1//EN" 
 "http://www.w3.org/Graphics/SVG/1.1/DTD/svg11.dtd"> 
<svg
  xmlns:svg="http://www.w3.org/2000/svg"
  xmlns="http://www.w3.org/2000/svg"
  xmlns:xlink="http://www.w3.org/1999/xlink"
  version="1.1"
  width="297.0022mm" height="210.0072mm" viewBox="0.0000 0.0000 297.0022 210.0072">
<title>SVG Image created as TCC-PCB-Edge_Cuts.svg date 2023/03/16 17:04:14 </title>
  <desc>Image generated by PCBNEW </desc>
<g style="fill:#000000; fill-opacity:1.0000;stroke:#000000; stroke-opacity:1.0000;
stroke-linecap:round; stroke-linejoin:round;"
 transform="translate(0 0) scale(1 1)">
</g>
<g style="fill:#000000; fill-opacity:0.0; 
stroke:#000000; stroke-width:0.0000; stroke-opacity:1; 
stroke-linecap:round; stroke-linejoin:round;">
</g>
<g style="fill:#000000; fill-opacity:0.0; 
stroke:#000000; stroke-width:0.1000; stroke-opacity:1; 
stroke-linecap:round; stroke-linejoin:round;">
<path d="M199.3250 75.3925
L193.1000 112.8625
" />
<path d="M180.0829 130.9057 A3.0167 3.0167 0.0 0 0 183.9750 129.9675" />
<path d="M96.2000 61.3425 A3.0001 3.0001 0.0 0 0 93.2000 64.3425" />
<path d="M162.1000 64.8025
L196.8464 72.2371
" />
<path d="M193.1000 112.8625
L183.9750 129.9675
" />
<path d="M199.3251 75.3925 A3.0301 3.0301 0.0 0 0 196.8464 72.2371" />
<path d="M137.1300 61.3625
L162.1000 64.8025
" />
<path d="M93.1994 101.3467
L93.2000 64.3425
" />
<circle cx="97.1900" cy="77.3225" r="2.0000" /> 
<path d="M180.0829 130.9057
L143.7900 112.3125
" />
<circle cx="190.1800" cy="106.5625" r="2.0000" /> 
<path d="M96.2000 61.3425
L137.1300 61.3625
" />
<path d="M143.7900 112.3125
L96.1600 103.8625
" />
<path d="M93.1994 101.3467 A3.0000 3.0000 0.0 0 0 96.1600 103.8625" />
<g >
</g>
<g >
</g>
<g >
</g>
<g >
</g>
<g >
</g>
<g >
</g>
<g >
</g>
<g >
</g>
<g >
</g>
<g >
</g>
<g >
</g>
<g >
</g>
<g >
</g>
<g >
</g>
<g >
</g>
<g >
</g>
<g >
</g>
<g >
</g>
<g >
</g>
<g >
</g>
<g >
</g>
<g >
</g>
<g >
</g>
<g >
</g>
<g >
</g>
<g >
</g>
<g >
</g>
<g >
</g>
<g >
</g>
<g >
</g>
<g >
</g>
<g >
</g>
<g >
</g>
<g >
</g>
<g >
</g>
<g >
</g>
</g> 
</svg>
