%TF.GenerationSoftware,KiCad,Pcbnew,(7.0.0)*%
%TF.CreationDate,2023-03-16T17:08:34-03:00*%
%TF.ProjectId,TCC-PCB,5443432d-5043-4422-9e6b-696361645f70,rev?*%
%TF.SameCoordinates,Original*%
%TF.FileFunction,Soldermask,Top*%
%TF.FilePolarity,Negative*%
%FSLAX46Y46*%
G04 Gerber Fmt 4.6, Leading zero omitted, Abs format (unit mm)*
G04 Created by KiCad (PCBNEW (7.0.0)) date 2023-03-16 17:08:34*
%MOMM*%
%LPD*%
G01*
G04 APERTURE LIST*
G04 Aperture macros list*
%AMRoundRect*
0 Rectangle with rounded corners*
0 $1 Rounding radius*
0 $2 $3 $4 $5 $6 $7 $8 $9 X,Y pos of 4 corners*
0 Add a 4 corners polygon primitive as box body*
4,1,4,$2,$3,$4,$5,$6,$7,$8,$9,$2,$3,0*
0 Add four circle primitives for the rounded corners*
1,1,$1+$1,$2,$3*
1,1,$1+$1,$4,$5*
1,1,$1+$1,$6,$7*
1,1,$1+$1,$8,$9*
0 Add four rect primitives between the rounded corners*
20,1,$1+$1,$2,$3,$4,$5,0*
20,1,$1+$1,$4,$5,$6,$7,0*
20,1,$1+$1,$6,$7,$8,$9,0*
20,1,$1+$1,$8,$9,$2,$3,0*%
%AMHorizOval*
0 Thick line with rounded ends*
0 $1 width*
0 $2 $3 position (X,Y) of the first rounded end (center of the circle)*
0 $4 $5 position (X,Y) of the second rounded end (center of the circle)*
0 Add line between two ends*
20,1,$1,$2,$3,$4,$5,0*
0 Add two circle primitives to create the rounded ends*
1,1,$1,$2,$3*
1,1,$1,$4,$5*%
%AMRotRect*
0 Rectangle, with rotation*
0 The origin of the aperture is its center*
0 $1 length*
0 $2 width*
0 $3 Rotation angle, in degrees counterclockwise*
0 Add horizontal line*
21,1,$1,$2,0,0,$3*%
G04 Aperture macros list end*
%ADD10RoundRect,0.250000X0.409088X-0.322573X0.482154X0.197317X-0.409088X0.322573X-0.482154X-0.197317X0*%
%ADD11RoundRect,0.250000X0.463724X0.270343X0.039700X0.535303X-0.463724X-0.270343X-0.039700X-0.535303X0*%
%ADD12RotRect,2.250000X0.500000X258.000000*%
%ADD13HorizOval,1.700000X-0.103956X-0.489074X0.103956X0.489074X0*%
%ADD14RoundRect,0.250000X-0.435584X0.313674X-0.505171X-0.181460X0.435584X-0.313674X0.505171X0.181460X0*%
%ADD15RoundRect,0.250000X0.435584X-0.313674X0.505171X0.181460X-0.435584X0.313674X-0.505171X-0.181460X0*%
%ADD16C,1.750000*%
%ADD17C,3.000000*%
%ADD18C,3.987800*%
%ADD19RoundRect,0.250000X-0.409734X-0.346761X0.053858X-0.534064X0.409734X0.346761X-0.053858X0.534064X0*%
%ADD20RoundRect,0.250000X-0.375000X-0.625000X0.375000X-0.625000X0.375000X0.625000X-0.375000X0.625000X0*%
%ADD21RoundRect,0.250000X-0.409088X0.322573X-0.482154X-0.197317X0.409088X-0.322573X0.482154X0.197317X0*%
%ADD22RotRect,1.800000X1.100000X352.000000*%
%ADD23RotRect,1.500000X0.550000X172.000000*%
%ADD24RotRect,1.500000X0.550000X262.000000*%
%ADD25RotRect,1.400000X1.200000X352.000000*%
G04 APERTURE END LIST*
D10*
%TO.C,R4*%
X176920000Y-90002500D03*
X177173990Y-88195260D03*
%TD*%
D11*
%TO.C,C7*%
X180730000Y-107022500D03*
X179118708Y-106015654D03*
%TD*%
D10*
%TO.C,R1*%
X193540000Y-97332500D03*
X193793990Y-95525260D03*
%TD*%
D12*
%TO.C,USB1*%
X183244724Y-75680962D03*
X184027242Y-75847292D03*
X184809760Y-76013621D03*
X185592278Y-76179951D03*
X186374797Y-76346280D03*
D13*
X189315602Y-72370835D03*
X182175124Y-70853079D03*
X188379999Y-76772499D03*
X181239522Y-75254744D03*
%TD*%
D14*
%TO.C,C4*%
X194444428Y-91240990D03*
X194180000Y-93122500D03*
%TD*%
D15*
%TO.C,C1*%
X182926130Y-86952820D03*
X183190558Y-85071310D03*
%TD*%
%TO.C,C5*%
X176190000Y-94342500D03*
X176454428Y-92460990D03*
%TD*%
D16*
%TO.C,MX5*%
X143004442Y-72775631D03*
D17*
X144615582Y-70437100D03*
D18*
X148035004Y-73482630D03*
D17*
X151257284Y-68805568D03*
D16*
X153065566Y-74189629D03*
%TD*%
%TO.C,MX4*%
X140459405Y-91580558D03*
D17*
X142070545Y-89242027D03*
D18*
X145489967Y-92287557D03*
D17*
X148712247Y-87610495D03*
D16*
X150520529Y-92994556D03*
%TD*%
%TO.C,MX8*%
X174083784Y-116259811D03*
D17*
X176368498Y-114573223D03*
D18*
X178610097Y-118566083D03*
D17*
X183179525Y-115192906D03*
D16*
X183136410Y-120872355D03*
%TD*%
%TO.C,MX6*%
X158718797Y-99054704D03*
D17*
X160329937Y-96716173D03*
D18*
X163749359Y-99761703D03*
D17*
X166971639Y-95084641D03*
D16*
X168779921Y-100468702D03*
%TD*%
D19*
%TO.C,C6*%
X183788350Y-108660748D03*
X185550000Y-109372500D03*
%TD*%
D20*
%TO.C,F1*%
X193330000Y-74642500D03*
X196130000Y-74642500D03*
%TD*%
D21*
%TO.C,R3*%
X184996995Y-79738880D03*
X184743005Y-81546120D03*
%TD*%
%TO.C,R2*%
X182816995Y-79378880D03*
X182563005Y-81186120D03*
%TD*%
D22*
%TO.C,SW1*%
X196269661Y-84255373D03*
X190644939Y-79728507D03*
X196784601Y-80591381D03*
X190129999Y-83392499D03*
%TD*%
D16*
%TO.C,MX1*%
X102031262Y-85279120D03*
D17*
X103432455Y-82809068D03*
D18*
X107104300Y-85544987D03*
D17*
X109906686Y-80604882D03*
D16*
X112177338Y-85810854D03*
%TD*%
D15*
%TO.C,C3*%
X193297786Y-102123255D03*
X193562214Y-100241745D03*
%TD*%
D16*
%TO.C,MX3*%
X123671798Y-73648751D03*
D17*
X125282938Y-71310220D03*
D18*
X128702360Y-74355750D03*
D17*
X131924640Y-69678688D03*
D16*
X133732922Y-75062749D03*
%TD*%
%TO.C,MX2*%
X121003974Y-92497075D03*
D17*
X122615114Y-90158544D03*
D18*
X126034536Y-93204074D03*
D17*
X129256816Y-88527012D03*
D16*
X131065098Y-93911073D03*
%TD*%
%TO.C,MX7*%
X161349438Y-80245501D03*
D17*
X162960578Y-77906970D03*
D18*
X166380000Y-80952500D03*
D17*
X169602280Y-76275438D03*
D16*
X171410562Y-81659499D03*
%TD*%
D23*
%TO.C,U1*%
X189802194Y-102439022D03*
X189913532Y-101646807D03*
X190024871Y-100854593D03*
X190136209Y-100062379D03*
X190247548Y-99270164D03*
X190358886Y-98477950D03*
X190470224Y-97685735D03*
X190581563Y-96893521D03*
X190692901Y-96101306D03*
X190804240Y-95309092D03*
X190915578Y-94516877D03*
D24*
X189468717Y-92596827D03*
X188676502Y-92485489D03*
X187884288Y-92374150D03*
X187092074Y-92262812D03*
X186299859Y-92151473D03*
X185507645Y-92040135D03*
X184715430Y-91928797D03*
X183923216Y-91817458D03*
X183131001Y-91706120D03*
X182338787Y-91594781D03*
X181546572Y-91483443D03*
D23*
X179626522Y-92930304D03*
X179515184Y-93722519D03*
X179403845Y-94514733D03*
X179292507Y-95306947D03*
X179181168Y-96099162D03*
X179069830Y-96891376D03*
X178958492Y-97683591D03*
X178847153Y-98475805D03*
X178735815Y-99268020D03*
X178624476Y-100060234D03*
X178513138Y-100852449D03*
D24*
X179959999Y-102772499D03*
X180752214Y-102883837D03*
X181544428Y-102995176D03*
X182336642Y-103106514D03*
X183128857Y-103217853D03*
X183921071Y-103329191D03*
X184713286Y-103440529D03*
X185505500Y-103551868D03*
X186297715Y-103663206D03*
X187089929Y-103774545D03*
X187882144Y-103885883D03*
%TD*%
D15*
%TO.C,C2*%
X190471972Y-88013319D03*
X190736400Y-86131809D03*
%TD*%
D25*
%TO.C,Y1*%
X185441409Y-87306318D03*
X187619999Y-87612499D03*
X187856593Y-85929044D03*
X185678003Y-85622863D03*
%TD*%
M02*
