M48
; DRILL file {KiCad (7.0.0)} date Thu Mar 16 17:09:01 2023
; FORMAT={-:-/ absolute / inch / decimal}
; #@! TF.CreationDate,2023-03-16T17:09:01-03:00
; #@! TF.GenerationSoftware,Kicad,Pcbnew,(7.0.0)
; #@! TF.FileFunction,Plated,1,2,PTH
FMAT,2
INCH
; #@! TA.AperFunction,Plated,PTH,ViaDrill
T1C0.0157
; #@! TA.AperFunction,Plated,PTH,ComponentDrill
T2C0.0276
%
G90
G05
T1
X4.6201Y-3.6662
X4.6764Y-2.8745
X4.7406Y-2.9804
X5.3925Y-3.691
X5.461Y-3.1966
X5.4953Y-2.9139
X6.0071Y-4.1076
X6.1154Y-4.0607
X6.1331Y-4.2312
X6.1815Y-3.391
X6.2579Y-3.2261
X6.3035Y-4.0048
X6.8539Y-3.7655
X6.8925Y-4.1981
X6.9409Y-3.7832
X7.0031Y-4.1414
X7.0236Y-4.0918
X7.037Y-3.5324
X7.039Y-3.0824
X7.0807Y-3.5155
X7.0831Y-3.5883
X7.0886Y-3.2095
X7.1177Y-3.4619
X7.1217Y-4.145
X7.2217Y-3.493
X7.3185Y-4.241
X7.3673Y-4.2844
X7.3677Y-3.5682
X7.3961Y-4.0162
X7.4185Y-3.845
X7.4909Y-3.2277
X7.5197Y-4.3277
X7.5315Y-4.0784
X7.5445Y-3.5796
X7.5492Y-3.941
X7.5697Y-3.8798
X7.6118Y-3.8899
X7.6807Y-3.7883
X7.724Y-3.5607
X7.75Y-3.0489
T2
G00X7.1403Y-2.9397
M15
G01X7.1305Y-2.9859
M16
G05
G00X7.1772Y-2.7664
M15
G01X7.1673Y-2.8126
M16
G05
G00X7.4214Y-2.9994
M15
G01X7.4116Y-3.0456
M16
G05
G00X7.4583Y-2.8261
M15
G01X7.4485Y-2.8724
M16
G05
T0
M30
