%TF.GenerationSoftware,KiCad,Pcbnew,(7.0.0)*%
%TF.CreationDate,2023-03-16T17:08:34-03:00*%
%TF.ProjectId,TCC-PCB,5443432d-5043-4422-9e6b-696361645f70,rev?*%
%TF.SameCoordinates,Original*%
%TF.FileFunction,Legend,Bot*%
%TF.FilePolarity,Positive*%
%FSLAX46Y46*%
G04 Gerber Fmt 4.6, Leading zero omitted, Abs format (unit mm)*
G04 Created by KiCad (PCBNEW (7.0.0)) date 2023-03-16 17:08:34*
%MOMM*%
%LPD*%
G01*
G04 APERTURE LIST*
G04 Aperture macros list*
%AMRoundRect*
0 Rectangle with rounded corners*
0 $1 Rounding radius*
0 $2 $3 $4 $5 $6 $7 $8 $9 X,Y pos of 4 corners*
0 Add a 4 corners polygon primitive as box body*
4,1,4,$2,$3,$4,$5,$6,$7,$8,$9,$2,$3,0*
0 Add four circle primitives for the rounded corners*
1,1,$1+$1,$2,$3*
1,1,$1+$1,$4,$5*
1,1,$1+$1,$6,$7*
1,1,$1+$1,$8,$9*
0 Add four rect primitives between the rounded corners*
20,1,$1+$1,$2,$3,$4,$5,0*
20,1,$1+$1,$4,$5,$6,$7,0*
20,1,$1+$1,$6,$7,$8,$9,0*
20,1,$1+$1,$8,$9,$2,$3,0*%
%AMHorizOval*
0 Thick line with rounded ends*
0 $1 width*
0 $2 $3 position (X,Y) of the first rounded end (center of the circle)*
0 $4 $5 position (X,Y) of the second rounded end (center of the circle)*
0 Add line between two ends*
20,1,$1,$2,$3,$4,$5,0*
0 Add two circle primitives to create the rounded ends*
1,1,$1,$2,$3*
1,1,$1,$4,$5*%
%AMRotRect*
0 Rectangle, with rotation*
0 The origin of the aperture is its center*
0 $1 length*
0 $2 width*
0 $3 Rotation angle, in degrees counterclockwise*
0 Add horizontal line*
21,1,$1,$2,0,0,$3*%
G04 Aperture macros list end*
%ADD10C,0.150000*%
%ADD11C,0.120000*%
%ADD12HorizOval,1.700000X-0.103956X-0.489074X0.103956X0.489074X0*%
%ADD13C,1.750000*%
%ADD14C,3.000000*%
%ADD15C,3.987800*%
%ADD16RotRect,2.550000X2.500000X352.000000*%
%ADD17RotRect,2.550000X2.500000X333.000000*%
%ADD18RotRect,2.550000X2.500000X357.000000*%
%ADD19RoundRect,0.225000X0.218900X-0.378593X0.437065X0.014986X-0.218900X0.378593X-0.437065X-0.014986X0*%
%ADD20RoundRect,0.225000X0.340037X-0.275000X0.402664X0.170620X-0.340037X0.275000X-0.402664X-0.170620X0*%
%ADD21RoundRect,0.225000X0.353963X-0.256827X0.393183X0.191460X-0.353963X0.256827X-0.393183X-0.191460X0*%
G04 APERTURE END LIST*
D10*
%TO.C,D8*%
X184691661Y-125115771D02*
X183817041Y-124630961D01*
X183817041Y-124630961D02*
X183701610Y-124839204D01*
X183701610Y-124839204D02*
X183674000Y-124987236D01*
X183674000Y-124987236D02*
X183711125Y-125116706D01*
X183711125Y-125116706D02*
X183771336Y-125204526D01*
X183771336Y-125204526D02*
X183914844Y-125338520D01*
X183914844Y-125338520D02*
X184039789Y-125407778D01*
X184039789Y-125407778D02*
X184229470Y-125458474D01*
X184229470Y-125458474D02*
X184335853Y-125462998D01*
X184335853Y-125462998D02*
X184465323Y-125425873D01*
X184465323Y-125425873D02*
X184576230Y-125324014D01*
X184576230Y-125324014D02*
X184691661Y-125115771D01*
X183637810Y-125838302D02*
X183642334Y-125731919D01*
X183642334Y-125731919D02*
X183623771Y-125667184D01*
X183623771Y-125667184D02*
X183563560Y-125579363D01*
X183563560Y-125579363D02*
X183521912Y-125556277D01*
X183521912Y-125556277D02*
X183415528Y-125551754D01*
X183415528Y-125551754D02*
X183350794Y-125570316D01*
X183350794Y-125570316D02*
X183262973Y-125630527D01*
X183262973Y-125630527D02*
X183170628Y-125797121D01*
X183170628Y-125797121D02*
X183166104Y-125903504D01*
X183166104Y-125903504D02*
X183184667Y-125968239D01*
X183184667Y-125968239D02*
X183244878Y-126056060D01*
X183244878Y-126056060D02*
X183286526Y-126079146D01*
X183286526Y-126079146D02*
X183392909Y-126083670D01*
X183392909Y-126083670D02*
X183457644Y-126065108D01*
X183457644Y-126065108D02*
X183545465Y-126004897D01*
X183545465Y-126004897D02*
X183637810Y-125838302D01*
X183637810Y-125838302D02*
X183725631Y-125778091D01*
X183725631Y-125778091D02*
X183790365Y-125759529D01*
X183790365Y-125759529D02*
X183896749Y-125764053D01*
X183896749Y-125764053D02*
X184063343Y-125856398D01*
X184063343Y-125856398D02*
X184123554Y-125944218D01*
X184123554Y-125944218D02*
X184142116Y-126008953D01*
X184142116Y-126008953D02*
X184137592Y-126115336D01*
X184137592Y-126115336D02*
X184045248Y-126281931D01*
X184045248Y-126281931D02*
X183957427Y-126342142D01*
X183957427Y-126342142D02*
X183892692Y-126360704D01*
X183892692Y-126360704D02*
X183786309Y-126356180D01*
X183786309Y-126356180D02*
X183619715Y-126263836D01*
X183619715Y-126263836D02*
X183559504Y-126176015D01*
X183559504Y-126176015D02*
X183540941Y-126111280D01*
X183540941Y-126111280D02*
X183545465Y-126004897D01*
%TO.C,D7*%
X174354934Y-85129008D02*
X173364666Y-84989835D01*
X173364666Y-84989835D02*
X173331530Y-85225613D01*
X173331530Y-85225613D02*
X173358803Y-85373708D01*
X173358803Y-85373708D02*
X173439860Y-85481273D01*
X173439860Y-85481273D02*
X173527544Y-85541684D01*
X173527544Y-85541684D02*
X173709539Y-85615348D01*
X173709539Y-85615348D02*
X173851006Y-85635230D01*
X173851006Y-85635230D02*
X174046256Y-85614584D01*
X174046256Y-85614584D02*
X174147194Y-85580683D01*
X174147194Y-85580683D02*
X174254760Y-85499626D01*
X174254760Y-85499626D02*
X174321798Y-85364786D01*
X174321798Y-85364786D02*
X174354934Y-85129008D01*
X173238747Y-85885792D02*
X173145965Y-86545971D01*
X173145965Y-86545971D02*
X174195879Y-86260743D01*
%TO.C,D6*%
X171967462Y-104144902D02*
X170977194Y-104005729D01*
X170977194Y-104005729D02*
X170944058Y-104241507D01*
X170944058Y-104241507D02*
X170971331Y-104389602D01*
X170971331Y-104389602D02*
X171052388Y-104497167D01*
X171052388Y-104497167D02*
X171140072Y-104557578D01*
X171140072Y-104557578D02*
X171322067Y-104631242D01*
X171322067Y-104631242D02*
X171463534Y-104651124D01*
X171463534Y-104651124D02*
X171658784Y-104630478D01*
X171658784Y-104630478D02*
X171759722Y-104596577D01*
X171759722Y-104596577D02*
X171867288Y-104515520D01*
X171867288Y-104515520D02*
X171934326Y-104380680D01*
X171934326Y-104380680D02*
X171967462Y-104144902D01*
X170778375Y-105420398D02*
X170804884Y-105231775D01*
X170804884Y-105231775D02*
X170865295Y-105144091D01*
X170865295Y-105144091D02*
X170919078Y-105103563D01*
X170919078Y-105103563D02*
X171073799Y-105029134D01*
X171073799Y-105029134D02*
X171269049Y-105008487D01*
X171269049Y-105008487D02*
X171646294Y-105061506D01*
X171646294Y-105061506D02*
X171733978Y-105121916D01*
X171733978Y-105121916D02*
X171774506Y-105175699D01*
X171774506Y-105175699D02*
X171808407Y-105276637D01*
X171808407Y-105276637D02*
X171781898Y-105465260D01*
X171781898Y-105465260D02*
X171721488Y-105552944D01*
X171721488Y-105552944D02*
X171667705Y-105593472D01*
X171667705Y-105593472D02*
X171566766Y-105627373D01*
X171566766Y-105627373D02*
X171330988Y-105594237D01*
X171330988Y-105594237D02*
X171243304Y-105533826D01*
X171243304Y-105533826D02*
X171202776Y-105480044D01*
X171202776Y-105480044D02*
X171168875Y-105379105D01*
X171168875Y-105379105D02*
X171195384Y-105190483D01*
X171195384Y-105190483D02*
X171255794Y-105102799D01*
X171255794Y-105102799D02*
X171309577Y-105062270D01*
X171309577Y-105062270D02*
X171410516Y-105028369D01*
%TO.C,D1*%
X115384840Y-88749686D02*
X114388645Y-88662530D01*
X114388645Y-88662530D02*
X114367894Y-88899719D01*
X114367894Y-88899719D02*
X114402881Y-89046183D01*
X114402881Y-89046183D02*
X114489456Y-89149359D01*
X114489456Y-89149359D02*
X114580181Y-89205098D01*
X114580181Y-89205098D02*
X114765782Y-89269137D01*
X114765782Y-89269137D02*
X114908096Y-89281587D01*
X114908096Y-89281587D02*
X115101997Y-89250751D01*
X115101997Y-89250751D02*
X115201023Y-89211613D01*
X115201023Y-89211613D02*
X115304200Y-89125038D01*
X115304200Y-89125038D02*
X115364088Y-88986875D01*
X115364088Y-88986875D02*
X115384840Y-88749686D01*
X115252031Y-90267697D02*
X115301834Y-89698443D01*
X115276933Y-89983070D02*
X114280738Y-89895914D01*
X114280738Y-89895914D02*
X114431352Y-89813489D01*
X114431352Y-89813489D02*
X114534528Y-89726914D01*
X114534528Y-89726914D02*
X114590267Y-89636189D01*
%TO.C,D4*%
X153661611Y-96128650D02*
X152671343Y-95989477D01*
X152671343Y-95989477D02*
X152638207Y-96225255D01*
X152638207Y-96225255D02*
X152665480Y-96373350D01*
X152665480Y-96373350D02*
X152746537Y-96480915D01*
X152746537Y-96480915D02*
X152834221Y-96541326D01*
X152834221Y-96541326D02*
X153016216Y-96614990D01*
X153016216Y-96614990D02*
X153157683Y-96634872D01*
X153157683Y-96634872D02*
X153352933Y-96614226D01*
X153352933Y-96614226D02*
X153453871Y-96580325D01*
X153453871Y-96580325D02*
X153561437Y-96499268D01*
X153561437Y-96499268D02*
X153628475Y-96364428D01*
X153628475Y-96364428D02*
X153661611Y-96128650D01*
X152802614Y-97450537D02*
X153462792Y-97543319D01*
X152458505Y-97161741D02*
X153198976Y-97025372D01*
X153198976Y-97025372D02*
X153112821Y-97638395D01*
%TO.C,D2*%
X134017066Y-97330391D02*
X133026798Y-97191218D01*
X133026798Y-97191218D02*
X132993662Y-97426996D01*
X132993662Y-97426996D02*
X133020935Y-97575091D01*
X133020935Y-97575091D02*
X133101992Y-97682656D01*
X133101992Y-97682656D02*
X133189676Y-97743067D01*
X133189676Y-97743067D02*
X133371671Y-97816731D01*
X133371671Y-97816731D02*
X133513138Y-97836613D01*
X133513138Y-97836613D02*
X133708388Y-97815967D01*
X133708388Y-97815967D02*
X133809326Y-97782066D01*
X133809326Y-97782066D02*
X133916892Y-97701009D01*
X133916892Y-97701009D02*
X133983930Y-97566169D01*
X133983930Y-97566169D02*
X134017066Y-97330391D01*
X132988563Y-98147585D02*
X132934781Y-98188114D01*
X132934781Y-98188114D02*
X132874370Y-98275798D01*
X132874370Y-98275798D02*
X132841234Y-98511576D01*
X132841234Y-98511576D02*
X132875135Y-98612514D01*
X132875135Y-98612514D02*
X132915663Y-98666297D01*
X132915663Y-98666297D02*
X133003347Y-98726707D01*
X133003347Y-98726707D02*
X133097658Y-98739962D01*
X133097658Y-98739962D02*
X133245753Y-98712688D01*
X133245753Y-98712688D02*
X133891148Y-98226348D01*
X133891148Y-98226348D02*
X133804993Y-98839371D01*
%TO.C,D3*%
X136699262Y-78436723D02*
X135708994Y-78297550D01*
X135708994Y-78297550D02*
X135675858Y-78533328D01*
X135675858Y-78533328D02*
X135703131Y-78681423D01*
X135703131Y-78681423D02*
X135784188Y-78788988D01*
X135784188Y-78788988D02*
X135871872Y-78849399D01*
X135871872Y-78849399D02*
X136053867Y-78923063D01*
X136053867Y-78923063D02*
X136195334Y-78942945D01*
X136195334Y-78942945D02*
X136390584Y-78922299D01*
X136390584Y-78922299D02*
X136491522Y-78888398D01*
X136491522Y-78888398D02*
X136599088Y-78807341D01*
X136599088Y-78807341D02*
X136666126Y-78672501D01*
X136666126Y-78672501D02*
X136699262Y-78436723D01*
X135583075Y-79193507D02*
X135496921Y-79806530D01*
X135496921Y-79806530D02*
X135920557Y-79529459D01*
X135920557Y-79529459D02*
X135900675Y-79670926D01*
X135900675Y-79670926D02*
X135934576Y-79771865D01*
X135934576Y-79771865D02*
X135975104Y-79825647D01*
X135975104Y-79825647D02*
X136062788Y-79886058D01*
X136062788Y-79886058D02*
X136298566Y-79919194D01*
X136298566Y-79919194D02*
X136399505Y-79885293D01*
X136399505Y-79885293D02*
X136453288Y-79844765D01*
X136453288Y-79844765D02*
X136513698Y-79757081D01*
X136513698Y-79757081D02*
X136553462Y-79474147D01*
X136553462Y-79474147D02*
X136519561Y-79373209D01*
X136519561Y-79373209D02*
X136479032Y-79319426D01*
%TO.C,D5*%
X156959931Y-77407721D02*
X155969663Y-77268548D01*
X155969663Y-77268548D02*
X155936527Y-77504326D01*
X155936527Y-77504326D02*
X155963800Y-77652421D01*
X155963800Y-77652421D02*
X156044857Y-77759986D01*
X156044857Y-77759986D02*
X156132541Y-77820397D01*
X156132541Y-77820397D02*
X156314536Y-77894061D01*
X156314536Y-77894061D02*
X156456003Y-77913943D01*
X156456003Y-77913943D02*
X156651253Y-77893297D01*
X156651253Y-77893297D02*
X156752191Y-77859396D01*
X156752191Y-77859396D02*
X156859757Y-77778339D01*
X156859757Y-77778339D02*
X156926795Y-77643499D01*
X156926795Y-77643499D02*
X156959931Y-77407721D01*
X155764217Y-78730373D02*
X155830490Y-78258816D01*
X155830490Y-78258816D02*
X156308673Y-78277934D01*
X156308673Y-78277934D02*
X156254890Y-78318462D01*
X156254890Y-78318462D02*
X156194480Y-78406146D01*
X156194480Y-78406146D02*
X156161344Y-78641924D01*
X156161344Y-78641924D02*
X156195245Y-78742863D01*
X156195245Y-78742863D02*
X156235773Y-78796645D01*
X156235773Y-78796645D02*
X156323457Y-78857056D01*
X156323457Y-78857056D02*
X156559235Y-78890192D01*
X156559235Y-78890192D02*
X156660174Y-78856291D01*
X156660174Y-78856291D02*
X156713957Y-78815763D01*
X156713957Y-78815763D02*
X156774367Y-78728079D01*
X156774367Y-78728079D02*
X156807503Y-78492301D01*
X156807503Y-78492301D02*
X156773602Y-78391362D01*
X156773602Y-78391362D02*
X156733074Y-78337579D01*
D11*
%TO.C,D8*%
X184041230Y-124081793D02*
X185985316Y-120574568D01*
X185790469Y-125051412D02*
X184041230Y-124081793D01*
X185790469Y-125051412D02*
X187734556Y-121544187D01*
%TO.C,D7*%
X173371283Y-84304172D02*
X173929368Y-80333197D01*
X175351820Y-84582518D02*
X173371283Y-84304172D01*
X175351820Y-84582518D02*
X175909904Y-80611543D01*
%TO.C,D6*%
X170831283Y-103380360D02*
X171389368Y-99409385D01*
X172811820Y-103658706D02*
X170831283Y-103380360D01*
X172811820Y-103658706D02*
X173369904Y-99687731D01*
%TO.C,D1*%
X114138118Y-88227796D02*
X114487612Y-84233055D01*
X116130507Y-88402107D02*
X114138118Y-88227796D01*
X116130507Y-88402107D02*
X116480002Y-84407366D01*
%TO.C,D4*%
X152571647Y-95474302D02*
X153129732Y-91503327D01*
X154552184Y-95752648D02*
X152571647Y-95474302D01*
X154552184Y-95752648D02*
X155110268Y-91781673D01*
%TO.C,D2*%
X132891283Y-96550360D02*
X133449368Y-92579385D01*
X134871820Y-96828706D02*
X132891283Y-96550360D01*
X134871820Y-96828706D02*
X135429904Y-92857731D01*
%TO.C,D3*%
X135580919Y-77756418D02*
X136139004Y-73785443D01*
X137561456Y-78034764D02*
X135580919Y-77756418D01*
X137561456Y-78034764D02*
X138119540Y-74063789D01*
%TO.C,D5*%
X155051283Y-76690360D02*
X155609368Y-72719385D01*
X157031820Y-76968706D02*
X155051283Y-76690360D01*
X157031820Y-76968706D02*
X157589904Y-72997731D01*
%TD*%
%LPC*%
D12*
%TO.C,USB1*%
X189315602Y-72370835D03*
X182175124Y-70853079D03*
X188379999Y-76772499D03*
X181239522Y-75254744D03*
%TD*%
D13*
%TO.C,MX5*%
X143004442Y-72775631D03*
D14*
X144615582Y-70437100D03*
D15*
X148035004Y-73482630D03*
D14*
X151257284Y-68805568D03*
D13*
X153065566Y-74189629D03*
D16*
X141372453Y-69981307D03*
X154527148Y-69265116D03*
%TD*%
D13*
%TO.C,MX4*%
X140459405Y-91580558D03*
D14*
X142070545Y-89242027D03*
D15*
X145489967Y-92287557D03*
D14*
X148712247Y-87610495D03*
D13*
X150520529Y-92994556D03*
D16*
X138827416Y-88786234D03*
X151982111Y-88070043D03*
%TD*%
D13*
%TO.C,MX8*%
X174083784Y-116259811D03*
D14*
X176368498Y-114573223D03*
D15*
X178610097Y-118566083D03*
D14*
X183179525Y-115192906D03*
D13*
X183136410Y-120872355D03*
D17*
X173450451Y-113086403D03*
X186121628Y-116691981D03*
%TD*%
D13*
%TO.C,MX6*%
X158718797Y-99054704D03*
D14*
X160329937Y-96716173D03*
D15*
X163749359Y-99761703D03*
D14*
X166971639Y-95084641D03*
D13*
X168779921Y-100468702D03*
D16*
X157086808Y-96260380D03*
X170241503Y-95544189D03*
%TD*%
D13*
%TO.C,MX1*%
X102031262Y-85279120D03*
D14*
X103432455Y-82809068D03*
D15*
X107104300Y-85544987D03*
D14*
X109906686Y-80604882D03*
D13*
X112177338Y-85810854D03*
D18*
X100161942Y-82637667D03*
X113204159Y-80777695D03*
%TD*%
D13*
%TO.C,MX3*%
X123671798Y-73648751D03*
D14*
X125282938Y-71310220D03*
D15*
X128702360Y-74355750D03*
D14*
X131924640Y-69678688D03*
D13*
X133732922Y-75062749D03*
D16*
X122039809Y-70854427D03*
X135194504Y-70138236D03*
%TD*%
D13*
%TO.C,MX2*%
X121003974Y-92497075D03*
D14*
X122615114Y-90158544D03*
D15*
X126034536Y-93204074D03*
D14*
X129256816Y-88527012D03*
D13*
X131065098Y-93911073D03*
D16*
X119371985Y-89702751D03*
X132526680Y-88986560D03*
%TD*%
D13*
%TO.C,MX7*%
X161349438Y-80245501D03*
D14*
X162960578Y-77906970D03*
D15*
X166380000Y-80952500D03*
D14*
X169602280Y-76275438D03*
D13*
X171410562Y-81659499D03*
D16*
X159717449Y-77451177D03*
X172872144Y-76734986D03*
%TD*%
D19*
%TO.C,D8*%
X185260064Y-123945623D03*
X186859936Y-121059377D03*
%TD*%
D20*
%TO.C,D7*%
X174460364Y-83740254D03*
X174919636Y-80472370D03*
%TD*%
%TO.C,D6*%
X171920364Y-102816442D03*
X172379636Y-99548558D03*
%TD*%
D21*
%TO.C,D1*%
X115196193Y-87607653D03*
X115483807Y-84320211D03*
%TD*%
D20*
%TO.C,D4*%
X153660728Y-94910384D03*
X154120000Y-91642500D03*
%TD*%
%TO.C,D2*%
X133980364Y-95986442D03*
X134439636Y-92718558D03*
%TD*%
%TO.C,D3*%
X136670000Y-77192500D03*
X137129272Y-73924616D03*
%TD*%
%TO.C,D5*%
X156140364Y-76126442D03*
X156599636Y-72858558D03*
%TD*%
M02*
