%TF.GenerationSoftware,KiCad,Pcbnew,(7.0.0)*%
%TF.CreationDate,2023-03-16T17:08:34-03:00*%
%TF.ProjectId,TCC-PCB,5443432d-5043-4422-9e6b-696361645f70,rev?*%
%TF.SameCoordinates,Original*%
%TF.FileFunction,Copper,L2,Bot*%
%TF.FilePolarity,Positive*%
%FSLAX46Y46*%
G04 Gerber Fmt 4.6, Leading zero omitted, Abs format (unit mm)*
G04 Created by KiCad (PCBNEW (7.0.0)) date 2023-03-16 17:08:34*
%MOMM*%
%LPD*%
G01*
G04 APERTURE LIST*
G04 Aperture macros list*
%AMRoundRect*
0 Rectangle with rounded corners*
0 $1 Rounding radius*
0 $2 $3 $4 $5 $6 $7 $8 $9 X,Y pos of 4 corners*
0 Add a 4 corners polygon primitive as box body*
4,1,4,$2,$3,$4,$5,$6,$7,$8,$9,$2,$3,0*
0 Add four circle primitives for the rounded corners*
1,1,$1+$1,$2,$3*
1,1,$1+$1,$4,$5*
1,1,$1+$1,$6,$7*
1,1,$1+$1,$8,$9*
0 Add four rect primitives between the rounded corners*
20,1,$1+$1,$2,$3,$4,$5,0*
20,1,$1+$1,$4,$5,$6,$7,0*
20,1,$1+$1,$6,$7,$8,$9,0*
20,1,$1+$1,$8,$9,$2,$3,0*%
%AMHorizOval*
0 Thick line with rounded ends*
0 $1 width*
0 $2 $3 position (X,Y) of the first rounded end (center of the circle)*
0 $4 $5 position (X,Y) of the second rounded end (center of the circle)*
0 Add line between two ends*
20,1,$1,$2,$3,$4,$5,0*
0 Add two circle primitives to create the rounded ends*
1,1,$1,$2,$3*
1,1,$1,$4,$5*%
%AMRotRect*
0 Rectangle, with rotation*
0 The origin of the aperture is its center*
0 $1 length*
0 $2 width*
0 $3 Rotation angle, in degrees counterclockwise*
0 Add horizontal line*
21,1,$1,$2,0,0,$3*%
G04 Aperture macros list end*
%TA.AperFunction,ComponentPad*%
%ADD10HorizOval,1.700000X-0.103956X-0.489074X0.103956X0.489074X0*%
%TD*%
%TA.AperFunction,SMDPad,CuDef*%
%ADD11RotRect,2.550000X2.500000X352.000000*%
%TD*%
%TA.AperFunction,SMDPad,CuDef*%
%ADD12RotRect,2.550000X2.500000X333.000000*%
%TD*%
%TA.AperFunction,SMDPad,CuDef*%
%ADD13RotRect,2.550000X2.500000X357.000000*%
%TD*%
%TA.AperFunction,SMDPad,CuDef*%
%ADD14RoundRect,0.225000X0.218900X-0.378593X0.437065X0.014986X-0.218900X0.378593X-0.437065X-0.014986X0*%
%TD*%
%TA.AperFunction,SMDPad,CuDef*%
%ADD15RoundRect,0.225000X0.340037X-0.275000X0.402664X0.170620X-0.340037X0.275000X-0.402664X-0.170620X0*%
%TD*%
%TA.AperFunction,SMDPad,CuDef*%
%ADD16RoundRect,0.225000X0.353963X-0.256827X0.393183X0.191460X-0.353963X0.256827X-0.393183X-0.191460X0*%
%TD*%
%TA.AperFunction,ViaPad*%
%ADD17C,0.800000*%
%TD*%
%TA.AperFunction,Conductor*%
%ADD18C,0.250000*%
%TD*%
G04 APERTURE END LIST*
D10*
%TO.P,USB1,6,SHIELD*%
%TO.N,unconnected-(USB1-SHIELD-Pad6)*%
X189315602Y-72370835D03*
X182175124Y-70853079D03*
X188379999Y-76772499D03*
X181239522Y-75254744D03*
%TD*%
D11*
%TO.P,MX5,1,COL*%
%TO.N,COL2*%
X141372453Y-69981307D03*
%TO.P,MX5,2,ROW*%
%TO.N,Net-(D5-A)*%
X154527148Y-69265116D03*
%TD*%
%TO.P,MX4,1,COL*%
%TO.N,COL2*%
X138827416Y-88786234D03*
%TO.P,MX4,2,ROW*%
%TO.N,Net-(D4-A)*%
X151982111Y-88070043D03*
%TD*%
D12*
%TO.P,MX8,1,COL*%
%TO.N,COL4*%
X173450451Y-113086403D03*
%TO.P,MX8,2,ROW*%
%TO.N,Net-(D8-A)*%
X186121628Y-116691981D03*
%TD*%
D11*
%TO.P,MX6,1,COL*%
%TO.N,COL3*%
X157086808Y-96260380D03*
%TO.P,MX6,2,ROW*%
%TO.N,Net-(D6-A)*%
X170241503Y-95544189D03*
%TD*%
D13*
%TO.P,MX1,1,COL*%
%TO.N,COL0*%
X100161942Y-82637667D03*
%TO.P,MX1,2,ROW*%
%TO.N,Net-(D1-A)*%
X113204159Y-80777695D03*
%TD*%
D11*
%TO.P,MX3,1,COL*%
%TO.N,COL1*%
X122039809Y-70854427D03*
%TO.P,MX3,2,ROW*%
%TO.N,Net-(D3-A)*%
X135194504Y-70138236D03*
%TD*%
%TO.P,MX2,1,COL*%
%TO.N,COL1*%
X119371985Y-89702751D03*
%TO.P,MX2,2,ROW*%
%TO.N,Net-(D2-A)*%
X132526680Y-88986560D03*
%TD*%
%TO.P,MX7,1,COL*%
%TO.N,COL3*%
X159717449Y-77451177D03*
%TO.P,MX7,2,ROW*%
%TO.N,Net-(D7-A)*%
X172872144Y-76734986D03*
%TD*%
D14*
%TO.P,D8,1,K*%
%TO.N,Net-(D2-K)*%
X185260064Y-123945623D03*
%TO.P,D8,2,A*%
%TO.N,Net-(D8-A)*%
X186859936Y-121059377D03*
%TD*%
D15*
%TO.P,D7,1,K*%
%TO.N,Net-(D1-K)*%
X174460364Y-83740254D03*
%TO.P,D7,2,A*%
%TO.N,Net-(D7-A)*%
X174919636Y-80472370D03*
%TD*%
%TO.P,D6,1,K*%
%TO.N,Net-(D2-K)*%
X171920364Y-102816442D03*
%TO.P,D6,2,A*%
%TO.N,Net-(D6-A)*%
X172379636Y-99548558D03*
%TD*%
D16*
%TO.P,D1,1,K*%
%TO.N,Net-(D1-K)*%
X115196193Y-87607653D03*
%TO.P,D1,2,A*%
%TO.N,Net-(D1-A)*%
X115483807Y-84320211D03*
%TD*%
D15*
%TO.P,D4,1,K*%
%TO.N,Net-(D2-K)*%
X153660728Y-94910384D03*
%TO.P,D4,2,A*%
%TO.N,Net-(D4-A)*%
X154120000Y-91642500D03*
%TD*%
%TO.P,D2,1,K*%
%TO.N,Net-(D2-K)*%
X133980364Y-95986442D03*
%TO.P,D2,2,A*%
%TO.N,Net-(D2-A)*%
X134439636Y-92718558D03*
%TD*%
%TO.P,D3,1,K*%
%TO.N,Net-(D1-K)*%
X136670000Y-77192500D03*
%TO.P,D3,2,A*%
%TO.N,Net-(D3-A)*%
X137129272Y-73924616D03*
%TD*%
%TO.P,D5,1,K*%
%TO.N,Net-(D1-K)*%
X156140364Y-76126442D03*
%TO.P,D5,2,A*%
%TO.N,Net-(D5-A)*%
X156599636Y-72858558D03*
%TD*%
D17*
%TO.N,Net-(U1-UCAP)*%
X183430000Y-88722500D03*
X192270000Y-98545665D03*
%TO.N,GND*%
X179850000Y-89292500D03*
X195090000Y-96222500D03*
X193340000Y-98802500D03*
X178790000Y-78292500D03*
%TO.N,+5V*%
X196190000Y-90442500D03*
X188430000Y-97662500D03*
X196850000Y-77442500D03*
X180890000Y-105282500D03*
X185890000Y-107722500D03*
X187860000Y-102012500D03*
X176300000Y-96092500D03*
%TO.N,Net-(U1-XTAL1)*%
X179910000Y-91142500D03*
X187130000Y-108822500D03*
%TO.N,Net-(U1-XTAL2)*%
X180790000Y-87932500D03*
X178740000Y-89722500D03*
X177880000Y-105192500D03*
X187140000Y-90632500D03*
%TO.N,COL0*%
X152580000Y-104332500D03*
%TO.N,COL1*%
X118780000Y-73012500D03*
X117350000Y-93122500D03*
X120410000Y-75702500D03*
%TO.N,COL2*%
X136970000Y-93752500D03*
X138710000Y-81192500D03*
X139580000Y-74012500D03*
%TO.N,COL3*%
X157010000Y-86132500D03*
X160110000Y-101722500D03*
X158950000Y-81942500D03*
X155780000Y-107472500D03*
X155330000Y-103142500D03*
%TO.N,Net-(U1-~{HWB}{slash}PE2)*%
X191000000Y-109922500D03*
X178400000Y-103932500D03*
%TO.N,Net-(U1-D+)*%
X191750000Y-100102500D03*
X180050000Y-81522500D03*
%TO.N,Net-(U1-D-)*%
X191300000Y-103592500D03*
X174090000Y-95642500D03*
%TO.N,Net-(U1-~{RESET})*%
X190270000Y-81982500D03*
X191630000Y-90922000D03*
%TO.N,COL4*%
X175070000Y-106632500D03*
%TD*%
D18*
%TO.N,Net-(U1-UCAP)*%
X190905000Y-90067500D02*
X189560000Y-88722500D01*
X190905000Y-91222805D02*
X190905000Y-90067500D01*
X191865000Y-91647500D02*
X191329695Y-91647500D01*
X192720000Y-98095665D02*
X192720000Y-92502500D01*
X189560000Y-88722500D02*
X183430000Y-88722500D01*
X192270000Y-98545665D02*
X192720000Y-98095665D01*
X191329695Y-91647500D02*
X190905000Y-91222805D01*
X192720000Y-92502500D02*
X191865000Y-91647500D01*
%TO.N,GND*%
X195090000Y-98352500D02*
X194640000Y-98802500D01*
X179210000Y-78712500D02*
X179210000Y-88562500D01*
X179850000Y-89292500D02*
X179940000Y-89292500D01*
X194640000Y-98802500D02*
X193360000Y-98802500D01*
X179940000Y-89292500D02*
X179850000Y-89202500D01*
X195090000Y-96222500D02*
X195090000Y-98352500D01*
X179210000Y-88562500D02*
X179850000Y-89202500D01*
X179850000Y-89202500D02*
X179850000Y-89292500D01*
X178790000Y-78292500D02*
X179210000Y-78712500D01*
%TO.N,+5V*%
X183500000Y-105282500D02*
X185890000Y-107672500D01*
X176300000Y-96092500D02*
X176300000Y-100692500D01*
X185940000Y-107722500D02*
X185850000Y-107632500D01*
X196160000Y-78132500D02*
X196190000Y-90442500D01*
X180890000Y-105282500D02*
X183500000Y-105282500D01*
X188430000Y-97662500D02*
X188490000Y-97662500D01*
X188490000Y-97662500D02*
X188450000Y-97702500D01*
X188430000Y-97722500D02*
X188430000Y-97662500D01*
X185890000Y-107672500D02*
X185890000Y-107722500D01*
X196850000Y-77442500D02*
X196160000Y-78132500D01*
X187860000Y-98292500D02*
X188430000Y-97722500D01*
X176300000Y-100692500D02*
X180890000Y-105282500D01*
X187860000Y-102012500D02*
X187860000Y-98292500D01*
X185890000Y-107722500D02*
X185940000Y-107722500D01*
%TO.N,Net-(U1-XTAL1)*%
X184770000Y-105577195D02*
X184770000Y-96002500D01*
X187130000Y-108822500D02*
X186472652Y-108165152D01*
X186615000Y-108022805D02*
X186615000Y-107422195D01*
X184770000Y-96002500D02*
X179910000Y-91142500D01*
X186615000Y-107422195D02*
X184770000Y-105577195D01*
X186472652Y-108165152D02*
X186615000Y-108022805D01*
X179910000Y-91142500D02*
X179910000Y-90982500D01*
X179910000Y-90982500D02*
X179960000Y-91032500D01*
%TO.N,Net-(U1-XTAL2)*%
X177880000Y-105272500D02*
X177840000Y-105232500D01*
X174940000Y-102252500D02*
X177880000Y-105192500D01*
X180790000Y-87932500D02*
X183590000Y-90732500D01*
X177880000Y-105192500D02*
X177880000Y-105272500D01*
X183590000Y-90732500D02*
X187140000Y-90632500D01*
X178740000Y-89722500D02*
X174940000Y-93522500D01*
X174940000Y-93522500D02*
X174940000Y-102252500D01*
%TO.N,Net-(D1-K)*%
X157760000Y-78450295D02*
X157760000Y-82382500D01*
X136221634Y-86652012D02*
X136670000Y-86203646D01*
X115196193Y-87607653D02*
X116151834Y-86652012D01*
X159117754Y-83740254D02*
X174460364Y-83740254D01*
X156140364Y-76126442D02*
X156140364Y-76830659D01*
X149534983Y-82731823D02*
X156140364Y-76126442D01*
X136670000Y-86203646D02*
X136670000Y-77192500D01*
X116151834Y-86652012D02*
X136221634Y-86652012D01*
X157760000Y-82382500D02*
X159117754Y-83740254D01*
X142209323Y-82731823D02*
X149534983Y-82731823D01*
X156140364Y-76830659D02*
X157760000Y-78450295D01*
X136670000Y-77192500D02*
X142209323Y-82731823D01*
%TO.N,Net-(D1-A)*%
X113204160Y-82040564D02*
X115483807Y-84320211D01*
X113204160Y-80777696D02*
X113204160Y-82040564D01*
%TO.N,Net-(D2-A)*%
X132526681Y-90805603D02*
X132526681Y-88986561D01*
X134439636Y-92718558D02*
X132526681Y-90805603D01*
%TO.N,Net-(D2-K)*%
X171920364Y-102816442D02*
X170874983Y-103861823D01*
X170874983Y-103861823D02*
X158001823Y-103861823D01*
X155580000Y-97710139D02*
X153660728Y-95790867D01*
X173705623Y-123945623D02*
X168631823Y-118871823D01*
X138975745Y-100981823D02*
X133980364Y-95986442D01*
X168631823Y-106104983D02*
X171920364Y-102816442D01*
X155580000Y-101440000D02*
X155580000Y-97710139D01*
X153660728Y-99292918D02*
X151971823Y-100981823D01*
X151971823Y-100981823D02*
X138975745Y-100981823D01*
X185260064Y-123945623D02*
X173705623Y-123945623D01*
X168631823Y-118871823D02*
X168631823Y-106104983D01*
X153660728Y-95790867D02*
X153660728Y-94910384D01*
X153660728Y-94910384D02*
X153660728Y-99292918D01*
X158001823Y-103861823D02*
X155580000Y-101440000D01*
%TO.N,Net-(D3-A)*%
X137129272Y-73924616D02*
X135194505Y-71989849D01*
X135194505Y-71989849D02*
X135194505Y-70138237D01*
%TO.N,Net-(D4-A)*%
X151982112Y-89504612D02*
X151982112Y-88070044D01*
X154120000Y-91642500D02*
X151982112Y-89504612D01*
%TO.N,Net-(D5-A)*%
X154527149Y-70786071D02*
X154527149Y-69265117D01*
X156599636Y-72858558D02*
X154527149Y-70786071D01*
%TO.N,Net-(D6-A)*%
X172379636Y-99548558D02*
X170241504Y-97410426D01*
X170241504Y-97410426D02*
X170241504Y-95544190D01*
%TO.N,Net-(D7-A)*%
X172872145Y-78424879D02*
X172872145Y-76734987D01*
X174919636Y-80472370D02*
X172872145Y-78424879D01*
%TO.N,Net-(D8-A)*%
X186121629Y-120321070D02*
X186121629Y-116691982D01*
X186859936Y-121059377D02*
X186121629Y-120321070D01*
%TO.N,COL0*%
X152390000Y-104422500D02*
X152300000Y-104422500D01*
X152210000Y-104422500D02*
X152580000Y-104332500D01*
X152580000Y-104332500D02*
X152390000Y-104422500D01*
X97371823Y-95631823D02*
X106162500Y-104422500D01*
X100161943Y-85177568D02*
X97371823Y-87967688D01*
X97371823Y-87967688D02*
X97371823Y-95631823D01*
X106162500Y-104422500D02*
X152210000Y-104422500D01*
X100161943Y-82637668D02*
X100161943Y-85177568D01*
%TO.N,COL1*%
X118780000Y-73012500D02*
X120938072Y-70854428D01*
X119371986Y-91030514D02*
X117350000Y-93052500D01*
X120410000Y-75702500D02*
X120410000Y-74642500D01*
X120410000Y-74642500D02*
X118780000Y-73012500D01*
X120938072Y-70854428D02*
X122039810Y-70854428D01*
X119371986Y-89702752D02*
X119371986Y-91030514D01*
%TO.N,COL2*%
X136970000Y-91963646D02*
X138827417Y-90106229D01*
X136970000Y-93752500D02*
X136970000Y-91963646D01*
X141372454Y-72220046D02*
X141372454Y-69981308D01*
X138827417Y-90106229D02*
X138827417Y-88786235D01*
X138827417Y-88786235D02*
X138827417Y-81325083D01*
X139580000Y-74012500D02*
X141372454Y-72220046D01*
%TO.N,COL3*%
X157086809Y-99190483D02*
X157086809Y-96260381D01*
X157086809Y-96260381D02*
X157086809Y-86209309D01*
X159717450Y-81175050D02*
X159717450Y-77451178D01*
X160110000Y-101722500D02*
X158440000Y-101722500D01*
X155780000Y-103672500D02*
X155330000Y-103222500D01*
X155330000Y-103222500D02*
X155330000Y-103142500D01*
X157030000Y-99247292D02*
X157086809Y-99190483D01*
X155250000Y-103142500D02*
X155370000Y-103262500D01*
X155330000Y-103142500D02*
X155250000Y-103142500D01*
X157030000Y-100312500D02*
X157030000Y-99247292D01*
X155780000Y-107472500D02*
X155780000Y-103672500D01*
X158440000Y-101722500D02*
X157030000Y-100312500D01*
X158950000Y-81942500D02*
X159717450Y-81175050D01*
%TO.N,Net-(U1-~{HWB}{slash}PE2)*%
X191000000Y-109922500D02*
X184370000Y-109922500D01*
X184370000Y-109922500D02*
X178400000Y-103952500D01*
%TO.N,Net-(U1-D+)*%
X187440305Y-91357500D02*
X189499455Y-89298351D01*
X190455000Y-90253896D02*
X190455000Y-91409201D01*
X191545000Y-99897500D02*
X191750000Y-100102500D01*
X192270000Y-97520360D02*
X191545000Y-98245360D01*
X180050000Y-81522500D02*
X180050000Y-88217805D01*
X192270000Y-92688896D02*
X192270000Y-97520360D01*
X190455000Y-91409201D02*
X191143299Y-92097500D01*
X191143299Y-92097500D02*
X191678604Y-92097500D01*
X189499455Y-89298351D02*
X190455000Y-90253896D01*
X183189695Y-91357500D02*
X187440305Y-91357500D01*
X191678604Y-92097500D02*
X192270000Y-92688896D01*
X191545000Y-98245360D02*
X191545000Y-99897500D01*
X180050000Y-88217805D02*
X183189695Y-91357500D01*
%TO.N,Net-(U1-D-)*%
X191810000Y-103632500D02*
X191300000Y-103592500D01*
X182309695Y-110647500D02*
X191325000Y-110647500D01*
X192940000Y-104762500D02*
X191810000Y-103632500D01*
X174090000Y-95642500D02*
X174090000Y-102427805D01*
X191325000Y-110647500D02*
X192940000Y-109032500D01*
X192940000Y-109032500D02*
X192940000Y-104762500D01*
X174090000Y-102427805D02*
X182309695Y-110647500D01*
%TO.N,Net-(U1-~{RESET})*%
X190270000Y-81982500D02*
X190130000Y-81982500D01*
X191630000Y-90922000D02*
X191630000Y-83482500D01*
X191630000Y-83482500D02*
X190270000Y-82122500D01*
X190130000Y-81982500D02*
X190240000Y-82092500D01*
X190270000Y-82122500D02*
X190270000Y-81982500D01*
%TO.N,COL4*%
X173450452Y-113086404D02*
X173450452Y-108212048D01*
X173450452Y-108212048D02*
X175030000Y-106632500D01*
%TD*%
M02*
