M48
; DRILL file {KiCad (7.0.0)} date Thu Mar 16 17:09:01 2023
; FORMAT={-:-/ absolute / inch / decimal}
; #@! TF.CreationDate,2023-03-16T17:09:01-03:00
; #@! TF.GenerationSoftware,Kicad,Pcbnew,(7.0.0)
; #@! TF.FileFunction,NonPlated,1,2,NPTH
FMAT,2
INCH
; #@! TA.AperFunction,NonPlated,NPTH,ComponentDrill
T1C0.0689
; #@! TA.AperFunction,NonPlated,NPTH,ComponentDrill
T2C0.1181
; #@! TA.AperFunction,NonPlated,NPTH,ComponentDrill
T3C0.1570
%
G90
G05
T1
X4.017Y-3.3574
X4.4164Y-3.3784
X4.7639Y-3.6416
X4.869Y-2.8996
X5.16Y-3.6973
X5.2651Y-2.9552
X5.5299Y-3.6055
X5.6301Y-2.8652
X5.926Y-3.6612
X6.0262Y-2.9209
X6.2488Y-3.8998
X6.3523Y-3.1593
X6.6449Y-3.9555
X6.7484Y-3.2149
X6.8537Y-4.5772
X7.2101Y-4.7588
T2
X4.0721Y-3.2602
X4.327Y-3.1734
X4.8274Y-3.5495
X4.9324Y-2.8075
X5.0889Y-3.4853
X5.1939Y-2.7433
X5.5933Y-3.5135
X5.6935Y-2.7731
X5.8548Y-3.4492
X5.955Y-2.7089
X6.3122Y-3.8077
X6.4158Y-3.0672
X6.5737Y-3.7435
X6.6773Y-3.003
X6.9436Y-4.5108
X7.2118Y-4.5352
T3
X4.2167Y-3.3679
X4.962Y-3.6695
X5.067Y-2.9274
X5.728Y-3.6334
X5.8281Y-2.893
X6.4468Y-3.9276
X6.5504Y-3.1871
X7.0319Y-4.668
T0
M30
